<svg width="5" height="7" viewBox="0 0 5 7" fill="none" xmlns="http://www.w3.org/2000/svg">
<path d="M4.19922 1.81836C4.19922 1.88997 4.15039 2.05924 4.05273 2.32617C3.95508 2.5931 3.82487 2.9056 3.66211 3.26367C3.50586 3.62174 3.32357 3.99935 3.11523 4.39648C2.9069 4.79362 2.69531 5.1582 2.48047 5.49023C2.26562 5.82227 2.05404 6.0957 1.8457 6.31055C1.64388 6.5319 1.46159 6.64258 1.29883 6.64258C1.2207 6.64258 1.12305 6.61979 1.00586 6.57422C0.888672 6.52865 0.77474 6.47005 0.664062 6.39844C0.559896 6.33333 0.46875 6.25846 0.390625 6.17383C0.3125 6.0957 0.273438 6.01758 0.273438 5.93945C0.273438 5.87435 0.338542 5.71159 0.46875 5.45117C0.605469 5.19727 0.771484 4.86523 0.966797 4.45508C1.16211 4.05143 1.37044 3.58594 1.5918 3.05859C1.81315 2.53125 2.00846 1.96484 2.17773 1.35938C2.2168 1.22917 2.27214 1.12826 2.34375 1.05664C2.41536 0.978516 2.51302 0.939453 2.63672 0.939453C2.75391 0.939453 2.90039 0.965495 3.07617 1.01758C3.25195 1.06315 3.42122 1.12826 3.58398 1.21289C3.75326 1.29102 3.89648 1.38216 4.01367 1.48633C4.13737 1.59049 4.19922 1.70117 4.19922 1.81836Z" fill="#27AAFF"/>
</svg>
