<svg width="8" height="10" viewBox="0 0 8 10" fill="none" xmlns="http://www.w3.org/2000/svg">
<path d="M2.25586 4.61914C2.07357 4.79492 1.88151 4.88281 1.67969 4.88281C1.58854 4.88281 1.49414 4.86328 1.39648 4.82422C1.29883 4.77865 1.1849 4.70378 1.05469 4.59961C0.813802 4.41732 0.693359 4.22526 0.693359 4.02344C0.693359 3.89323 0.768229 3.74023 0.917969 3.56445C1.0612 3.38867 1.25 3.20638 1.48438 3.01758C1.71875 2.82227 1.98242 2.6237 2.27539 2.42188C2.57487 2.22005 2.8776 2.02799 3.18359 1.8457C3.48958 1.66341 3.78581 1.4974 4.07227 1.34766C4.35872 1.19792 4.60612 1.07422 4.81445 0.976562C4.93815 0.924479 5.05208 0.885417 5.15625 0.859375C5.26042 0.833333 5.36784 0.820312 5.47852 0.820312C5.69987 0.820312 5.88867 0.859375 6.04492 0.9375C6.20768 1.00911 6.3444 1.11003 6.45508 1.24023C6.56576 1.37044 6.6569 1.52018 6.72852 1.68945C6.80664 1.85221 6.86849 2.02474 6.91406 2.20703C6.96615 2.38281 7.00846 2.5651 7.04102 2.75391C7.07357 2.9362 7.10612 3.10547 7.13867 3.26172C7.19076 3.52865 7.24284 3.83789 7.29492 4.18945C7.35352 4.53451 7.4056 4.89583 7.45117 5.27344C7.49674 5.64453 7.53906 6.01562 7.57812 6.38672C7.6237 6.7513 7.66276 7.0931 7.69531 7.41211C7.72786 7.72461 7.75065 7.99805 7.76367 8.23242C7.7832 8.46029 7.79297 8.62305 7.79297 8.7207C7.79297 9.17643 7.56836 9.44336 7.11914 9.52148C6.87174 9.57357 6.70898 9.60286 6.63086 9.60938C6.55273 9.61589 6.50065 9.61914 6.47461 9.61914C6.27279 9.61914 6.11003 9.56055 5.98633 9.44336C5.86914 9.32617 5.80078 9.15039 5.78125 8.91602C5.70964 8.04362 5.62826 7.17773 5.53711 6.31836C5.44596 5.45247 5.30599 4.5931 5.11719 3.74023C5.07812 3.55143 5.00977 3.4082 4.91211 3.31055C4.81445 3.21289 4.69727 3.16406 4.56055 3.16406C4.43034 3.16406 4.26758 3.21615 4.07227 3.32031C3.87695 3.42448 3.67188 3.55143 3.45703 3.70117C3.24219 3.85091 3.02734 4.01042 2.8125 4.17969C2.60417 4.34245 2.41862 4.48893 2.25586 4.61914Z" fill="#27AAFF"/>
</svg>
