<svg width="16" height="18" viewBox="0 0 16 18" fill="none" xmlns="http://www.w3.org/2000/svg">
<g filter="url(#filter0_d)">
<path d="M6.25586 4.61914C6.07357 4.79492 5.88151 4.88281 5.67969 4.88281C5.58854 4.88281 5.49414 4.86328 5.39648 4.82422C5.29883 4.77865 5.1849 4.70378 5.05469 4.59961C4.8138 4.41732 4.69336 4.22526 4.69336 4.02344C4.69336 3.89323 4.76823 3.74023 4.91797 3.56445C5.0612 3.38867 5.25 3.20638 5.48438 3.01758C5.71875 2.82227 5.98242 2.6237 6.27539 2.42188C6.57487 2.22005 6.8776 2.02799 7.18359 1.8457C7.48958 1.66341 7.78581 1.4974 8.07227 1.34766C8.35872 1.19792 8.60612 1.07422 8.81445 0.976562C8.93815 0.924479 9.05208 0.885417 9.15625 0.859375C9.26042 0.833333 9.36784 0.820312 9.47852 0.820312C9.69987 0.820312 9.88867 0.859375 10.0449 0.9375C10.2077 1.00911 10.3444 1.11003 10.4551 1.24023C10.5658 1.37044 10.6569 1.52018 10.7285 1.68945C10.8066 1.85221 10.8685 2.02474 10.9141 2.20703C10.9661 2.38281 11.0085 2.5651 11.041 2.75391C11.0736 2.9362 11.1061 3.10547 11.1387 3.26172C11.1908 3.52865 11.2428 3.83789 11.2949 4.18945C11.3535 4.53451 11.4056 4.89583 11.4512 5.27344C11.4967 5.64453 11.5391 6.01562 11.5781 6.38672C11.6237 6.7513 11.6628 7.0931 11.6953 7.41211C11.7279 7.72461 11.7507 7.99805 11.7637 8.23242C11.7832 8.46029 11.793 8.62305 11.793 8.7207C11.793 9.17643 11.5684 9.44336 11.1191 9.52148C10.8717 9.57357 10.709 9.60286 10.6309 9.60938C10.5527 9.61589 10.5007 9.61914 10.4746 9.61914C10.2728 9.61914 10.11 9.56055 9.98633 9.44336C9.86914 9.32617 9.80078 9.15039 9.78125 8.91602C9.70964 8.04362 9.62826 7.17773 9.53711 6.31836C9.44596 5.45247 9.30599 4.5931 9.11719 3.74023C9.07812 3.55143 9.00977 3.4082 8.91211 3.31055C8.81445 3.21289 8.69727 3.16406 8.56055 3.16406C8.43034 3.16406 8.26758 3.21615 8.07227 3.32031C7.87695 3.42448 7.67188 3.55143 7.45703 3.70117C7.24219 3.85091 7.02734 4.01042 6.8125 4.17969C6.60417 4.34245 6.41862 4.48893 6.25586 4.61914Z" fill="#F24E1E"/>
</g>
<defs>
<filter id="filter0_d" x="0.693359" y="0.820312" width="15.0996" height="16.7988" filterUnits="userSpaceOnUse" color-interpolation-filters="sRGB">
<feFlood flood-opacity="0" result="BackgroundImageFix"/>
<feColorMatrix in="SourceAlpha" type="matrix" values="0 0 0 0 0 0 0 0 0 0 0 0 0 0 0 0 0 0 127 0"/>
<feOffset dy="4"/>
<feGaussianBlur stdDeviation="2"/>
<feColorMatrix type="matrix" values="0 0 0 0 0 0 0 0 0 0 0 0 0 0 0 0 0 0 0.25 0"/>
<feBlend mode="normal" in2="BackgroundImageFix" result="effect1_dropShadow"/>
<feBlend mode="normal" in="SourceGraphic" in2="effect1_dropShadow" result="shape"/>
</filter>
</defs>
</svg>
