<svg width="20" height="11" viewBox="0 0 20 11" fill="none" xmlns="http://www.w3.org/2000/svg">
<path d="M1.57227 4.61914C1.38997 4.79492 1.19792 4.88281 0.996094 4.88281C0.904948 4.88281 0.810547 4.86328 0.712891 4.82422C0.615234 4.77865 0.501302 4.70378 0.371094 4.59961C0.130208 4.41732 0.00976562 4.22526 0.00976562 4.02344C0.00976562 3.89323 0.0846354 3.74023 0.234375 3.56445C0.377604 3.38867 0.566406 3.20638 0.800781 3.01758C1.03516 2.82227 1.29883 2.6237 1.5918 2.42188C1.89128 2.22005 2.19401 2.02799 2.5 1.8457C2.80599 1.66341 3.10221 1.4974 3.38867 1.34766C3.67513 1.19792 3.92253 1.07422 4.13086 0.976562C4.25456 0.924479 4.36849 0.885417 4.47266 0.859375C4.57682 0.833333 4.68424 0.820312 4.79492 0.820312C5.01628 0.820312 5.20508 0.859375 5.36133 0.9375C5.52409 1.00911 5.66081 1.11003 5.77148 1.24023C5.88216 1.37044 5.97331 1.52018 6.04492 1.68945C6.12305 1.85221 6.1849 2.02474 6.23047 2.20703C6.28255 2.38281 6.32487 2.5651 6.35742 2.75391C6.38997 2.9362 6.42253 3.10547 6.45508 3.26172C6.50716 3.52865 6.55924 3.83789 6.61133 4.18945C6.66992 4.53451 6.72201 4.89583 6.76758 5.27344C6.81315 5.64453 6.85547 6.01562 6.89453 6.38672C6.9401 6.7513 6.97917 7.0931 7.01172 7.41211C7.04427 7.72461 7.06706 7.99805 7.08008 8.23242C7.09961 8.46029 7.10938 8.62305 7.10938 8.7207C7.10938 9.17643 6.88477 9.44336 6.43555 9.52148C6.18815 9.57357 6.02539 9.60286 5.94727 9.60938C5.86914 9.61589 5.81706 9.61914 5.79102 9.61914C5.58919 9.61914 5.42643 9.56055 5.30273 9.44336C5.18555 9.32617 5.11719 9.15039 5.09766 8.91602C5.02604 8.04362 4.94466 7.17773 4.85352 6.31836C4.76237 5.45247 4.6224 4.5931 4.43359 3.74023C4.39453 3.55143 4.32617 3.4082 4.22852 3.31055C4.13086 3.21289 4.01367 3.16406 3.87695 3.16406C3.74674 3.16406 3.58398 3.21615 3.38867 3.32031C3.19336 3.42448 2.98828 3.55143 2.77344 3.70117C2.55859 3.85091 2.34375 4.01042 2.12891 4.17969C1.92057 4.34245 1.73503 4.48893 1.57227 4.61914ZM8.91602 6.16211C8.91602 5.45898 9.04297 4.80143 9.29688 4.18945C9.55729 3.57096 9.90885 3.03711 10.3516 2.58789C10.8008 2.13216 11.3249 1.77409 11.9238 1.51367C12.5228 1.25326 13.1673 1.12305 13.8574 1.12305C14.5931 1.12305 15.2832 1.24674 15.9277 1.49414C16.5723 1.73503 17.1322 2.06706 17.6074 2.49023C18.0892 2.9069 18.4668 3.39844 18.7402 3.96484C19.0202 4.53125 19.1602 5.13672 19.1602 5.78125C19.1602 6.20443 19.0918 6.61458 18.9551 7.01172C18.8184 7.40885 18.623 7.77995 18.3691 8.125C18.1217 8.47005 17.8223 8.78581 17.4707 9.07227C17.1257 9.35872 16.7415 9.60612 16.3184 9.81445C15.8952 10.0163 15.4395 10.1725 14.9512 10.2832C14.4694 10.4004 13.9714 10.459 13.457 10.459C12.7734 10.459 12.1517 10.3548 11.5918 10.1465C11.0319 9.94466 10.5534 9.6582 10.1562 9.28711C9.76562 8.90951 9.45964 8.45703 9.23828 7.92969C9.02344 7.40234 8.91602 6.81315 8.91602 6.16211ZM17.1973 6.16211C17.1973 5.72591 17.0996 5.3125 16.9043 4.92188C16.709 4.53125 16.4421 4.18945 16.1035 3.89648C15.765 3.60352 15.3678 3.3724 14.9121 3.20312C14.4564 3.02734 13.9714 2.93945 13.457 2.93945C13.099 2.93945 12.7637 3.01107 12.4512 3.1543C12.1387 3.29102 11.8685 3.47982 11.6406 3.7207C11.4128 3.95508 11.2305 4.23503 11.0938 4.56055C10.9635 4.87956 10.8984 5.22461 10.8984 5.5957C10.8984 6.57227 11.1458 7.32747 11.6406 7.86133C12.1354 8.39518 12.8288 8.66211 13.7207 8.66211C14.196 8.66211 14.6452 8.59701 15.0684 8.4668C15.4915 8.33659 15.8594 8.15755 16.1719 7.92969C16.4909 7.70182 16.7415 7.43815 16.9238 7.13867C17.1061 6.83268 17.1973 6.50716 17.1973 6.16211Z" fill="#27AAFF"/>
</svg>
