<svg width="28" height="19" viewBox="0 0 28 19" fill="none" xmlns="http://www.w3.org/2000/svg">
<g filter="url(#filter0_d)">
<path d="M5.57227 4.61914C5.38997 4.79492 5.19792 4.88281 4.99609 4.88281C4.90495 4.88281 4.81055 4.86328 4.71289 4.82422C4.61523 4.77865 4.5013 4.70378 4.37109 4.59961C4.13021 4.41732 4.00977 4.22526 4.00977 4.02344C4.00977 3.89323 4.08464 3.74023 4.23438 3.56445C4.3776 3.38867 4.56641 3.20638 4.80078 3.01758C5.03516 2.82227 5.29883 2.6237 5.5918 2.42188C5.89128 2.22005 6.19401 2.02799 6.5 1.8457C6.80599 1.66341 7.10221 1.4974 7.38867 1.34766C7.67513 1.19792 7.92253 1.07422 8.13086 0.976562C8.25456 0.924479 8.36849 0.885417 8.47266 0.859375C8.57682 0.833333 8.68424 0.820312 8.79492 0.820312C9.01628 0.820312 9.20508 0.859375 9.36133 0.9375C9.52409 1.00911 9.66081 1.11003 9.77148 1.24023C9.88216 1.37044 9.97331 1.52018 10.0449 1.68945C10.123 1.85221 10.1849 2.02474 10.2305 2.20703C10.2826 2.38281 10.3249 2.5651 10.3574 2.75391C10.39 2.9362 10.4225 3.10547 10.4551 3.26172C10.5072 3.52865 10.5592 3.83789 10.6113 4.18945C10.6699 4.53451 10.722 4.89583 10.7676 5.27344C10.8132 5.64453 10.8555 6.01562 10.8945 6.38672C10.9401 6.7513 10.9792 7.0931 11.0117 7.41211C11.0443 7.72461 11.0671 7.99805 11.0801 8.23242C11.0996 8.46029 11.1094 8.62305 11.1094 8.7207C11.1094 9.17643 10.8848 9.44336 10.4355 9.52148C10.1882 9.57357 10.0254 9.60286 9.94727 9.60938C9.86914 9.61589 9.81706 9.61914 9.79102 9.61914C9.58919 9.61914 9.42643 9.56055 9.30273 9.44336C9.18555 9.32617 9.11719 9.15039 9.09766 8.91602C9.02604 8.04362 8.94466 7.17773 8.85352 6.31836C8.76237 5.45247 8.6224 4.5931 8.43359 3.74023C8.39453 3.55143 8.32617 3.4082 8.22852 3.31055C8.13086 3.21289 8.01367 3.16406 7.87695 3.16406C7.74674 3.16406 7.58398 3.21615 7.38867 3.32031C7.19336 3.42448 6.98828 3.55143 6.77344 3.70117C6.55859 3.85091 6.34375 4.01042 6.12891 4.17969C5.92057 4.34245 5.73503 4.48893 5.57227 4.61914ZM12.916 6.16211C12.916 5.45898 13.043 4.80143 13.2969 4.18945C13.5573 3.57096 13.9089 3.03711 14.3516 2.58789C14.8008 2.13216 15.3249 1.77409 15.9238 1.51367C16.5228 1.25326 17.1673 1.12305 17.8574 1.12305C18.5931 1.12305 19.2832 1.24674 19.9277 1.49414C20.5723 1.73503 21.1322 2.06706 21.6074 2.49023C22.0892 2.9069 22.4668 3.39844 22.7402 3.96484C23.0202 4.53125 23.1602 5.13672 23.1602 5.78125C23.1602 6.20443 23.0918 6.61458 22.9551 7.01172C22.8184 7.40885 22.623 7.77995 22.3691 8.125C22.1217 8.47005 21.8223 8.78581 21.4707 9.07227C21.1257 9.35872 20.7415 9.60612 20.3184 9.81445C19.8952 10.0163 19.4395 10.1725 18.9512 10.2832C18.4694 10.4004 17.9714 10.459 17.457 10.459C16.7734 10.459 16.1517 10.3548 15.5918 10.1465C15.0319 9.94466 14.5534 9.6582 14.1562 9.28711C13.7656 8.90951 13.4596 8.45703 13.2383 7.92969C13.0234 7.40234 12.916 6.81315 12.916 6.16211ZM21.1973 6.16211C21.1973 5.72591 21.0996 5.3125 20.9043 4.92188C20.709 4.53125 20.4421 4.18945 20.1035 3.89648C19.765 3.60352 19.3678 3.3724 18.9121 3.20312C18.4564 3.02734 17.9714 2.93945 17.457 2.93945C17.099 2.93945 16.7637 3.01107 16.4512 3.1543C16.1387 3.29102 15.8685 3.47982 15.6406 3.7207C15.4128 3.95508 15.2305 4.23503 15.0938 4.56055C14.9635 4.87956 14.8984 5.22461 14.8984 5.5957C14.8984 6.57227 15.1458 7.32747 15.6406 7.86133C16.1354 8.39518 16.8288 8.66211 17.7207 8.66211C18.196 8.66211 18.6452 8.59701 19.0684 8.4668C19.4915 8.33659 19.8594 8.15755 20.1719 7.92969C20.4909 7.70182 20.7415 7.43815 20.9238 7.13867C21.1061 6.83268 21.1973 6.50716 21.1973 6.16211Z" fill="#F24E1E"/>
</g>
<defs>
<filter id="filter0_d" x="0.00976562" y="0.820312" width="27.1504" height="17.6387" filterUnits="userSpaceOnUse" color-interpolation-filters="sRGB">
<feFlood flood-opacity="0" result="BackgroundImageFix"/>
<feColorMatrix in="SourceAlpha" type="matrix" values="0 0 0 0 0 0 0 0 0 0 0 0 0 0 0 0 0 0 127 0"/>
<feOffset dy="4"/>
<feGaussianBlur stdDeviation="2"/>
<feColorMatrix type="matrix" values="0 0 0 0 0 0 0 0 0 0 0 0 0 0 0 0 0 0 0.25 0"/>
<feBlend mode="normal" in2="BackgroundImageFix" result="effect1_dropShadow"/>
<feBlend mode="normal" in="SourceGraphic" in2="effect1_dropShadow" result="shape"/>
</filter>
</defs>
</svg>
