<svg width="9" height="12" viewBox="0 0 9 12" fill="none" xmlns="http://www.w3.org/2000/svg">
<path d="M1.90039 3.08008C1.80924 3.22982 1.71159 3.34375 1.60742 3.42188C1.50326 3.5 1.38607 3.53906 1.25586 3.53906C1.19727 3.53906 1.12565 3.52604 1.04102 3.5C0.95638 3.47396 0.829427 3.42188 0.660156 3.34375C0.354167 3.17448 0.201172 2.95964 0.201172 2.69922C0.201172 2.54948 0.246745 2.40299 0.337891 2.25977C0.513672 1.98633 0.71875 1.73568 0.953125 1.50781C1.19401 1.27344 1.46419 1.07161 1.76367 0.902344C2.06966 0.733073 2.40495 0.599609 2.76953 0.501953C3.14062 0.404297 3.54427 0.355469 3.98047 0.355469C4.42969 0.355469 4.85612 0.423828 5.25977 0.560547C5.66341 0.697266 6.01823 0.892578 6.32422 1.14648C6.63021 1.39388 6.87109 1.69987 7.04688 2.06445C7.22917 2.42253 7.32031 2.82617 7.32031 3.27539C7.32031 3.81576 7.21289 4.3431 6.99805 4.85742C6.7832 5.36523 6.50326 5.86003 6.1582 6.3418C5.81966 6.81706 5.43555 7.27279 5.00586 7.70898C4.57617 8.13867 4.14648 8.54232 3.7168 8.91992C3.64518 8.97852 3.5931 9.03711 3.56055 9.0957C3.53451 9.1543 3.52148 9.20964 3.52148 9.26172C3.52148 9.33333 3.55404 9.39518 3.61914 9.44727C3.69076 9.49284 3.79167 9.51562 3.92188 9.51562C4.57292 9.54818 5.21745 9.59375 5.85547 9.65234C6.49349 9.70443 7.13477 9.76628 7.7793 9.83789C8.21549 9.89648 8.43359 10.1113 8.43359 10.4824C8.43359 10.5345 8.43034 10.5964 8.42383 10.668C8.41732 10.7331 8.38802 10.8568 8.33594 11.0391C8.28385 11.2604 8.18294 11.4232 8.0332 11.5273C7.88997 11.6315 7.71745 11.6836 7.51562 11.6836C7.38542 11.6836 7.18034 11.6706 6.90039 11.6445C6.62044 11.625 6.29492 11.599 5.92383 11.5664C5.55273 11.5339 5.14909 11.4948 4.71289 11.4492C4.27669 11.4102 3.83398 11.3743 3.38477 11.3418C2.94206 11.3092 2.50586 11.2799 2.07617 11.2539C1.64648 11.2344 1.2526 11.2246 0.894531 11.2246C0.751302 11.2246 0.627604 11.1921 0.523438 11.127C0.425781 11.0684 0.344401 10.9902 0.279297 10.8926C0.220703 10.7884 0.178385 10.668 0.152344 10.5312C0.126302 10.3945 0.113281 10.2513 0.113281 10.1016C0.113281 9.91927 0.152344 9.76302 0.230469 9.63281C0.315104 9.49609 0.432292 9.3724 0.582031 9.26172C0.88151 9.04036 1.20378 8.79622 1.54883 8.5293C1.90039 8.26237 2.25195 7.97917 2.60352 7.67969C2.95508 7.38021 3.29036 7.06771 3.60938 6.74219C3.9349 6.41016 4.22135 6.07487 4.46875 5.73633C4.72266 5.39128 4.92448 5.04622 5.07422 4.70117C5.22396 4.34961 5.29883 4.0013 5.29883 3.65625C5.29883 3.42188 5.25 3.21354 5.15234 3.03125C5.0612 2.84245 4.93424 2.68294 4.77148 2.55273C4.61523 2.41602 4.43294 2.3151 4.22461 2.25C4.01628 2.17839 3.80143 2.14258 3.58008 2.14258C3.15039 2.14258 2.80534 2.23372 2.54492 2.41602C2.28451 2.59831 2.06966 2.81966 1.90039 3.08008Z" fill="#27AAFF"/>
</svg>
