<svg width="17" height="20" viewBox="0 0 17 20" fill="none" xmlns="http://www.w3.org/2000/svg">
<g filter="url(#filter0_d)">
<path d="M5.90039 3.08008C5.80924 3.22982 5.71159 3.34375 5.60742 3.42188C5.50326 3.5 5.38607 3.53906 5.25586 3.53906C5.19727 3.53906 5.12565 3.52604 5.04102 3.5C4.95638 3.47396 4.82943 3.42188 4.66016 3.34375C4.35417 3.17448 4.20117 2.95964 4.20117 2.69922C4.20117 2.54948 4.24674 2.40299 4.33789 2.25977C4.51367 1.98633 4.71875 1.73568 4.95312 1.50781C5.19401 1.27344 5.46419 1.07161 5.76367 0.902344C6.06966 0.733073 6.40495 0.599609 6.76953 0.501953C7.14062 0.404297 7.54427 0.355469 7.98047 0.355469C8.42969 0.355469 8.85612 0.423828 9.25977 0.560547C9.66341 0.697266 10.0182 0.892578 10.3242 1.14648C10.6302 1.39388 10.8711 1.69987 11.0469 2.06445C11.2292 2.42253 11.3203 2.82617 11.3203 3.27539C11.3203 3.81576 11.2129 4.3431 10.998 4.85742C10.7832 5.36523 10.5033 5.86003 10.1582 6.3418C9.81966 6.81706 9.43555 7.27279 9.00586 7.70898C8.57617 8.13867 8.14648 8.54232 7.7168 8.91992C7.64518 8.97852 7.5931 9.03711 7.56055 9.0957C7.53451 9.1543 7.52148 9.20964 7.52148 9.26172C7.52148 9.33333 7.55404 9.39518 7.61914 9.44727C7.69076 9.49284 7.79167 9.51562 7.92188 9.51562C8.57292 9.54818 9.21745 9.59375 9.85547 9.65234C10.4935 9.70443 11.1348 9.76628 11.7793 9.83789C12.2155 9.89648 12.4336 10.1113 12.4336 10.4824C12.4336 10.5345 12.4303 10.5964 12.4238 10.668C12.4173 10.7331 12.388 10.8568 12.3359 11.0391C12.2839 11.2604 12.1829 11.4232 12.0332 11.5273C11.89 11.6315 11.7174 11.6836 11.5156 11.6836C11.3854 11.6836 11.1803 11.6706 10.9004 11.6445C10.6204 11.625 10.2949 11.599 9.92383 11.5664C9.55273 11.5339 9.14909 11.4948 8.71289 11.4492C8.27669 11.4102 7.83398 11.3743 7.38477 11.3418C6.94206 11.3092 6.50586 11.2799 6.07617 11.2539C5.64648 11.2344 5.2526 11.2246 4.89453 11.2246C4.7513 11.2246 4.6276 11.1921 4.52344 11.127C4.42578 11.0684 4.3444 10.9902 4.2793 10.8926C4.2207 10.7884 4.17839 10.668 4.15234 10.5312C4.1263 10.3945 4.11328 10.2513 4.11328 10.1016C4.11328 9.91927 4.15234 9.76302 4.23047 9.63281C4.3151 9.49609 4.43229 9.3724 4.58203 9.26172C4.88151 9.04036 5.20378 8.79622 5.54883 8.5293C5.90039 8.26237 6.25195 7.97917 6.60352 7.67969C6.95508 7.38021 7.29036 7.06771 7.60938 6.74219C7.9349 6.41016 8.22135 6.07487 8.46875 5.73633C8.72266 5.39128 8.92448 5.04622 9.07422 4.70117C9.22396 4.34961 9.29883 4.0013 9.29883 3.65625C9.29883 3.42188 9.25 3.21354 9.15234 3.03125C9.0612 2.84245 8.93424 2.68294 8.77148 2.55273C8.61523 2.41602 8.43294 2.3151 8.22461 2.25C8.01628 2.17839 7.80143 2.14258 7.58008 2.14258C7.15039 2.14258 6.80534 2.23372 6.54492 2.41602C6.28451 2.59831 6.06966 2.81966 5.90039 3.08008Z" fill="#F24E1E"/>
</g>
<defs>
<filter id="filter0_d" x="0.113281" y="0.355469" width="16.3203" height="19.3281" filterUnits="userSpaceOnUse" color-interpolation-filters="sRGB">
<feFlood flood-opacity="0" result="BackgroundImageFix"/>
<feColorMatrix in="SourceAlpha" type="matrix" values="0 0 0 0 0 0 0 0 0 0 0 0 0 0 0 0 0 0 127 0"/>
<feOffset dy="4"/>
<feGaussianBlur stdDeviation="2"/>
<feColorMatrix type="matrix" values="0 0 0 0 0 0 0 0 0 0 0 0 0 0 0 0 0 0 0.25 0"/>
<feBlend mode="normal" in2="BackgroundImageFix" result="effect1_dropShadow"/>
<feBlend mode="normal" in="SourceGraphic" in2="effect1_dropShadow" result="shape"/>
</filter>
</defs>
</svg>
