<svg width="11" height="12" viewBox="0 0 11 12" fill="none" xmlns="http://www.w3.org/2000/svg">
<path d="M4.78906 6.64453C4.74349 6.65755 4.70117 6.66732 4.66211 6.67383C4.62305 6.68034 4.58398 6.68359 4.54492 6.68359C4.3431 6.68359 4.18685 6.62174 4.07617 6.49805C3.96549 6.37435 3.89388 6.20182 3.86133 5.98047L3.80273 5.58008C3.80273 5.54753 3.79948 5.51823 3.79297 5.49219C3.78646 5.46615 3.7832 5.44336 3.7832 5.42383C3.7832 5.23503 3.82552 5.08529 3.91016 4.97461C4.0013 4.85742 4.11523 4.76953 4.25195 4.71094C4.39518 4.64583 4.55469 4.60352 4.73047 4.58398C4.90625 4.55794 5.08529 4.54167 5.26758 4.53516C5.6582 4.52214 5.97396 4.41471 6.21484 4.21289C6.46224 4.00456 6.58594 3.68555 6.58594 3.25586C6.58594 3.01497 6.52083 2.81315 6.39062 2.65039C6.26042 2.48112 6.0944 2.3444 5.89258 2.24023C5.69727 2.13607 5.47917 2.0612 5.23828 2.01562C5.00391 1.96354 4.7793 1.9375 4.56445 1.9375C4.12174 1.9375 3.72135 2.01562 3.36328 2.17188C3.00521 2.32161 2.66667 2.51693 2.34766 2.75781C2.13932 2.90755 1.95703 2.98242 1.80078 2.98242C1.6901 2.98242 1.58594 2.95312 1.48828 2.89453C1.39062 2.83594 1.2832 2.73177 1.16602 2.58203C1.01628 2.38021 0.915365 2.22721 0.863281 2.12305C0.811198 2.01237 0.785156 1.91146 0.785156 1.82031C0.785156 1.67708 0.84375 1.53711 0.960938 1.40039C1.08464 1.25716 1.2474 1.1237 1.44922 1C1.65755 0.876302 1.89844 0.76237 2.17188 0.658203C2.44531 0.554036 2.73177 0.466146 3.03125 0.394531C3.33724 0.322917 3.64648 0.267578 3.95898 0.228516C4.27799 0.182943 4.58724 0.160156 4.88672 0.160156C5.4401 0.160156 5.94141 0.228516 6.39062 0.365234C6.84635 0.501953 7.23372 0.69401 7.55273 0.941406C7.87174 1.1888 8.11589 1.48828 8.28516 1.83984C8.46094 2.1849 8.54883 2.56576 8.54883 2.98242C8.54883 3.22331 8.51302 3.46094 8.44141 3.69531C8.3763 3.92969 8.26562 4.15755 8.10938 4.37891C8.01172 4.50911 7.96289 4.61003 7.96289 4.68164C7.96289 4.79232 8.05729 4.89323 8.24609 4.98438C8.60417 5.15365 8.91341 5.35872 9.17383 5.59961C9.43424 5.83398 9.64583 6.09766 9.80859 6.39062C9.97786 6.67708 10.1016 6.98633 10.1797 7.31836C10.2643 7.64388 10.3066 7.97917 10.3066 8.32422C10.3066 8.85156 10.1927 9.32031 9.96484 9.73047C9.73698 10.1341 9.43424 10.4759 9.05664 10.7559C8.67904 11.0293 8.24609 11.2376 7.75781 11.3809C7.27604 11.5241 6.77799 11.5957 6.26367 11.5957C5.80794 11.5957 5.37174 11.5371 4.95508 11.4199C4.54492 11.3092 4.17057 11.1432 3.83203 10.9219C3.5 10.694 3.21354 10.4206 2.97266 10.1016C2.73177 9.77604 2.55599 9.40169 2.44531 8.97852C2.43229 8.93945 2.42253 8.89714 2.41602 8.85156C2.40951 8.80599 2.40625 8.76367 2.40625 8.72461C2.40625 8.54232 2.47135 8.39909 2.60156 8.29492C2.73177 8.19076 2.90104 8.13867 3.10938 8.13867L3.74414 8.19727C3.98503 8.22982 4.16081 8.30794 4.27148 8.43164C4.38216 8.54883 4.48633 8.7181 4.58398 8.93945C4.66211 9.12174 4.77279 9.26823 4.91602 9.37891C5.05924 9.48958 5.21875 9.57422 5.39453 9.63281C5.57682 9.69141 5.76562 9.73047 5.96094 9.75C6.16276 9.76953 6.35807 9.7793 6.54688 9.7793C6.80729 9.7793 7.04818 9.75326 7.26953 9.70117C7.49089 9.64909 7.67969 9.56771 7.83594 9.45703C7.9987 9.34635 8.1224 9.19987 8.20703 9.01758C8.29818 8.83529 8.34375 8.61068 8.34375 8.34375C8.34375 8.03125 8.27865 7.7513 8.14844 7.50391C8.02474 7.25651 7.86198 7.04492 7.66016 6.86914C7.45833 6.69336 7.23047 6.5599 6.97656 6.46875C6.72266 6.37109 6.46549 6.32227 6.20508 6.32227C5.98372 6.32227 5.7526 6.36133 5.51172 6.43945C5.27083 6.51107 5.02995 6.57943 4.78906 6.64453Z" fill="#27AAFF"/>
</svg>
