<svg width="19" height="20" viewBox="0 0 19 20" fill="none" xmlns="http://www.w3.org/2000/svg">
<g filter="url(#filter0_d)">
<path d="M8.78906 6.64453C8.74349 6.65755 8.70117 6.66732 8.66211 6.67383C8.62305 6.68034 8.58398 6.68359 8.54492 6.68359C8.3431 6.68359 8.18685 6.62174 8.07617 6.49805C7.96549 6.37435 7.89388 6.20182 7.86133 5.98047L7.80273 5.58008C7.80273 5.54753 7.79948 5.51823 7.79297 5.49219C7.78646 5.46615 7.7832 5.44336 7.7832 5.42383C7.7832 5.23503 7.82552 5.08529 7.91016 4.97461C8.0013 4.85742 8.11523 4.76953 8.25195 4.71094C8.39518 4.64583 8.55469 4.60352 8.73047 4.58398C8.90625 4.55794 9.08529 4.54167 9.26758 4.53516C9.6582 4.52214 9.97396 4.41471 10.2148 4.21289C10.4622 4.00456 10.5859 3.68555 10.5859 3.25586C10.5859 3.01497 10.5208 2.81315 10.3906 2.65039C10.2604 2.48112 10.0944 2.3444 9.89258 2.24023C9.69727 2.13607 9.47917 2.0612 9.23828 2.01562C9.00391 1.96354 8.7793 1.9375 8.56445 1.9375C8.12174 1.9375 7.72135 2.01562 7.36328 2.17188C7.00521 2.32161 6.66667 2.51693 6.34766 2.75781C6.13932 2.90755 5.95703 2.98242 5.80078 2.98242C5.6901 2.98242 5.58594 2.95312 5.48828 2.89453C5.39062 2.83594 5.2832 2.73177 5.16602 2.58203C5.01628 2.38021 4.91536 2.22721 4.86328 2.12305C4.8112 2.01237 4.78516 1.91146 4.78516 1.82031C4.78516 1.67708 4.84375 1.53711 4.96094 1.40039C5.08464 1.25716 5.2474 1.1237 5.44922 1C5.65755 0.876302 5.89844 0.76237 6.17188 0.658203C6.44531 0.554036 6.73177 0.466146 7.03125 0.394531C7.33724 0.322917 7.64648 0.267578 7.95898 0.228516C8.27799 0.182943 8.58724 0.160156 8.88672 0.160156C9.4401 0.160156 9.94141 0.228516 10.3906 0.365234C10.8464 0.501953 11.2337 0.69401 11.5527 0.941406C11.8717 1.1888 12.1159 1.48828 12.2852 1.83984C12.4609 2.1849 12.5488 2.56576 12.5488 2.98242C12.5488 3.22331 12.513 3.46094 12.4414 3.69531C12.3763 3.92969 12.2656 4.15755 12.1094 4.37891C12.0117 4.50911 11.9629 4.61003 11.9629 4.68164C11.9629 4.79232 12.0573 4.89323 12.2461 4.98438C12.6042 5.15365 12.9134 5.35872 13.1738 5.59961C13.4342 5.83398 13.6458 6.09766 13.8086 6.39062C13.9779 6.67708 14.1016 6.98633 14.1797 7.31836C14.2643 7.64388 14.3066 7.97917 14.3066 8.32422C14.3066 8.85156 14.1927 9.32031 13.9648 9.73047C13.737 10.1341 13.4342 10.4759 13.0566 10.7559C12.679 11.0293 12.2461 11.2376 11.7578 11.3809C11.276 11.5241 10.778 11.5957 10.2637 11.5957C9.80794 11.5957 9.37174 11.5371 8.95508 11.4199C8.54492 11.3092 8.17057 11.1432 7.83203 10.9219C7.5 10.694 7.21354 10.4206 6.97266 10.1016C6.73177 9.77604 6.55599 9.40169 6.44531 8.97852C6.43229 8.93945 6.42253 8.89714 6.41602 8.85156C6.40951 8.80599 6.40625 8.76367 6.40625 8.72461C6.40625 8.54232 6.47135 8.39909 6.60156 8.29492C6.73177 8.19076 6.90104 8.13867 7.10938 8.13867L7.74414 8.19727C7.98503 8.22982 8.16081 8.30794 8.27148 8.43164C8.38216 8.54883 8.48633 8.7181 8.58398 8.93945C8.66211 9.12174 8.77279 9.26823 8.91602 9.37891C9.05924 9.48958 9.21875 9.57422 9.39453 9.63281C9.57682 9.69141 9.76562 9.73047 9.96094 9.75C10.1628 9.76953 10.3581 9.7793 10.5469 9.7793C10.8073 9.7793 11.0482 9.75326 11.2695 9.70117C11.4909 9.64909 11.6797 9.56771 11.8359 9.45703C11.9987 9.34635 12.1224 9.19987 12.207 9.01758C12.2982 8.83529 12.3438 8.61068 12.3438 8.34375C12.3438 8.03125 12.2786 7.7513 12.1484 7.50391C12.0247 7.25651 11.862 7.04492 11.6602 6.86914C11.4583 6.69336 11.2305 6.5599 10.9766 6.46875C10.7227 6.37109 10.4655 6.32227 10.2051 6.32227C9.98372 6.32227 9.7526 6.36133 9.51172 6.43945C9.27083 6.51107 9.02995 6.57943 8.78906 6.64453Z" fill="#F24E1E"/>
</g>
<defs>
<filter id="filter0_d" x="0.785156" y="0.160156" width="17.5215" height="19.4355" filterUnits="userSpaceOnUse" color-interpolation-filters="sRGB">
<feFlood flood-opacity="0" result="BackgroundImageFix"/>
<feColorMatrix in="SourceAlpha" type="matrix" values="0 0 0 0 0 0 0 0 0 0 0 0 0 0 0 0 0 0 127 0"/>
<feOffset dy="4"/>
<feGaussianBlur stdDeviation="2"/>
<feColorMatrix type="matrix" values="0 0 0 0 0 0 0 0 0 0 0 0 0 0 0 0 0 0 0.25 0"/>
<feBlend mode="normal" in2="BackgroundImageFix" result="effect1_dropShadow"/>
<feBlend mode="normal" in="SourceGraphic" in2="effect1_dropShadow" result="shape"/>
</filter>
</defs>
</svg>
