<svg width="10" height="13" viewBox="0 0 10 13" fill="none" xmlns="http://www.w3.org/2000/svg">
<path d="M8.74023 7.54297C8.96159 7.55599 9.13411 7.61458 9.25781 7.71875C9.38151 7.82292 9.44336 7.97591 9.44336 8.17773C9.44336 8.23633 9.43359 8.3112 9.41406 8.40234C9.39453 8.49349 9.37174 8.58464 9.3457 8.67578C9.31966 8.76693 9.29362 8.85156 9.26758 8.92969C9.24154 9.0013 9.21875 9.05013 9.19922 9.07617C9.14714 9.19336 9.07552 9.26497 8.98438 9.29102C8.89974 9.31706 8.8151 9.33984 8.73047 9.35938C8.64583 9.3724 8.57422 9.40169 8.51562 9.44727C8.45703 9.48633 8.42773 9.57747 8.42773 9.7207C8.42773 9.81836 8.44401 9.9388 8.47656 10.082C8.50911 10.2253 8.54492 10.3783 8.58398 10.541C8.62305 10.7038 8.65885 10.8698 8.69141 11.0391C8.72396 11.2083 8.74023 11.3613 8.74023 11.498C8.74023 11.8757 8.54818 12.123 8.16406 12.2402C8.02734 12.2858 7.91341 12.3216 7.82227 12.3477C7.73112 12.3737 7.65299 12.3932 7.58789 12.4062C7.52279 12.4193 7.46745 12.4258 7.42188 12.4258C7.3763 12.4323 7.33073 12.4355 7.28516 12.4355C7.18099 12.4355 7.08984 12.3932 7.01172 12.3086C6.93359 12.224 6.86523 12.1068 6.80664 11.957C6.74805 11.8073 6.69271 11.625 6.64062 11.4102C6.59505 11.1953 6.54948 10.9577 6.50391 10.6973C6.44531 10.4043 6.39323 10.1634 6.34766 9.97461C6.30859 9.78581 6.25977 9.63932 6.20117 9.53516C6.14909 9.42448 6.08724 9.34961 6.01562 9.31055C5.95052 9.26497 5.86589 9.23568 5.76172 9.22266L3.90625 9.07617C3.71745 9.06315 3.5026 9.04688 3.26172 9.02734C3.02734 9.0013 2.7832 8.96875 2.5293 8.92969C2.2819 8.88411 2.03776 8.82552 1.79688 8.75391C1.5625 8.67578 1.35091 8.57812 1.16211 8.46094C0.979818 8.34375 0.830078 8.20378 0.712891 8.04102C0.602214 7.87174 0.546875 7.66992 0.546875 7.43555C0.546875 7.26628 0.572917 7.10352 0.625 6.94727C0.677083 6.78451 0.742188 6.62826 0.820312 6.47852C0.898438 6.32227 0.983073 6.16927 1.07422 6.01953C1.17188 5.86979 1.26302 5.72331 1.34766 5.58008C1.6862 5.00716 2.06055 4.45703 2.4707 3.92969C2.88737 3.39583 3.29102 2.85872 3.68164 2.31836C3.8444 2.11003 3.92578 1.88542 3.92578 1.64453C3.92578 1.54036 3.90951 1.43294 3.87695 1.32227C3.8444 1.20508 3.82812 1.09766 3.82812 1C3.82812 0.863281 3.86393 0.755859 3.93555 0.677734C4.01367 0.599609 4.10807 0.541016 4.21875 0.501953C4.33594 0.462891 4.46289 0.436849 4.59961 0.423828C4.73633 0.410807 4.86979 0.404297 5 0.404297C5.33854 0.404297 5.58594 0.472656 5.74219 0.609375C5.90495 0.739583 6.01562 0.892578 6.07422 1.06836C6.13932 1.24414 6.17188 1.41992 6.17188 1.5957C6.17839 1.76497 6.19466 1.89193 6.2207 1.97656C6.47461 2.84245 6.73177 3.69857 6.99219 4.54492C7.2526 5.38477 7.49674 6.23763 7.72461 7.10352C7.76367 7.25326 7.82878 7.35742 7.91992 7.41602C8.01107 7.47461 8.13151 7.51042 8.28125 7.52344L8.74023 7.54297ZM4.70703 7.31836C4.77865 7.33138 4.85677 7.34115 4.94141 7.34766C5.02604 7.35417 5.10091 7.35742 5.16602 7.35742C5.2832 7.35742 5.37435 7.33138 5.43945 7.2793C5.51107 7.2207 5.54688 7.13932 5.54688 7.03516C5.54688 7.0026 5.54362 6.97005 5.53711 6.9375C5.5306 6.89844 5.52083 6.85938 5.50781 6.82031C5.46224 6.67708 5.41667 6.5306 5.37109 6.38086C5.33203 6.22461 5.28646 6.06185 5.23438 5.89258C5.1888 5.72331 5.13346 5.54427 5.06836 5.35547C5.00977 5.16016 4.9349 4.94857 4.84375 4.7207C4.82422 4.66211 4.78516 4.59049 4.72656 4.50586C4.66797 4.42122 4.58659 4.37891 4.48242 4.37891C4.36523 4.37891 4.2513 4.45378 4.14062 4.60352C3.91276 4.92253 3.69141 5.23503 3.47656 5.54102C3.26823 5.84701 3.06966 6.15951 2.88086 6.47852C2.81576 6.60872 2.7832 6.71615 2.7832 6.80078C2.7832 6.89193 2.8125 6.9668 2.87109 7.02539C2.9362 7.08398 3.02083 7.12305 3.125 7.14258L4.70703 7.31836Z" fill="#27AAFF"/>
</svg>
