<svg width="18" height="21" viewBox="0 0 18 21" fill="none" xmlns="http://www.w3.org/2000/svg">
<g filter="url(#filter0_d)">
<path d="M12.7402 7.54297C12.9616 7.55599 13.1341 7.61458 13.2578 7.71875C13.3815 7.82292 13.4434 7.97591 13.4434 8.17773C13.4434 8.23633 13.4336 8.3112 13.4141 8.40234C13.3945 8.49349 13.3717 8.58464 13.3457 8.67578C13.3197 8.76693 13.2936 8.85156 13.2676 8.92969C13.2415 9.0013 13.2188 9.05013 13.1992 9.07617C13.1471 9.19336 13.0755 9.26497 12.9844 9.29102C12.8997 9.31706 12.8151 9.33984 12.7305 9.35938C12.6458 9.3724 12.5742 9.40169 12.5156 9.44727C12.457 9.48633 12.4277 9.57747 12.4277 9.7207C12.4277 9.81836 12.444 9.9388 12.4766 10.082C12.5091 10.2253 12.5449 10.3783 12.584 10.541C12.623 10.7038 12.6589 10.8698 12.6914 11.0391C12.724 11.2083 12.7402 11.3613 12.7402 11.498C12.7402 11.8757 12.5482 12.123 12.1641 12.2402C12.0273 12.2858 11.9134 12.3216 11.8223 12.3477C11.7311 12.3737 11.653 12.3932 11.5879 12.4062C11.5228 12.4193 11.4674 12.4258 11.4219 12.4258C11.3763 12.4323 11.3307 12.4355 11.2852 12.4355C11.181 12.4355 11.0898 12.3932 11.0117 12.3086C10.9336 12.224 10.8652 12.1068 10.8066 11.957C10.748 11.8073 10.6927 11.625 10.6406 11.4102C10.5951 11.1953 10.5495 10.9577 10.5039 10.6973C10.4453 10.4043 10.3932 10.1634 10.3477 9.97461C10.3086 9.78581 10.2598 9.63932 10.2012 9.53516C10.1491 9.42448 10.0872 9.34961 10.0156 9.31055C9.95052 9.26497 9.86589 9.23568 9.76172 9.22266L7.90625 9.07617C7.71745 9.06315 7.5026 9.04688 7.26172 9.02734C7.02734 9.0013 6.7832 8.96875 6.5293 8.92969C6.2819 8.88411 6.03776 8.82552 5.79688 8.75391C5.5625 8.67578 5.35091 8.57812 5.16211 8.46094C4.97982 8.34375 4.83008 8.20378 4.71289 8.04102C4.60221 7.87174 4.54688 7.66992 4.54688 7.43555C4.54688 7.26628 4.57292 7.10352 4.625 6.94727C4.67708 6.78451 4.74219 6.62826 4.82031 6.47852C4.89844 6.32227 4.98307 6.16927 5.07422 6.01953C5.17188 5.86979 5.26302 5.72331 5.34766 5.58008C5.6862 5.00716 6.06055 4.45703 6.4707 3.92969C6.88737 3.39583 7.29102 2.85872 7.68164 2.31836C7.8444 2.11003 7.92578 1.88542 7.92578 1.64453C7.92578 1.54036 7.90951 1.43294 7.87695 1.32227C7.8444 1.20508 7.82812 1.09766 7.82812 1C7.82812 0.863281 7.86393 0.755859 7.93555 0.677734C8.01367 0.599609 8.10807 0.541016 8.21875 0.501953C8.33594 0.462891 8.46289 0.436849 8.59961 0.423828C8.73633 0.410807 8.86979 0.404297 9 0.404297C9.33854 0.404297 9.58594 0.472656 9.74219 0.609375C9.90495 0.739583 10.0156 0.892578 10.0742 1.06836C10.1393 1.24414 10.1719 1.41992 10.1719 1.5957C10.1784 1.76497 10.1947 1.89193 10.2207 1.97656C10.4746 2.84245 10.7318 3.69857 10.9922 4.54492C11.2526 5.38477 11.4967 6.23763 11.7246 7.10352C11.7637 7.25326 11.8288 7.35742 11.9199 7.41602C12.0111 7.47461 12.1315 7.51042 12.2812 7.52344L12.7402 7.54297ZM8.70703 7.31836C8.77865 7.33138 8.85677 7.34115 8.94141 7.34766C9.02604 7.35417 9.10091 7.35742 9.16602 7.35742C9.2832 7.35742 9.37435 7.33138 9.43945 7.2793C9.51107 7.2207 9.54688 7.13932 9.54688 7.03516C9.54688 7.0026 9.54362 6.97005 9.53711 6.9375C9.5306 6.89844 9.52083 6.85938 9.50781 6.82031C9.46224 6.67708 9.41667 6.5306 9.37109 6.38086C9.33203 6.22461 9.28646 6.06185 9.23438 5.89258C9.1888 5.72331 9.13346 5.54427 9.06836 5.35547C9.00977 5.16016 8.9349 4.94857 8.84375 4.7207C8.82422 4.66211 8.78516 4.59049 8.72656 4.50586C8.66797 4.42122 8.58659 4.37891 8.48242 4.37891C8.36523 4.37891 8.2513 4.45378 8.14062 4.60352C7.91276 4.92253 7.69141 5.23503 7.47656 5.54102C7.26823 5.84701 7.06966 6.15951 6.88086 6.47852C6.81576 6.60872 6.7832 6.71615 6.7832 6.80078C6.7832 6.89193 6.8125 6.9668 6.87109 7.02539C6.9362 7.08398 7.02083 7.12305 7.125 7.14258L8.70703 7.31836Z" fill="#F24E1E"/>
</g>
<defs>
<filter id="filter0_d" x="0.546875" y="0.404297" width="16.8965" height="20.0312" filterUnits="userSpaceOnUse" color-interpolation-filters="sRGB">
<feFlood flood-opacity="0" result="BackgroundImageFix"/>
<feColorMatrix in="SourceAlpha" type="matrix" values="0 0 0 0 0 0 0 0 0 0 0 0 0 0 0 0 0 0 127 0"/>
<feOffset dy="4"/>
<feGaussianBlur stdDeviation="2"/>
<feColorMatrix type="matrix" values="0 0 0 0 0 0 0 0 0 0 0 0 0 0 0 0 0 0 0.25 0"/>
<feBlend mode="normal" in2="BackgroundImageFix" result="effect1_dropShadow"/>
<feBlend mode="normal" in="SourceGraphic" in2="effect1_dropShadow" result="shape"/>
</filter>
</defs>
</svg>
