<svg width="10" height="12" viewBox="0 0 10 12" fill="none" xmlns="http://www.w3.org/2000/svg">
<path d="M8.37891 0.941406C8.60677 0.960938 8.79232 1.0293 8.93555 1.14648C9.07878 1.25716 9.17969 1.42969 9.23828 1.66406L9.29688 1.89844C9.3099 1.95052 9.31966 2.0026 9.32617 2.05469C9.33268 2.10026 9.33594 2.14909 9.33594 2.20117C9.33594 2.36393 9.28385 2.49414 9.17969 2.5918C9.08203 2.68945 8.94206 2.74479 8.75977 2.75781C8.23242 2.73828 7.75716 2.72201 7.33398 2.70898C6.91081 2.68945 6.4974 2.67969 6.09375 2.67969C5.60547 2.67969 5.12695 2.68945 4.6582 2.70898C4.18945 2.72852 3.72721 2.76432 3.27148 2.81641C3.03711 2.83594 2.91992 2.93685 2.91992 3.11914C2.91992 3.24284 3.02409 3.34375 3.23242 3.42188C3.69466 3.59115 4.17318 3.76693 4.66797 3.94922C5.16927 4.13151 5.66081 4.33008 6.14258 4.54492C6.62435 4.75977 7.08333 4.99414 7.51953 5.24805C7.95573 5.49544 8.33659 5.77214 8.66211 6.07812C8.99414 6.38411 9.25456 6.72266 9.44336 7.09375C9.63867 7.46484 9.73633 7.875 9.73633 8.32422C9.73633 8.82552 9.63216 9.28125 9.42383 9.69141C9.21549 10.1016 8.91927 10.4564 8.53516 10.7559C8.15755 11.0488 7.69531 11.2767 7.14844 11.4395C6.60807 11.6022 6.0026 11.6836 5.33203 11.6836C4.74609 11.6836 4.16341 11.6152 3.58398 11.4785C3.00456 11.3418 2.48372 11.1367 2.02148 10.8633C1.55924 10.5833 1.18164 10.2318 0.888672 9.80859C0.602214 9.38542 0.458984 8.89062 0.458984 8.32422C0.458984 8.07682 0.481771 7.85872 0.527344 7.66992C0.572917 7.47461 0.641276 7.28581 0.732422 7.10352C0.823568 6.89518 0.940755 6.7487 1.08398 6.66406C1.23372 6.57943 1.39648 6.53711 1.57227 6.53711L2.06055 6.55664C2.52279 6.57617 2.75391 6.73568 2.75391 7.03516C2.75391 7.06771 2.75065 7.10352 2.74414 7.14258C2.73763 7.18164 2.72786 7.2207 2.71484 7.25977C2.63672 7.50716 2.59766 7.73503 2.59766 7.94336C2.59766 8.29492 2.6888 8.59766 2.87109 8.85156C3.0599 9.09896 3.30078 9.30404 3.59375 9.4668C3.88672 9.62305 4.21549 9.73698 4.58008 9.80859C4.94466 9.88021 5.30273 9.91602 5.6543 9.91602C6.33789 9.91602 6.86198 9.80859 7.22656 9.59375C7.59115 9.3724 7.77344 9.06641 7.77344 8.67578C7.77344 8.29818 7.63672 7.95964 7.36328 7.66016C7.08984 7.36068 6.69596 7.06771 6.18164 6.78125C5.66732 6.49479 5.03906 6.20182 4.29688 5.90234C3.55469 5.60286 2.71484 5.26107 1.77734 4.87695C1.08073 4.58398 0.732422 4.11198 0.732422 3.46094C0.732422 3.41536 0.735677 3.34375 0.742188 3.24609C0.748698 3.14844 0.77474 2.96615 0.820312 2.69922C0.878906 2.28906 1.01888 1.97005 1.24023 1.74219C1.4681 1.50781 1.78711 1.35482 2.19727 1.2832C3.10221 1.13346 3.92904 1.0293 4.67773 0.970703C5.43294 0.912109 6.13281 0.882812 6.77734 0.882812C7.34375 0.882812 7.8776 0.902344 8.37891 0.941406Z" fill="#27AAFF"/>
</svg>
