<svg width="18" height="20" viewBox="0 0 18 20" fill="none" xmlns="http://www.w3.org/2000/svg">
<g filter="url(#filter0_d)">
<path d="M12.3789 0.941406C12.6068 0.960938 12.7923 1.0293 12.9355 1.14648C13.0788 1.25716 13.1797 1.42969 13.2383 1.66406L13.2969 1.89844C13.3099 1.95052 13.3197 2.0026 13.3262 2.05469C13.3327 2.10026 13.3359 2.14909 13.3359 2.20117C13.3359 2.36393 13.2839 2.49414 13.1797 2.5918C13.082 2.68945 12.9421 2.74479 12.7598 2.75781C12.2324 2.73828 11.7572 2.72201 11.334 2.70898C10.9108 2.68945 10.4974 2.67969 10.0938 2.67969C9.60547 2.67969 9.12695 2.68945 8.6582 2.70898C8.18945 2.72852 7.72721 2.76432 7.27148 2.81641C7.03711 2.83594 6.91992 2.93685 6.91992 3.11914C6.91992 3.24284 7.02409 3.34375 7.23242 3.42188C7.69466 3.59115 8.17318 3.76693 8.66797 3.94922C9.16927 4.13151 9.66081 4.33008 10.1426 4.54492C10.6243 4.75977 11.0833 4.99414 11.5195 5.24805C11.9557 5.49544 12.3366 5.77214 12.6621 6.07812C12.9941 6.38411 13.2546 6.72266 13.4434 7.09375C13.6387 7.46484 13.7363 7.875 13.7363 8.32422C13.7363 8.82552 13.6322 9.28125 13.4238 9.69141C13.2155 10.1016 12.9193 10.4564 12.5352 10.7559C12.1576 11.0488 11.6953 11.2767 11.1484 11.4395C10.6081 11.6022 10.0026 11.6836 9.33203 11.6836C8.74609 11.6836 8.16341 11.6152 7.58398 11.4785C7.00456 11.3418 6.48372 11.1367 6.02148 10.8633C5.55924 10.5833 5.18164 10.2318 4.88867 9.80859C4.60221 9.38542 4.45898 8.89062 4.45898 8.32422C4.45898 8.07682 4.48177 7.85872 4.52734 7.66992C4.57292 7.47461 4.64128 7.28581 4.73242 7.10352C4.82357 6.89518 4.94076 6.7487 5.08398 6.66406C5.23372 6.57943 5.39648 6.53711 5.57227 6.53711L6.06055 6.55664C6.52279 6.57617 6.75391 6.73568 6.75391 7.03516C6.75391 7.06771 6.75065 7.10352 6.74414 7.14258C6.73763 7.18164 6.72786 7.2207 6.71484 7.25977C6.63672 7.50716 6.59766 7.73503 6.59766 7.94336C6.59766 8.29492 6.6888 8.59766 6.87109 8.85156C7.0599 9.09896 7.30078 9.30404 7.59375 9.4668C7.88672 9.62305 8.21549 9.73698 8.58008 9.80859C8.94466 9.88021 9.30273 9.91602 9.6543 9.91602C10.3379 9.91602 10.862 9.80859 11.2266 9.59375C11.5911 9.3724 11.7734 9.06641 11.7734 8.67578C11.7734 8.29818 11.6367 7.95964 11.3633 7.66016C11.0898 7.36068 10.696 7.06771 10.1816 6.78125C9.66732 6.49479 9.03906 6.20182 8.29688 5.90234C7.55469 5.60286 6.71484 5.26107 5.77734 4.87695C5.08073 4.58398 4.73242 4.11198 4.73242 3.46094C4.73242 3.41536 4.73568 3.34375 4.74219 3.24609C4.7487 3.14844 4.77474 2.96615 4.82031 2.69922C4.87891 2.28906 5.01888 1.97005 5.24023 1.74219C5.4681 1.50781 5.78711 1.35482 6.19727 1.2832C7.10221 1.13346 7.92904 1.0293 8.67773 0.970703C9.43294 0.912109 10.1328 0.882812 10.7773 0.882812C11.3438 0.882812 11.8776 0.902344 12.3789 0.941406Z" fill="#F24E1E"/>
</g>
<defs>
<filter id="filter0_d" x="0.458984" y="0.882812" width="17.2773" height="18.8008" filterUnits="userSpaceOnUse" color-interpolation-filters="sRGB">
<feFlood flood-opacity="0" result="BackgroundImageFix"/>
<feColorMatrix in="SourceAlpha" type="matrix" values="0 0 0 0 0 0 0 0 0 0 0 0 0 0 0 0 0 0 127 0"/>
<feOffset dy="4"/>
<feGaussianBlur stdDeviation="2"/>
<feColorMatrix type="matrix" values="0 0 0 0 0 0 0 0 0 0 0 0 0 0 0 0 0 0 0.25 0"/>
<feBlend mode="normal" in2="BackgroundImageFix" result="effect1_dropShadow"/>
<feBlend mode="normal" in="SourceGraphic" in2="effect1_dropShadow" result="shape"/>
</filter>
</defs>
</svg>
