<svg width="11" height="11" viewBox="0 0 11 11" fill="none" xmlns="http://www.w3.org/2000/svg">
<path d="M7.31445 1.2793C7.49674 1.44206 7.58789 1.61458 7.58789 1.79688C7.58789 2.00521 7.48372 2.20703 7.27539 2.40234L7.03125 2.61719C6.9401 2.70182 6.8457 2.76367 6.74805 2.80273C6.65039 2.8418 6.55273 2.86133 6.45508 2.86133C6.2793 2.86133 6.09049 2.79948 5.88867 2.67578C5.68034 2.55859 5.48177 2.4707 5.29297 2.41211C5.11068 2.35352 4.93164 2.32422 4.75586 2.32422C4.44987 2.32422 4.16341 2.40234 3.89648 2.55859C3.63607 2.71484 3.4082 2.92318 3.21289 3.18359C3.01758 3.44401 2.86458 3.74349 2.75391 4.08203C2.64323 4.41406 2.58789 4.75911 2.58789 5.11719C2.58789 5.27995 2.60091 5.45247 2.62695 5.63477C2.65951 5.81706 2.70182 5.99284 2.75391 6.16211C2.78646 6.24023 2.82878 6.29883 2.88086 6.33789C2.93294 6.37695 2.98828 6.39648 3.04688 6.39648C3.13151 6.39648 3.21289 6.37695 3.29102 6.33789C3.86393 6.03841 4.4694 5.79753 5.10742 5.61523C5.75195 5.43294 6.41927 5.3418 7.10938 5.3418C7.48698 5.3418 7.85156 5.39062 8.20312 5.48828C8.5612 5.58594 8.87695 5.73242 9.15039 5.92773C9.42383 6.11654 9.64193 6.35417 9.80469 6.64062C9.96745 6.92708 10.0488 7.25911 10.0488 7.63672C10.0488 8.07292 9.95117 8.46354 9.75586 8.80859C9.56706 9.15365 9.3099 9.44661 8.98438 9.6875C8.65885 9.92188 8.28125 10.1009 7.85156 10.2246C7.42839 10.3548 6.98242 10.4199 6.51367 10.4199C5.63477 10.4199 4.83398 10.2897 4.11133 10.0293C3.39518 9.77539 2.77995 9.42383 2.26562 8.97461C1.75781 8.52539 1.36068 8.0013 1.07422 7.40234C0.794271 6.79688 0.654297 6.14909 0.654297 5.45898C0.654297 4.84049 0.758464 4.23503 0.966797 3.64258C1.18164 3.05013 1.48763 2.52279 1.88477 2.06055C2.2819 1.59831 2.76367 1.22721 3.33008 0.947266C3.89648 0.660807 4.53125 0.517578 5.23438 0.517578C5.65755 0.517578 6.03841 0.585938 6.37695 0.722656C6.71549 0.852865 7.02799 1.03841 7.31445 1.2793ZM8.04688 7.88086C8.04688 7.72461 7.99805 7.59766 7.90039 7.5C7.80273 7.39583 7.67904 7.31445 7.5293 7.25586C7.38607 7.19727 7.22982 7.1582 7.06055 7.13867C6.89128 7.11263 6.73503 7.09961 6.5918 7.09961C6.26628 7.09961 5.92773 7.13867 5.57617 7.2168C5.23112 7.28841 4.88281 7.39583 4.53125 7.53906C4.45312 7.57161 4.38802 7.61393 4.33594 7.66602C4.29036 7.7181 4.26758 7.77018 4.26758 7.82227C4.26758 7.93945 4.34896 8.03711 4.51172 8.11523C4.91536 8.31706 5.27995 8.45052 5.60547 8.51562C5.93099 8.57422 6.26628 8.60352 6.61133 8.60352C7.08008 8.60352 7.4349 8.53516 7.67578 8.39844C7.92318 8.26172 8.04688 8.08919 8.04688 7.88086Z" fill="#27AAFF"/>
</svg>
