<svg width="19" height="19" viewBox="0 0 19 19" fill="none" xmlns="http://www.w3.org/2000/svg">
<g filter="url(#filter0_d)">
<path d="M11.3145 1.2793C11.4967 1.44206 11.5879 1.61458 11.5879 1.79688C11.5879 2.00521 11.4837 2.20703 11.2754 2.40234L11.0312 2.61719C10.9401 2.70182 10.8457 2.76367 10.748 2.80273C10.6504 2.8418 10.5527 2.86133 10.4551 2.86133C10.2793 2.86133 10.0905 2.79948 9.88867 2.67578C9.68034 2.55859 9.48177 2.4707 9.29297 2.41211C9.11068 2.35352 8.93164 2.32422 8.75586 2.32422C8.44987 2.32422 8.16341 2.40234 7.89648 2.55859C7.63607 2.71484 7.4082 2.92318 7.21289 3.18359C7.01758 3.44401 6.86458 3.74349 6.75391 4.08203C6.64323 4.41406 6.58789 4.75911 6.58789 5.11719C6.58789 5.27995 6.60091 5.45247 6.62695 5.63477C6.65951 5.81706 6.70182 5.99284 6.75391 6.16211C6.78646 6.24023 6.82878 6.29883 6.88086 6.33789C6.93294 6.37695 6.98828 6.39648 7.04688 6.39648C7.13151 6.39648 7.21289 6.37695 7.29102 6.33789C7.86393 6.03841 8.4694 5.79753 9.10742 5.61523C9.75195 5.43294 10.4193 5.3418 11.1094 5.3418C11.487 5.3418 11.8516 5.39062 12.2031 5.48828C12.5612 5.58594 12.877 5.73242 13.1504 5.92773C13.4238 6.11654 13.6419 6.35417 13.8047 6.64062C13.9674 6.92708 14.0488 7.25911 14.0488 7.63672C14.0488 8.07292 13.9512 8.46354 13.7559 8.80859C13.5671 9.15365 13.3099 9.44661 12.9844 9.6875C12.6589 9.92188 12.2812 10.1009 11.8516 10.2246C11.4284 10.3548 10.9824 10.4199 10.5137 10.4199C9.63477 10.4199 8.83398 10.2897 8.11133 10.0293C7.39518 9.77539 6.77995 9.42383 6.26562 8.97461C5.75781 8.52539 5.36068 8.0013 5.07422 7.40234C4.79427 6.79688 4.6543 6.14909 4.6543 5.45898C4.6543 4.84049 4.75846 4.23503 4.9668 3.64258C5.18164 3.05013 5.48763 2.52279 5.88477 2.06055C6.2819 1.59831 6.76367 1.22721 7.33008 0.947266C7.89648 0.660807 8.53125 0.517578 9.23438 0.517578C9.65755 0.517578 10.0384 0.585938 10.377 0.722656C10.7155 0.852865 11.028 1.03841 11.3145 1.2793ZM12.0469 7.88086C12.0469 7.72461 11.998 7.59766 11.9004 7.5C11.8027 7.39583 11.679 7.31445 11.5293 7.25586C11.3861 7.19727 11.2298 7.1582 11.0605 7.13867C10.8913 7.11263 10.735 7.09961 10.5918 7.09961C10.2663 7.09961 9.92773 7.13867 9.57617 7.2168C9.23112 7.28841 8.88281 7.39583 8.53125 7.53906C8.45312 7.57161 8.38802 7.61393 8.33594 7.66602C8.29036 7.7181 8.26758 7.77018 8.26758 7.82227C8.26758 7.93945 8.34896 8.03711 8.51172 8.11523C8.91536 8.31706 9.27995 8.45052 9.60547 8.51562C9.93099 8.57422 10.2663 8.60352 10.6113 8.60352C11.0801 8.60352 11.4349 8.53516 11.6758 8.39844C11.9232 8.26172 12.0469 8.08919 12.0469 7.88086Z" fill="#F24E1E"/>
</g>
<defs>
<filter id="filter0_d" x="0.654297" y="0.517578" width="17.3945" height="17.9023" filterUnits="userSpaceOnUse" color-interpolation-filters="sRGB">
<feFlood flood-opacity="0" result="BackgroundImageFix"/>
<feColorMatrix in="SourceAlpha" type="matrix" values="0 0 0 0 0 0 0 0 0 0 0 0 0 0 0 0 0 0 127 0"/>
<feOffset dy="4"/>
<feGaussianBlur stdDeviation="2"/>
<feColorMatrix type="matrix" values="0 0 0 0 0 0 0 0 0 0 0 0 0 0 0 0 0 0 0.25 0"/>
<feBlend mode="normal" in2="BackgroundImageFix" result="effect1_dropShadow"/>
<feBlend mode="normal" in="SourceGraphic" in2="effect1_dropShadow" result="shape"/>
</filter>
</defs>
</svg>
