<svg width="12" height="11" viewBox="0 0 12 11" fill="none" xmlns="http://www.w3.org/2000/svg">
<path d="M2.5332 6.12305C2.31185 6.12305 2.13932 6.06771 2.01562 5.95703C1.89193 5.83984 1.83008 5.66732 1.83008 5.43945C1.83008 5.30273 1.83984 5.17253 1.85938 5.04883C1.88542 4.91862 1.92773 4.80469 1.98633 4.70703C2.04492 4.60286 2.12305 4.51823 2.2207 4.45312C2.32487 4.38802 2.45508 4.34896 2.61133 4.33594C3.13867 4.29688 3.67253 4.26758 4.21289 4.24805C4.75326 4.22852 5.28711 4.21875 5.81445 4.21875C6.14648 4.21875 6.3125 4.05273 6.3125 3.7207C6.3125 3.61003 6.30924 3.49935 6.30273 3.38867C6.29622 3.27148 6.28646 3.16081 6.27344 3.05664C6.24089 2.85482 6.17578 2.6888 6.07812 2.55859C5.98698 2.42839 5.84701 2.32747 5.6582 2.25586C5.45638 2.18424 5.20898 2.11914 4.91602 2.06055C4.62956 2.00195 4.31706 1.95312 3.97852 1.91406C3.64648 1.875 3.30143 1.8457 2.94336 1.82617C2.5918 1.80664 2.25 1.79688 1.91797 1.79688C1.77474 1.79688 1.63477 1.80013 1.49805 1.80664C1.36133 1.81315 1.22786 1.81641 1.09766 1.81641C0.589844 1.81641 0.335938 1.58529 0.335938 1.12305L0.355469 0.839844C0.36849 0.592448 0.443359 0.400391 0.580078 0.263672C0.716797 0.126953 0.908854 0.0585938 1.15625 0.0585938C1.33854 0.0585938 1.51758 0.0553385 1.69336 0.0488281C1.87565 0.0423177 2.05469 0.0390625 2.23047 0.0390625C2.4974 0.0390625 2.75456 0.0423177 3.00195 0.0488281C3.25586 0.0553385 3.50651 0.0651042 3.75391 0.078125C4.07943 0.0976562 4.42122 0.123698 4.7793 0.15625C5.14388 0.188802 5.50521 0.244141 5.86328 0.322266C6.22135 0.400391 6.56315 0.511068 6.88867 0.654297C7.21419 0.791016 7.50391 0.973307 7.75781 1.20117C7.88151 1.31836 7.97917 1.46484 8.05078 1.64062C8.1224 1.8099 8.17448 2.00521 8.20703 2.22656C8.23958 2.44792 8.25911 2.69206 8.26562 2.95898C8.27865 3.22591 8.28841 3.51237 8.29492 3.81836C8.29492 4.12435 8.46094 4.29688 8.79297 4.33594C9.15755 4.36849 9.52214 4.4043 9.88672 4.44336C10.2513 4.48242 10.6126 4.52799 10.9707 4.58008C11.1725 4.61263 11.3288 4.68099 11.4395 4.78516C11.5566 4.88932 11.6152 5.01953 11.6152 5.17578C11.6152 5.24089 11.6022 5.31901 11.5762 5.41016C11.5501 5.49479 11.4948 5.63151 11.4102 5.82031C11.2604 6.19141 10.9967 6.37695 10.6191 6.37695C10.528 6.37695 10.3978 6.36719 10.2285 6.34766C10.0592 6.32812 9.88021 6.30534 9.69141 6.2793C9.50911 6.25326 9.33659 6.23047 9.17383 6.21094C9.01107 6.19141 8.89062 6.18164 8.8125 6.18164C8.64323 6.18164 8.51628 6.2207 8.43164 6.29883C8.35352 6.37044 8.30794 6.49089 8.29492 6.66016C8.2819 7.14844 8.26562 7.63997 8.24609 8.13477C8.23307 8.62305 8.2168 9.11133 8.19727 9.59961C8.17773 10.0684 7.93034 10.3548 7.45508 10.459C7.33138 10.485 7.23047 10.5046 7.15234 10.5176C7.08073 10.5306 7.02214 10.5404 6.97656 10.5469C6.9375 10.5534 6.9082 10.5566 6.88867 10.5566C6.86914 10.5566 6.84961 10.5566 6.83008 10.5566C6.42643 10.5566 6.21484 10.332 6.19531 9.88281L6.3125 6.52344C6.29948 6.36068 6.25391 6.23372 6.17578 6.14258C6.09766 6.04492 5.97721 5.99609 5.81445 5.99609C5.4694 5.99609 5.12435 6.0026 4.7793 6.01562C4.43424 6.02865 4.11198 6.04492 3.8125 6.06445C3.51302 6.07747 3.24935 6.09049 3.02148 6.10352C2.80013 6.11654 2.63737 6.12305 2.5332 6.12305Z" fill="#27AAFF"/>
</svg>
