<svg width="20" height="19" viewBox="0 0 20 19" fill="none" xmlns="http://www.w3.org/2000/svg">
<g filter="url(#filter0_d)">
<path d="M6.5332 6.12305C6.31185 6.12305 6.13932 6.06771 6.01562 5.95703C5.89193 5.83984 5.83008 5.66732 5.83008 5.43945C5.83008 5.30273 5.83984 5.17253 5.85938 5.04883C5.88542 4.91862 5.92773 4.80469 5.98633 4.70703C6.04492 4.60286 6.12305 4.51823 6.2207 4.45312C6.32487 4.38802 6.45508 4.34896 6.61133 4.33594C7.13867 4.29688 7.67253 4.26758 8.21289 4.24805C8.75326 4.22852 9.28711 4.21875 9.81445 4.21875C10.1465 4.21875 10.3125 4.05273 10.3125 3.7207C10.3125 3.61003 10.3092 3.49935 10.3027 3.38867C10.2962 3.27148 10.2865 3.16081 10.2734 3.05664C10.2409 2.85482 10.1758 2.6888 10.0781 2.55859C9.98698 2.42839 9.84701 2.32747 9.6582 2.25586C9.45638 2.18424 9.20898 2.11914 8.91602 2.06055C8.62956 2.00195 8.31706 1.95312 7.97852 1.91406C7.64648 1.875 7.30143 1.8457 6.94336 1.82617C6.5918 1.80664 6.25 1.79688 5.91797 1.79688C5.77474 1.79688 5.63477 1.80013 5.49805 1.80664C5.36133 1.81315 5.22786 1.81641 5.09766 1.81641C4.58984 1.81641 4.33594 1.58529 4.33594 1.12305L4.35547 0.839844C4.36849 0.592448 4.44336 0.400391 4.58008 0.263672C4.7168 0.126953 4.90885 0.0585938 5.15625 0.0585938C5.33854 0.0585938 5.51758 0.0553385 5.69336 0.0488281C5.87565 0.0423177 6.05469 0.0390625 6.23047 0.0390625C6.4974 0.0390625 6.75456 0.0423177 7.00195 0.0488281C7.25586 0.0553385 7.50651 0.0651042 7.75391 0.078125C8.07943 0.0976562 8.42122 0.123698 8.7793 0.15625C9.14388 0.188802 9.50521 0.244141 9.86328 0.322266C10.2214 0.400391 10.5632 0.511068 10.8887 0.654297C11.2142 0.791016 11.5039 0.973307 11.7578 1.20117C11.8815 1.31836 11.9792 1.46484 12.0508 1.64062C12.1224 1.8099 12.1745 2.00521 12.207 2.22656C12.2396 2.44792 12.2591 2.69206 12.2656 2.95898C12.2786 3.22591 12.2884 3.51237 12.2949 3.81836C12.2949 4.12435 12.4609 4.29688 12.793 4.33594C13.1576 4.36849 13.5221 4.4043 13.8867 4.44336C14.2513 4.48242 14.6126 4.52799 14.9707 4.58008C15.1725 4.61263 15.3288 4.68099 15.4395 4.78516C15.5566 4.88932 15.6152 5.01953 15.6152 5.17578C15.6152 5.24089 15.6022 5.31901 15.5762 5.41016C15.5501 5.49479 15.4948 5.63151 15.4102 5.82031C15.2604 6.19141 14.9967 6.37695 14.6191 6.37695C14.528 6.37695 14.3978 6.36719 14.2285 6.34766C14.0592 6.32812 13.8802 6.30534 13.6914 6.2793C13.5091 6.25326 13.3366 6.23047 13.1738 6.21094C13.0111 6.19141 12.8906 6.18164 12.8125 6.18164C12.6432 6.18164 12.5163 6.2207 12.4316 6.29883C12.3535 6.37044 12.3079 6.49089 12.2949 6.66016C12.2819 7.14844 12.2656 7.63997 12.2461 8.13477C12.2331 8.62305 12.2168 9.11133 12.1973 9.59961C12.1777 10.0684 11.9303 10.3548 11.4551 10.459C11.3314 10.485 11.2305 10.5046 11.1523 10.5176C11.0807 10.5306 11.0221 10.5404 10.9766 10.5469C10.9375 10.5534 10.9082 10.5566 10.8887 10.5566C10.8691 10.5566 10.8496 10.5566 10.8301 10.5566C10.4264 10.5566 10.2148 10.332 10.1953 9.88281L10.3125 6.52344C10.2995 6.36068 10.2539 6.23372 10.1758 6.14258C10.0977 6.04492 9.97721 5.99609 9.81445 5.99609C9.4694 5.99609 9.12435 6.0026 8.7793 6.01562C8.43424 6.02865 8.11198 6.04492 7.8125 6.06445C7.51302 6.07747 7.24935 6.09049 7.02148 6.10352C6.80013 6.11654 6.63737 6.12305 6.5332 6.12305Z" fill="#F24E1E"/>
</g>
<defs>
<filter id="filter0_d" x="0.335938" y="0.0390625" width="19.2793" height="18.5176" filterUnits="userSpaceOnUse" color-interpolation-filters="sRGB">
<feFlood flood-opacity="0" result="BackgroundImageFix"/>
<feColorMatrix in="SourceAlpha" type="matrix" values="0 0 0 0 0 0 0 0 0 0 0 0 0 0 0 0 0 0 127 0"/>
<feOffset dy="4"/>
<feGaussianBlur stdDeviation="2"/>
<feColorMatrix type="matrix" values="0 0 0 0 0 0 0 0 0 0 0 0 0 0 0 0 0 0 0.25 0"/>
<feBlend mode="normal" in2="BackgroundImageFix" result="effect1_dropShadow"/>
<feBlend mode="normal" in="SourceGraphic" in2="effect1_dropShadow" result="shape"/>
</filter>
</defs>
</svg>
