<svg width="10" height="12" viewBox="0 0 10 12" fill="none" xmlns="http://www.w3.org/2000/svg">
<path d="M4.6582 0.882812C5.12695 0.882812 5.59245 0.944661 6.05469 1.06836C6.52344 1.19206 6.94336 1.38086 7.31445 1.63477C7.68555 1.88216 7.98503 2.19141 8.21289 2.5625C8.44727 2.93359 8.56445 3.36654 8.56445 3.86133C8.56445 4.12826 8.50911 4.38867 8.39844 4.64258C8.37891 4.70117 8.35938 4.75326 8.33984 4.79883C8.32682 4.83789 8.32031 4.88346 8.32031 4.93555C8.32031 5.07878 8.38867 5.20573 8.52539 5.31641C8.89648 5.68099 9.18294 6.09115 9.38477 6.54688C9.5931 7.0026 9.69727 7.47461 9.69727 7.96289C9.69727 8.56185 9.56055 9.08268 9.28711 9.52539C9.01367 9.96159 8.6556 10.3262 8.21289 10.6191C7.77669 10.9056 7.2819 11.1204 6.72852 11.2637C6.17513 11.4069 5.61849 11.4785 5.05859 11.4785C4.71354 11.4785 4.36198 11.446 4.00391 11.3809C3.64583 11.3223 3.29753 11.2279 2.95898 11.0977C2.62044 10.974 2.30143 10.8177 2.00195 10.6289C1.70247 10.4336 1.44206 10.2057 1.2207 9.94531C0.999349 9.67839 0.823568 9.37891 0.693359 9.04688C0.563151 8.70833 0.498047 8.33398 0.498047 7.92383C0.498047 7.50065 0.569661 7.08073 0.712891 6.66406C0.85612 6.24089 1.05794 5.85352 1.31836 5.50195C1.42904 5.37826 1.48438 5.25781 1.48438 5.14062C1.48438 5.04948 1.44857 4.94206 1.37695 4.81836C1.24023 4.54492 1.14909 4.31706 1.10352 4.13477C1.06445 3.95247 1.04492 3.77995 1.04492 3.61719C1.04492 3.11589 1.14583 2.69271 1.34766 2.34766C1.55599 1.99609 1.82943 1.71289 2.16797 1.49805C2.50651 1.2832 2.89062 1.12695 3.32031 1.0293C3.75651 0.931641 4.20247 0.882812 4.6582 0.882812ZM7.17773 6.80078C7.08659 6.70964 6.99544 6.62826 6.9043 6.55664C6.81966 6.48503 6.73177 6.41992 6.64062 6.36133C6.56901 6.30924 6.50065 6.27669 6.43555 6.26367C6.37695 6.25065 6.31185 6.24414 6.24023 6.24414C6.20768 6.24414 6.17188 6.24414 6.13281 6.24414C6.10026 6.24414 6.06445 6.25065 6.02539 6.26367C5.82357 6.30273 5.62174 6.32878 5.41992 6.3418C5.22461 6.35482 5.03255 6.36133 4.84375 6.36133C4.36198 6.36133 3.89323 6.29948 3.4375 6.17578C3.28125 6.13672 3.16406 6.11719 3.08594 6.11719C3.04036 6.11719 3.01107 6.1237 2.99805 6.13672L2.91992 6.19531C2.82227 6.27995 2.74089 6.38086 2.67578 6.49805C2.61719 6.61523 2.56836 6.73893 2.5293 6.86914C2.49674 6.99935 2.47396 7.13281 2.46094 7.26953C2.44792 7.40625 2.44141 7.53646 2.44141 7.66016C2.44141 8.01172 2.52279 8.31771 2.68555 8.57812C2.85482 8.83203 3.06966 9.04362 3.33008 9.21289C3.59701 9.38216 3.89323 9.50911 4.21875 9.59375C4.54427 9.67839 4.86654 9.7207 5.18555 9.7207C5.57617 9.7207 5.93424 9.6849 6.25977 9.61328C6.58529 9.54167 6.86198 9.44076 7.08984 9.31055C7.32422 9.17383 7.50326 9.01107 7.62695 8.82227C7.75716 8.62695 7.82227 8.4056 7.82227 8.1582C7.82227 7.95638 7.77018 7.74154 7.66602 7.51367C7.56185 7.2793 7.39909 7.04167 7.17773 6.80078ZM4.27734 2.62109C4.13411 2.62109 3.98438 2.6276 3.82812 2.64062C3.67188 2.65365 3.52865 2.68294 3.39844 2.72852C3.27474 2.76758 3.17057 2.82943 3.08594 2.91406C3.0013 2.9987 2.95898 3.11263 2.95898 3.25586C2.95898 3.36003 2.98177 3.46745 3.02734 3.57812C3.07292 3.68229 3.15104 3.78971 3.26172 3.90039C3.38542 4.04362 3.5319 4.11523 3.70117 4.11523C3.73372 4.11523 3.76302 4.11523 3.78906 4.11523C3.82161 4.11523 3.86068 4.10872 3.90625 4.0957C4.0625 4.05664 4.22852 4.02734 4.4043 4.00781C4.58008 3.98828 4.7526 3.97852 4.92188 3.97852C5.31901 3.97852 5.69987 4.01758 6.06445 4.0957C6.33138 4.16732 6.4974 4.20312 6.5625 4.20312C6.60156 4.20312 6.62109 4.18359 6.62109 4.14453C6.62109 3.85807 6.53971 3.61719 6.37695 3.42188C6.21419 3.22656 6.01237 3.07031 5.77148 2.95312C5.5306 2.83594 5.27344 2.7513 5 2.69922C4.73307 2.64714 4.49219 2.62109 4.27734 2.62109Z" fill="#27AAFF"/>
</svg>
