<svg width="18" height="20" viewBox="0 0 18 20" fill="none" xmlns="http://www.w3.org/2000/svg">
<g filter="url(#filter0_d)">
<path d="M8.6582 0.882812C9.12695 0.882812 9.59245 0.944661 10.0547 1.06836C10.5234 1.19206 10.9434 1.38086 11.3145 1.63477C11.6855 1.88216 11.985 2.19141 12.2129 2.5625C12.4473 2.93359 12.5645 3.36654 12.5645 3.86133C12.5645 4.12826 12.5091 4.38867 12.3984 4.64258C12.3789 4.70117 12.3594 4.75326 12.3398 4.79883C12.3268 4.83789 12.3203 4.88346 12.3203 4.93555C12.3203 5.07878 12.3887 5.20573 12.5254 5.31641C12.8965 5.68099 13.1829 6.09115 13.3848 6.54688C13.5931 7.0026 13.6973 7.47461 13.6973 7.96289C13.6973 8.56185 13.5605 9.08268 13.2871 9.52539C13.0137 9.96159 12.6556 10.3262 12.2129 10.6191C11.7767 10.9056 11.2819 11.1204 10.7285 11.2637C10.1751 11.4069 9.61849 11.4785 9.05859 11.4785C8.71354 11.4785 8.36198 11.446 8.00391 11.3809C7.64583 11.3223 7.29753 11.2279 6.95898 11.0977C6.62044 10.974 6.30143 10.8177 6.00195 10.6289C5.70247 10.4336 5.44206 10.2057 5.2207 9.94531C4.99935 9.67839 4.82357 9.37891 4.69336 9.04688C4.56315 8.70833 4.49805 8.33398 4.49805 7.92383C4.49805 7.50065 4.56966 7.08073 4.71289 6.66406C4.85612 6.24089 5.05794 5.85352 5.31836 5.50195C5.42904 5.37826 5.48438 5.25781 5.48438 5.14062C5.48438 5.04948 5.44857 4.94206 5.37695 4.81836C5.24023 4.54492 5.14909 4.31706 5.10352 4.13477C5.06445 3.95247 5.04492 3.77995 5.04492 3.61719C5.04492 3.11589 5.14583 2.69271 5.34766 2.34766C5.55599 1.99609 5.82943 1.71289 6.16797 1.49805C6.50651 1.2832 6.89062 1.12695 7.32031 1.0293C7.75651 0.931641 8.20247 0.882812 8.6582 0.882812ZM11.1777 6.80078C11.0866 6.70964 10.9954 6.62826 10.9043 6.55664C10.8197 6.48503 10.7318 6.41992 10.6406 6.36133C10.569 6.30924 10.5007 6.27669 10.4355 6.26367C10.377 6.25065 10.3118 6.24414 10.2402 6.24414C10.2077 6.24414 10.1719 6.24414 10.1328 6.24414C10.1003 6.24414 10.0645 6.25065 10.0254 6.26367C9.82357 6.30273 9.62174 6.32878 9.41992 6.3418C9.22461 6.35482 9.03255 6.36133 8.84375 6.36133C8.36198 6.36133 7.89323 6.29948 7.4375 6.17578C7.28125 6.13672 7.16406 6.11719 7.08594 6.11719C7.04036 6.11719 7.01107 6.1237 6.99805 6.13672L6.91992 6.19531C6.82227 6.27995 6.74089 6.38086 6.67578 6.49805C6.61719 6.61523 6.56836 6.73893 6.5293 6.86914C6.49674 6.99935 6.47396 7.13281 6.46094 7.26953C6.44792 7.40625 6.44141 7.53646 6.44141 7.66016C6.44141 8.01172 6.52279 8.31771 6.68555 8.57812C6.85482 8.83203 7.06966 9.04362 7.33008 9.21289C7.59701 9.38216 7.89323 9.50911 8.21875 9.59375C8.54427 9.67839 8.86654 9.7207 9.18555 9.7207C9.57617 9.7207 9.93424 9.6849 10.2598 9.61328C10.5853 9.54167 10.862 9.44076 11.0898 9.31055C11.3242 9.17383 11.5033 9.01107 11.627 8.82227C11.7572 8.62695 11.8223 8.4056 11.8223 8.1582C11.8223 7.95638 11.7702 7.74154 11.666 7.51367C11.5618 7.2793 11.3991 7.04167 11.1777 6.80078ZM8.27734 2.62109C8.13411 2.62109 7.98438 2.6276 7.82812 2.64062C7.67188 2.65365 7.52865 2.68294 7.39844 2.72852C7.27474 2.76758 7.17057 2.82943 7.08594 2.91406C7.0013 2.9987 6.95898 3.11263 6.95898 3.25586C6.95898 3.36003 6.98177 3.46745 7.02734 3.57812C7.07292 3.68229 7.15104 3.78971 7.26172 3.90039C7.38542 4.04362 7.5319 4.11523 7.70117 4.11523C7.73372 4.11523 7.76302 4.11523 7.78906 4.11523C7.82161 4.11523 7.86068 4.10872 7.90625 4.0957C8.0625 4.05664 8.22852 4.02734 8.4043 4.00781C8.58008 3.98828 8.7526 3.97852 8.92188 3.97852C9.31901 3.97852 9.69987 4.01758 10.0645 4.0957C10.3314 4.16732 10.4974 4.20312 10.5625 4.20312C10.6016 4.20312 10.6211 4.18359 10.6211 4.14453C10.6211 3.85807 10.5397 3.61719 10.377 3.42188C10.2142 3.22656 10.0124 3.07031 9.77148 2.95312C9.5306 2.83594 9.27344 2.7513 9 2.69922C8.73307 2.64714 8.49219 2.62109 8.27734 2.62109Z" fill="#F24E1E"/>
</g>
<defs>
<filter id="filter0_d" x="0.498047" y="0.882812" width="17.1992" height="18.5957" filterUnits="userSpaceOnUse" color-interpolation-filters="sRGB">
<feFlood flood-opacity="0" result="BackgroundImageFix"/>
<feColorMatrix in="SourceAlpha" type="matrix" values="0 0 0 0 0 0 0 0 0 0 0 0 0 0 0 0 0 0 127 0"/>
<feOffset dy="4"/>
<feGaussianBlur stdDeviation="2"/>
<feColorMatrix type="matrix" values="0 0 0 0 0 0 0 0 0 0 0 0 0 0 0 0 0 0 0.25 0"/>
<feBlend mode="normal" in2="BackgroundImageFix" result="effect1_dropShadow"/>
<feBlend mode="normal" in="SourceGraphic" in2="effect1_dropShadow" result="shape"/>
</filter>
</defs>
</svg>
