<svg width="11" height="12" viewBox="0 0 11 12" fill="none" xmlns="http://www.w3.org/2000/svg">
<path d="M10.2676 1.5625C10.3783 1.65365 10.4596 1.74805 10.5117 1.8457C10.5638 1.93685 10.5898 2.02799 10.5898 2.11914C10.5898 2.21029 10.5638 2.30143 10.5117 2.39258C10.4596 2.48372 10.3587 2.5944 10.209 2.72461C10.0592 2.86133 9.94531 3.0013 9.86719 3.14453C9.79557 3.28776 9.75 3.46029 9.73047 3.66211C9.65885 4.33268 9.61003 5.00977 9.58398 5.69336C9.56445 6.37044 9.55469 7.04753 9.55469 7.72461C9.55469 8.26497 9.56771 8.80534 9.59375 9.3457C9.61979 9.87956 9.65234 10.4102 9.69141 10.9375V11.084C9.69141 11.5072 9.46354 11.7578 9.00781 11.8359L8.58789 11.9238C8.54883 11.9368 8.50977 11.9434 8.4707 11.9434C8.43815 11.9434 8.4056 11.9434 8.37305 11.9434C7.95638 11.9434 7.72852 11.709 7.68945 11.2402C7.61133 10.2637 7.57227 9.27083 7.57227 8.26172C7.57227 8.05339 7.57552 7.8125 7.58203 7.53906C7.59505 7.26562 7.60807 7.00195 7.62109 6.74805C7.63411 6.48763 7.64388 6.25326 7.65039 6.04492C7.66341 5.83008 7.66992 5.68034 7.66992 5.5957C7.66992 5.40039 7.59831 5.30273 7.45508 5.30273C7.37044 5.30273 7.26953 5.3418 7.15234 5.41992C6.61849 5.78451 6.0651 6.06771 5.49219 6.26953C4.91927 6.46484 4.35286 6.5625 3.79297 6.5625C3.40885 6.5625 3.02474 6.49414 2.64062 6.35742C2.26302 6.2207 1.91797 6.0319 1.60547 5.79102C1.29948 5.54362 1.05208 5.25391 0.863281 4.92188C0.667969 4.58333 0.570312 4.21549 0.570312 3.81836C0.570312 3.3431 0.671224 2.92643 0.873047 2.56836C1.06836 2.21029 1.32552 1.90104 1.64453 1.64062C1.96354 1.3737 2.32487 1.15234 2.72852 0.976562C3.13867 0.800781 3.55208 0.660807 3.96875 0.556641C4.38542 0.452474 4.78581 0.377604 5.16992 0.332031C5.56055 0.286458 5.89909 0.263672 6.18555 0.263672C6.97331 0.263672 7.70898 0.371094 8.39258 0.585938C9.08268 0.794271 9.70768 1.11979 10.2676 1.5625ZM6.79102 3.62305C6.92122 3.51237 7.04492 3.39844 7.16211 3.28125C7.2793 3.15755 7.38997 3.0306 7.49414 2.90039C7.57227 2.80273 7.61133 2.70182 7.61133 2.59766C7.61133 2.42839 7.4974 2.30794 7.26953 2.23633C7.04167 2.16471 6.80404 2.11589 6.55664 2.08984C6.31576 2.05729 6.07487 2.04102 5.83398 2.04102C5.74284 2.04102 5.65169 2.04102 5.56055 2.04102C5.4694 2.04102 5.37826 2.04753 5.28711 2.06055C5.08529 2.08008 4.82812 2.11589 4.51562 2.16797C4.20964 2.21354 3.91016 2.29167 3.61719 2.40234C3.32422 2.50651 3.07357 2.64648 2.86523 2.82227C2.6569 2.99805 2.55273 3.22266 2.55273 3.49609C2.55273 3.86719 2.69596 4.16667 2.98242 4.39453C3.27539 4.6224 3.68555 4.73633 4.21289 4.73633C4.45378 4.73633 4.68815 4.70703 4.91602 4.64844C5.15039 4.58984 5.375 4.50846 5.58984 4.4043C5.80469 4.30013 6.01302 4.18294 6.21484 4.05273C6.41667 3.91602 6.60872 3.77279 6.79102 3.62305Z" fill="#27AAFF"/>
</svg>
