<svg width="19" height="20" viewBox="0 0 19 20" fill="none" xmlns="http://www.w3.org/2000/svg">
<g filter="url(#filter0_d)">
<path d="M14.2676 1.5625C14.3783 1.65365 14.4596 1.74805 14.5117 1.8457C14.5638 1.93685 14.5898 2.02799 14.5898 2.11914C14.5898 2.21029 14.5638 2.30143 14.5117 2.39258C14.4596 2.48372 14.3587 2.5944 14.209 2.72461C14.0592 2.86133 13.9453 3.0013 13.8672 3.14453C13.7956 3.28776 13.75 3.46029 13.7305 3.66211C13.6589 4.33268 13.61 5.00977 13.584 5.69336C13.5645 6.37044 13.5547 7.04753 13.5547 7.72461C13.5547 8.26497 13.5677 8.80534 13.5938 9.3457C13.6198 9.87956 13.6523 10.4102 13.6914 10.9375V11.084C13.6914 11.5072 13.4635 11.7578 13.0078 11.8359L12.5879 11.9238C12.5488 11.9368 12.5098 11.9434 12.4707 11.9434C12.4382 11.9434 12.4056 11.9434 12.373 11.9434C11.9564 11.9434 11.7285 11.709 11.6895 11.2402C11.6113 10.2637 11.5723 9.27083 11.5723 8.26172C11.5723 8.05339 11.5755 7.8125 11.582 7.53906C11.5951 7.26562 11.6081 7.00195 11.6211 6.74805C11.6341 6.48763 11.6439 6.25326 11.6504 6.04492C11.6634 5.83008 11.6699 5.68034 11.6699 5.5957C11.6699 5.40039 11.5983 5.30273 11.4551 5.30273C11.3704 5.30273 11.2695 5.3418 11.1523 5.41992C10.6185 5.78451 10.0651 6.06771 9.49219 6.26953C8.91927 6.46484 8.35286 6.5625 7.79297 6.5625C7.40885 6.5625 7.02474 6.49414 6.64062 6.35742C6.26302 6.2207 5.91797 6.0319 5.60547 5.79102C5.29948 5.54362 5.05208 5.25391 4.86328 4.92188C4.66797 4.58333 4.57031 4.21549 4.57031 3.81836C4.57031 3.3431 4.67122 2.92643 4.87305 2.56836C5.06836 2.21029 5.32552 1.90104 5.64453 1.64062C5.96354 1.3737 6.32487 1.15234 6.72852 0.976562C7.13867 0.800781 7.55208 0.660807 7.96875 0.556641C8.38542 0.452474 8.78581 0.377604 9.16992 0.332031C9.56055 0.286458 9.89909 0.263672 10.1855 0.263672C10.9733 0.263672 11.709 0.371094 12.3926 0.585938C13.0827 0.794271 13.7077 1.11979 14.2676 1.5625ZM10.791 3.62305C10.9212 3.51237 11.0449 3.39844 11.1621 3.28125C11.2793 3.15755 11.39 3.0306 11.4941 2.90039C11.5723 2.80273 11.6113 2.70182 11.6113 2.59766C11.6113 2.42839 11.4974 2.30794 11.2695 2.23633C11.0417 2.16471 10.804 2.11589 10.5566 2.08984C10.3158 2.05729 10.0749 2.04102 9.83398 2.04102C9.74284 2.04102 9.65169 2.04102 9.56055 2.04102C9.4694 2.04102 9.37826 2.04753 9.28711 2.06055C9.08529 2.08008 8.82812 2.11589 8.51562 2.16797C8.20964 2.21354 7.91016 2.29167 7.61719 2.40234C7.32422 2.50651 7.07357 2.64648 6.86523 2.82227C6.6569 2.99805 6.55273 3.22266 6.55273 3.49609C6.55273 3.86719 6.69596 4.16667 6.98242 4.39453C7.27539 4.6224 7.68555 4.73633 8.21289 4.73633C8.45378 4.73633 8.68815 4.70703 8.91602 4.64844C9.15039 4.58984 9.375 4.50846 9.58984 4.4043C9.80469 4.30013 10.013 4.18294 10.2148 4.05273C10.4167 3.91602 10.6087 3.77279 10.791 3.62305Z" fill="#F24E1E"/>
</g>
<defs>
<filter id="filter0_d" x="0.570312" y="0.263672" width="18.0195" height="19.6797" filterUnits="userSpaceOnUse" color-interpolation-filters="sRGB">
<feFlood flood-opacity="0" result="BackgroundImageFix"/>
<feColorMatrix in="SourceAlpha" type="matrix" values="0 0 0 0 0 0 0 0 0 0 0 0 0 0 0 0 0 0 127 0"/>
<feOffset dy="4"/>
<feGaussianBlur stdDeviation="2"/>
<feColorMatrix type="matrix" values="0 0 0 0 0 0 0 0 0 0 0 0 0 0 0 0 0 0 0.25 0"/>
<feBlend mode="normal" in2="BackgroundImageFix" result="effect1_dropShadow"/>
<feBlend mode="normal" in="SourceGraphic" in2="effect1_dropShadow" result="shape"/>
</filter>
</defs>
</svg>
