<svg width="22" height="19" viewBox="0 0 22 19" fill="none" xmlns="http://www.w3.org/2000/svg">
<g filter="url(#filter0_d)">
<path d="M5.2168 8.05664C5.10612 8.05664 5.02148 8.0013 4.96289 7.89062C4.91081 7.77995 4.88477 7.6237 4.88477 7.42188C4.88477 7.38932 4.88477 7.35352 4.88477 7.31445C4.88477 7.26888 4.89128 7.18424 4.9043 7.06055C4.92383 6.5918 5.15495 6.31836 5.59766 6.24023L5.82227 6.2207C5.97201 6.20117 6.08919 6.1556 6.17383 6.08398C6.25846 6.00586 6.32031 5.89844 6.35938 5.76172C6.47005 5.39062 6.58073 5.01628 6.69141 4.63867C6.80208 4.26107 6.91927 3.88672 7.04297 3.51562C7.10807 3.30729 7.17318 3.08594 7.23828 2.85156C7.3099 2.61068 7.38477 2.37305 7.46289 2.13867C7.54753 1.9043 7.64193 1.67318 7.74609 1.44531C7.85677 1.21745 7.98047 1.00911 8.11719 0.820312C8.17578 0.742188 8.25716 0.660807 8.36133 0.576172C8.46549 0.491536 8.58268 0.416667 8.71289 0.351562C8.84961 0.279948 8.99284 0.224609 9.14258 0.185547C9.29883 0.139974 9.45182 0.117188 9.60156 0.117188C9.79688 0.117188 9.98893 0.179036 10.1777 0.302734C10.4316 0.478516 10.6823 0.690104 10.9297 0.9375C11.1771 1.1849 11.4538 1.50065 11.7598 1.88477C12.0658 2.26888 12.4206 2.73438 12.8242 3.28125C13.2279 3.82161 13.7129 4.47591 14.2793 5.24414C14.3639 5.3418 14.4518 5.41667 14.543 5.46875C14.6406 5.51432 14.7546 5.53711 14.8848 5.53711H15.4414C15.6693 5.53711 15.8451 5.59245 15.9688 5.70312C16.099 5.80729 16.1641 5.95378 16.1641 6.14258C16.1641 6.18164 16.1608 6.22721 16.1543 6.2793C16.1543 6.33138 16.1445 6.38346 16.125 6.43555L15.9395 6.98242C15.9264 7.03451 15.9167 7.08008 15.9102 7.11914C15.9036 7.1582 15.9004 7.19727 15.9004 7.23633C15.9004 7.37305 15.946 7.51302 16.0371 7.65625L17.082 9.08203C17.1992 9.25781 17.2578 9.42383 17.2578 9.58008C17.2578 9.81445 17.1243 10.0195 16.8574 10.1953L16.4863 10.459C16.3952 10.5176 16.3073 10.5632 16.2227 10.5957C16.1445 10.6283 16.0632 10.6445 15.9785 10.6445C15.8613 10.6445 15.7507 10.6087 15.6465 10.5371C15.5488 10.472 15.4544 10.3809 15.3633 10.2637C15.0508 9.82096 14.735 9.38477 14.416 8.95508C14.1035 8.52539 13.7845 8.09896 13.459 7.67578C13.3092 7.46745 13.1107 7.36328 12.8633 7.36328C12.069 7.39583 11.2812 7.44141 10.5 7.5C9.72526 7.55208 8.94727 7.61719 8.16602 7.69531C7.88607 7.72135 7.71029 7.87109 7.63867 8.14453L7.19922 9.75586C7.08203 10.1855 6.82161 10.4004 6.41797 10.4004H6.26172L5.95898 10.3613C5.73763 10.3418 5.56836 10.2734 5.45117 10.1562C5.34049 10.0391 5.28516 9.88607 5.28516 9.69727C5.28516 9.6582 5.28841 9.61589 5.29492 9.57031C5.30143 9.52474 5.3112 9.47591 5.32422 9.42383C5.35677 9.29362 5.38932 9.16016 5.42188 9.02344C5.46094 8.88672 5.5 8.75326 5.53906 8.62305C5.55208 8.57096 5.56185 8.52539 5.56836 8.48633C5.57487 8.44076 5.57812 8.39844 5.57812 8.35938C5.57812 8.15755 5.5 8.05664 5.34375 8.05664H5.2168ZM9.86523 2.90039C9.80013 2.8418 9.74154 2.79297 9.68945 2.75391C9.63737 2.71484 9.58203 2.69531 9.52344 2.69531C9.36068 2.69531 9.24674 2.80924 9.18164 3.03711C9.05143 3.42122 8.92448 3.80208 8.80078 4.17969C8.68359 4.55078 8.56315 4.93164 8.43945 5.32227C8.42643 5.35482 8.41992 5.38411 8.41992 5.41016C8.41992 5.4362 8.41992 5.46549 8.41992 5.49805C8.41992 5.73893 8.54688 5.85938 8.80078 5.85938H8.89844C9.28906 5.80729 9.67969 5.76823 10.0703 5.74219C10.4609 5.70964 10.8516 5.68359 11.2422 5.66406C11.3724 5.65104 11.4733 5.61849 11.5449 5.56641C11.623 5.50781 11.6621 5.43294 11.6621 5.3418C11.6621 5.25716 11.623 5.15625 11.5449 5.03906C11.2715 4.67448 10.9948 4.31641 10.7148 3.96484C10.4414 3.60677 10.1582 3.25195 9.86523 2.90039Z" fill="#F24E1E"/>
</g>
<defs>
<filter id="filter0_d" x="0.884766" y="0.117188" width="20.373" height="18.5273" filterUnits="userSpaceOnUse" color-interpolation-filters="sRGB">
<feFlood flood-opacity="0" result="BackgroundImageFix"/>
<feColorMatrix in="SourceAlpha" type="matrix" values="0 0 0 0 0 0 0 0 0 0 0 0 0 0 0 0 0 0 127 0"/>
<feOffset dy="4"/>
<feGaussianBlur stdDeviation="2"/>
<feColorMatrix type="matrix" values="0 0 0 0 0 0 0 0 0 0 0 0 0 0 0 0 0 0 0.25 0"/>
<feBlend mode="normal" in2="BackgroundImageFix" result="effect1_dropShadow"/>
<feBlend mode="normal" in="SourceGraphic" in2="effect1_dropShadow" result="shape"/>
</filter>
</defs>
</svg>
