<svg width="21" height="19" viewBox="0 0 21 19" fill="none" xmlns="http://www.w3.org/2000/svg">
<g filter="url(#filter0_d)">
<path d="M9.00195 2.48438C8.63737 2.48438 8.29883 2.57227 7.98633 2.74805C7.68034 2.91732 7.41016 3.15495 7.17578 3.46094C6.94792 3.76042 6.76888 4.11523 6.63867 4.52539C6.50846 4.93555 6.44336 5.375 6.44336 5.84375C6.44336 6.32552 6.55078 6.77148 6.76562 7.18164C6.98698 7.58529 7.28971 7.9401 7.67383 8.24609C8.06445 8.54557 8.52018 8.77995 9.04102 8.94922C9.56836 9.11849 10.1413 9.20312 10.7598 9.20312C11.209 9.20312 11.6322 9.16406 12.0293 9.08594C12.4329 9.0013 12.7845 8.89062 13.084 8.75391C13.3835 8.61719 13.6211 8.45768 13.7969 8.27539C13.9727 8.08659 14.0605 7.88802 14.0605 7.67969C14.0605 7.51693 14.0312 7.38346 13.9727 7.2793C13.9141 7.16862 13.8457 7.07096 13.7676 6.98633C13.696 6.89518 13.6309 6.80729 13.5723 6.72266C13.5137 6.63151 13.4844 6.51758 13.4844 6.38086C13.4844 6.25065 13.5169 6.12695 13.582 6.00977C13.6471 5.89258 13.735 5.78841 13.8457 5.69727C13.9629 5.60612 14.0931 5.53451 14.2363 5.48242C14.3861 5.43034 14.5391 5.4043 14.6953 5.4043C14.8841 5.4043 15.0599 5.45312 15.2227 5.55078C15.3919 5.64844 15.5352 5.78516 15.6523 5.96094C15.776 6.13021 15.8704 6.33203 15.9355 6.56641C16.0072 6.79427 16.043 7.03841 16.043 7.29883C16.043 7.82617 15.903 8.31771 15.623 8.77344C15.3431 9.22266 14.9557 9.61003 14.4609 9.93555C13.9661 10.2611 13.3802 10.5182 12.7031 10.707C12.026 10.8893 11.2904 10.9805 10.4961 10.9805C9.61719 10.9805 8.80664 10.8633 8.06445 10.6289C7.32227 10.388 6.68099 10.056 6.14062 9.63281C5.60677 9.20964 5.1901 8.70833 4.89062 8.12891C4.59115 7.54948 4.44141 6.91471 4.44141 6.22461C4.44141 5.4694 4.57161 4.75651 4.83203 4.08594C5.09896 3.41536 5.46029 2.82943 5.91602 2.32812C6.37174 1.82682 6.90234 1.42969 7.50781 1.13672C8.11979 0.84375 8.77083 0.697266 9.46094 0.697266C9.76693 0.697266 10.0469 0.733073 10.3008 0.804688C10.5612 0.869792 10.7858 0.964193 10.9746 1.08789C11.1634 1.21159 11.3099 1.35807 11.4141 1.52734C11.5247 1.6901 11.5801 1.86914 11.5801 2.06445C11.5801 2.2207 11.5443 2.37044 11.4727 2.51367C11.4076 2.65039 11.3197 2.77409 11.209 2.88477C11.0983 2.98893 10.9681 3.07357 10.8184 3.13867C10.6751 3.20378 10.5221 3.23633 10.3594 3.23633C10.1901 3.23633 10.0534 3.19727 9.94922 3.11914C9.85156 3.04102 9.76042 2.95638 9.67578 2.86523C9.59115 2.76758 9.5 2.67969 9.40234 2.60156C9.30469 2.52344 9.17122 2.48438 9.00195 2.48438Z" fill="#F24E1E"/>
</g>
<defs>
<filter id="filter0_d" x="0.441406" y="0.697266" width="19.6016" height="18.2832" filterUnits="userSpaceOnUse" color-interpolation-filters="sRGB">
<feFlood flood-opacity="0" result="BackgroundImageFix"/>
<feColorMatrix in="SourceAlpha" type="matrix" values="0 0 0 0 0 0 0 0 0 0 0 0 0 0 0 0 0 0 127 0"/>
<feOffset dy="4"/>
<feGaussianBlur stdDeviation="2"/>
<feColorMatrix type="matrix" values="0 0 0 0 0 0 0 0 0 0 0 0 0 0 0 0 0 0 0.25 0"/>
<feBlend mode="normal" in2="BackgroundImageFix" result="effect1_dropShadow"/>
<feBlend mode="normal" in="SourceGraphic" in2="effect1_dropShadow" result="shape"/>
</filter>
</defs>
</svg>
