<svg width="24" height="19" viewBox="0 0 24 19" fill="none" xmlns="http://www.w3.org/2000/svg">
<g filter="url(#filter0_d)">
<path d="M5.83984 2.53906C5.75521 2.55208 5.68359 2.56185 5.625 2.56836C5.56641 2.57487 5.51758 2.57812 5.47852 2.57812C5.25716 2.5651 5.10091 2.50326 5.00977 2.39258C4.91862 2.27539 4.87305 2.08333 4.87305 1.81641C4.87305 1.28906 5.12695 0.957031 5.63477 0.820312C6.08398 0.716146 6.56576 0.641276 7.08008 0.595703C7.5944 0.54362 8.16732 0.517578 8.79883 0.517578C9.64518 0.517578 10.485 0.598958 11.3184 0.761719C12.1582 0.924479 12.9557 1.14909 13.7109 1.43555C14.4727 1.71549 15.179 2.05078 15.8301 2.44141C16.4811 2.82552 17.0443 3.24544 17.5195 3.70117C18.0013 4.15039 18.3757 4.62565 18.6426 5.12695C18.916 5.62174 19.0527 6.11979 19.0527 6.62109C19.0527 7.12891 18.8802 7.61393 18.5352 8.07617C18.1966 8.5319 17.7376 8.93555 17.1582 9.28711C16.5788 9.63867 15.9082 9.91862 15.1465 10.127C14.3848 10.3353 13.5872 10.4395 12.7539 10.4395C12.0898 10.4395 11.3965 10.3776 10.6738 10.2539C9.95117 10.1302 9.15365 9.93164 8.28125 9.6582C7.8776 9.54753 7.67578 9.30013 7.67578 8.91602C7.67578 8.83138 7.69531 8.75326 7.73438 8.68164C7.77344 8.61003 7.8125 8.54167 7.85156 8.47656C7.89714 8.41146 7.93945 8.34961 7.97852 8.29102C8.01758 8.22591 8.03711 8.16081 8.03711 8.0957C8.03711 7.72461 8.01758 7.32747 7.97852 6.9043C7.94596 6.48112 7.89714 6.05794 7.83203 5.63477C7.77344 5.21159 7.70182 4.80794 7.61719 4.42383C7.53906 4.0332 7.45768 3.68815 7.37305 3.38867C7.28841 3.08919 7.20052 2.85156 7.10938 2.67578C7.02474 2.49349 6.94661 2.40234 6.875 2.40234C6.76432 2.40234 6.6276 2.41536 6.46484 2.44141C6.30859 2.46745 6.10026 2.5 5.83984 2.53906ZM9.59961 2.38281C9.41081 2.38281 9.31641 2.44792 9.31641 2.57812C9.31641 2.61068 9.32617 2.66602 9.3457 2.74414C9.36523 2.82227 9.39453 2.94596 9.43359 3.11523C9.49219 3.38867 9.54753 3.68164 9.59961 3.99414C9.65169 4.30664 9.70378 4.6582 9.75586 5.04883C9.80794 5.43294 9.85677 5.86589 9.90234 6.34766C9.95443 6.82292 10.0065 7.36003 10.0586 7.95898C10.0651 8.05664 10.153 8.15104 10.3223 8.24219C10.4915 8.32682 10.7161 8.40495 10.9961 8.47656C11.276 8.54167 11.5951 8.59701 11.9531 8.64258C12.3177 8.68164 12.6921 8.70117 13.0762 8.70117C13.584 8.70117 14.069 8.64258 14.5312 8.52539C15 8.40169 15.4102 8.23893 15.7617 8.03711C16.1198 7.83529 16.403 7.60091 16.6113 7.33398C16.8262 7.06706 16.9336 6.79036 16.9336 6.50391C16.9336 6.02865 16.7448 5.56641 16.3672 5.11719C15.9961 4.66797 15.4818 4.26107 14.8242 3.89648C14.1667 3.52539 13.3919 3.20964 12.5 2.94922C11.6081 2.68229 10.6413 2.49349 9.59961 2.38281Z" fill="#F24E1E"/>
</g>
<defs>
<filter id="filter0_d" x="0.873047" y="0.517578" width="22.1797" height="17.9219" filterUnits="userSpaceOnUse" color-interpolation-filters="sRGB">
<feFlood flood-opacity="0" result="BackgroundImageFix"/>
<feColorMatrix in="SourceAlpha" type="matrix" values="0 0 0 0 0 0 0 0 0 0 0 0 0 0 0 0 0 0 127 0"/>
<feOffset dy="4"/>
<feGaussianBlur stdDeviation="2"/>
<feColorMatrix type="matrix" values="0 0 0 0 0 0 0 0 0 0 0 0 0 0 0 0 0 0 0.25 0"/>
<feBlend mode="normal" in2="BackgroundImageFix" result="effect1_dropShadow"/>
<feBlend mode="normal" in="SourceGraphic" in2="effect1_dropShadow" result="shape"/>
</filter>
</defs>
</svg>
