<svg width="22" height="19" viewBox="0 0 22 19" fill="none" xmlns="http://www.w3.org/2000/svg">
<g filter="url(#filter0_d)">
<path d="M5.83203 7.59766C5.8125 7.59766 5.77995 7.60091 5.73438 7.60742C5.69531 7.61393 5.64974 7.62044 5.59766 7.62695C5.55208 7.63346 5.50651 7.63997 5.46094 7.64648C5.41536 7.65299 5.37956 7.65625 5.35352 7.65625C5.17122 7.65625 5.01172 7.58138 4.875 7.43164C4.73828 7.27539 4.66992 7.07031 4.66992 6.81641C4.66992 6.64714 4.72526 6.48438 4.83594 6.32812C4.94661 6.17188 5.11914 6.04167 5.35352 5.9375C5.42513 5.90495 5.48047 5.86914 5.51953 5.83008C5.5651 5.78451 5.58789 5.72266 5.58789 5.64453C5.58789 5.4362 5.58138 5.21484 5.56836 4.98047C5.56185 4.73958 5.54883 4.45964 5.5293 4.14062C5.52279 4.07552 5.5 4.01367 5.46094 3.95508C5.42839 3.89648 5.38932 3.83138 5.34375 3.75977C5.30469 3.68164 5.26888 3.59701 5.23633 3.50586C5.20378 3.41471 5.1875 3.30078 5.1875 3.16406C5.1875 3.04036 5.20378 2.90039 5.23633 2.74414C5.27539 2.58138 5.35026 2.43164 5.46094 2.29492C5.57812 2.15169 5.73763 2.03451 5.93945 1.94336C6.14779 1.8457 6.41797 1.79688 6.75 1.79688C6.88672 1.79688 7.00065 1.8099 7.0918 1.83594C7.18294 1.86198 7.26107 1.89453 7.32617 1.93359C7.39779 1.96615 7.45964 1.99544 7.51172 2.02148C7.57031 2.04753 7.62891 2.06055 7.6875 2.06055C7.79167 2.06055 8 2.04102 8.3125 2.00195C8.625 1.96289 8.99935 1.90755 9.43555 1.83594C9.87826 1.76432 10.3633 1.68294 10.8906 1.5918C11.4245 1.50065 11.9648 1.40299 12.5117 1.29883C13.0586 1.18815 13.5924 1.07747 14.1133 0.966797C14.6341 0.85612 15.1061 0.748698 15.5293 0.644531C15.6595 0.611979 15.7734 0.595703 15.8711 0.595703C16.0078 0.595703 16.1152 0.628255 16.1934 0.693359C16.278 0.751953 16.3398 0.826823 16.3789 0.917969C16.418 1.00911 16.4408 1.11328 16.4473 1.23047C16.4603 1.34115 16.4668 1.44531 16.4668 1.54297C16.4668 1.71224 16.4082 1.87174 16.291 2.02148C16.1803 2.16471 15.9948 2.27865 15.7344 2.36328C15.0898 2.55208 14.4388 2.7181 13.7812 2.86133C13.1302 2.99805 12.4727 3.125 11.8086 3.24219C11.1445 3.35286 10.4772 3.45378 9.80664 3.54492C9.13607 3.63607 8.46875 3.72721 7.80469 3.81836C7.71354 3.83138 7.64518 3.86719 7.59961 3.92578C7.55404 3.97786 7.53125 4.04948 7.53125 4.14062V4.54102C7.53125 4.65169 7.53451 4.76562 7.54102 4.88281C7.54753 5 7.56055 5.10742 7.58008 5.20508C7.60612 5.30273 7.63867 5.38411 7.67773 5.44922C7.7168 5.50781 7.76888 5.53711 7.83398 5.53711C7.99023 5.53711 8.23112 5.50456 8.55664 5.43945C8.88867 5.37435 9.25977 5.29622 9.66992 5.20508C10.0866 5.10742 10.5195 5.00326 10.9688 4.89258C11.4245 4.77539 11.8542 4.67122 12.2578 4.58008C12.6615 4.48242 13.0163 4.40104 13.3223 4.33594C13.6283 4.27083 13.8431 4.23828 13.9668 4.23828C14.1491 4.23828 14.2858 4.30664 14.377 4.44336C14.4746 4.57357 14.5397 4.73958 14.5723 4.94141C14.5723 4.97396 14.5755 5.00326 14.582 5.0293C14.5885 5.05534 14.5918 5.08464 14.5918 5.11719C14.5918 5.30599 14.5332 5.48177 14.416 5.64453C14.3053 5.80078 14.1035 5.91797 13.8105 5.99609C13.7324 6.02214 13.5762 6.06445 13.3418 6.12305C13.1074 6.17513 12.8307 6.24023 12.5117 6.31836C12.1927 6.38997 11.8477 6.4681 11.4766 6.55273C11.1055 6.63737 10.7409 6.72201 10.3828 6.80664C10.0247 6.88477 9.68945 6.96289 9.37695 7.04102C9.07096 7.11263 8.82031 7.17122 8.625 7.2168C8.44922 7.26237 8.3418 7.29818 8.30273 7.32422C8.27018 7.35026 8.25391 7.38281 8.25391 7.42188C8.26693 7.5651 8.33854 7.69857 8.46875 7.82227C8.60547 7.94596 8.77474 8.0599 8.97656 8.16406C9.1849 8.26823 9.41602 8.36263 9.66992 8.44727C9.93034 8.5319 10.1973 8.60352 10.4707 8.66211C10.7507 8.71419 11.0241 8.75651 11.291 8.78906C11.5579 8.82161 11.8053 8.83789 12.0332 8.83789C12.1309 8.83789 12.2708 8.83789 12.4531 8.83789C12.6354 8.83789 12.834 8.83464 13.0488 8.82812C13.2702 8.8151 13.4948 8.79883 13.7227 8.7793C13.957 8.75977 14.1654 8.73372 14.3477 8.70117C14.5365 8.66211 14.6895 8.61654 14.8066 8.56445C14.9303 8.50586 14.9922 8.4375 14.9922 8.35938C14.9922 8.28776 14.9661 8.21289 14.9141 8.13477C14.8685 8.05664 14.8457 7.97201 14.8457 7.88086C14.8457 7.75065 14.8815 7.6237 14.9531 7.5C15.0247 7.36979 15.1159 7.25586 15.2266 7.1582C15.3438 7.05404 15.474 6.97266 15.6172 6.91406C15.7669 6.84896 15.9167 6.81641 16.0664 6.81641C16.2552 6.81641 16.4277 6.85547 16.584 6.93359C16.7402 7.00521 16.8737 7.10286 16.9844 7.22656C17.1016 7.34375 17.1895 7.48047 17.248 7.63672C17.3132 7.79297 17.3457 7.95247 17.3457 8.11523C17.3457 8.54492 17.1862 8.91602 16.8672 9.22852C16.5547 9.54102 16.1445 9.79818 15.6367 10C15.1289 10.2083 14.556 10.3613 13.918 10.459C13.2799 10.5632 12.6387 10.6152 11.9941 10.6152C11.2389 10.6152 10.5488 10.5632 9.92383 10.459C9.29883 10.3613 8.73893 10.2018 8.24414 9.98047C7.74935 9.75911 7.32292 9.47266 6.96484 9.12109C6.60677 8.76302 6.3138 8.33008 6.08594 7.82227C6.00781 7.67253 5.92318 7.59766 5.83203 7.59766Z" fill="#F24E1E"/>
</g>
<defs>
<filter id="filter0_d" x="0.669922" y="0.595703" width="20.6758" height="18.0195" filterUnits="userSpaceOnUse" color-interpolation-filters="sRGB">
<feFlood flood-opacity="0" result="BackgroundImageFix"/>
<feColorMatrix in="SourceAlpha" type="matrix" values="0 0 0 0 0 0 0 0 0 0 0 0 0 0 0 0 0 0 127 0"/>
<feOffset dy="4"/>
<feGaussianBlur stdDeviation="2"/>
<feColorMatrix type="matrix" values="0 0 0 0 0 0 0 0 0 0 0 0 0 0 0 0 0 0 0.25 0"/>
<feBlend mode="normal" in2="BackgroundImageFix" result="effect1_dropShadow"/>
<feBlend mode="normal" in="SourceGraphic" in2="effect1_dropShadow" result="shape"/>
</filter>
</defs>
</svg>
