<svg width="100" height="99" viewBox="0 0 100 99" fill="none" xmlns="http://www.w3.org/2000/svg">
<g filter="url(#filter0_d)">
<path d="M94.521 59.9338H67.2541V31.3266H94.521C95.3378 31.3266 95.9998 30.6669 95.9998 29.853C95.9998 29.039 95.3376 28.3793 94.5208 28.3793H67.2541V1.47374C67.2541 0.659659 66.5919 0 65.7752 0C64.9584 0 64.2962 0.659659 64.2962 1.47374V28.3793H35.5873V1.47374C35.5873 0.659659 34.9251 0 34.1084 0C33.2916 0 32.6294 0.659659 32.6294 1.47374V28.3793H5.47897C4.66219 28.3793 4 29.039 4 29.853C4 30.6671 4.66219 31.3268 5.47897 31.3268H32.6294V59.934H5.47897C4.66219 59.934 4 60.5936 4 61.4077C4 62.2218 4.66219 62.8814 5.47897 62.8814H32.6294V89.5263C32.6294 90.3403 33.2916 91 34.1084 91C34.9251 91 35.5873 90.3403 35.5873 89.5263V62.8812H45.6903C46.507 62.8812 47.1692 62.2216 47.1692 61.4075C47.1692 60.5934 46.507 59.9338 45.6903 59.9338H35.5873V31.3266H64.2962V59.9338H45.0958C44.279 59.9338 43.6168 60.5934 43.6168 61.4075C43.6168 62.2216 44.279 62.8812 45.0958 62.8812H64.2962V89.5261C64.2962 90.3401 64.9584 90.9998 65.7752 90.9998C66.5919 90.9998 67.2541 90.3401 67.2541 89.5261V62.8812H94.521C95.3378 62.8812 96 62.2216 96 61.4075C96 60.5934 95.3378 59.9338 94.521 59.9338Z" fill="#F24E1E"/>
</g>
<defs>
<filter id="filter0_d" x="0" y="0" width="100" height="99" filterUnits="userSpaceOnUse" color-interpolation-filters="sRGB">
<feFlood flood-opacity="0" result="BackgroundImageFix"/>
<feColorMatrix in="SourceAlpha" type="matrix" values="0 0 0 0 0 0 0 0 0 0 0 0 0 0 0 0 0 0 127 0"/>
<feOffset dy="4"/>
<feGaussianBlur stdDeviation="2"/>
<feColorMatrix type="matrix" values="0 0 0 0 0 0 0 0 0 0 0 0 0 0 0 0 0 0 0.25 0"/>
<feBlend mode="normal" in2="BackgroundImageFix" result="effect1_dropShadow"/>
<feBlend mode="normal" in="SourceGraphic" in2="effect1_dropShadow" result="shape"/>
</filter>
</defs>
</svg>
