<svg width="3" height="11" viewBox="0 0 3 11" fill="none" xmlns="http://www.w3.org/2000/svg">
<path d="M0.09375 0.878906C0.09375 0.761719 0.123047 0.654297 0.181641 0.556641C0.240234 0.452474 0.321615 0.364583 0.425781 0.292969C0.529948 0.214844 0.650391 0.152995 0.787109 0.107422C0.930339 0.061849 1.08008 0.0390625 1.23633 0.0390625C1.54232 0.0390625 1.76693 0.0878906 1.91016 0.185547C2.05339 0.283203 2.14128 0.436198 2.17383 0.644531C2.28451 1.51042 2.37565 2.33073 2.44727 3.10547C2.52539 3.8737 2.58724 4.60938 2.63281 5.3125C2.67839 6.00911 2.71094 6.67969 2.73047 7.32422C2.75 7.96224 2.75977 8.58073 2.75977 9.17969C2.75977 9.50521 2.64258 9.74935 2.4082 9.91211C2.18034 10.0749 1.84505 10.1562 1.40234 10.1562C1.20052 10.1562 1.04102 10.1074 0.923828 10.0098C0.813151 9.91862 0.757812 9.7819 0.757812 9.59961C0.757812 8.47982 0.722005 7.43164 0.650391 6.45508C0.585286 5.47201 0.510417 4.59961 0.425781 3.83789C0.341146 3.07617 0.263021 2.44141 0.191406 1.93359C0.126302 1.41927 0.09375 1.06771 0.09375 0.878906Z" fill="#27AAFF"/>
</svg>
