<svg width="12" height="13" viewBox="0 0 12 13" fill="none" xmlns="http://www.w3.org/2000/svg">
<path d="M1.7793 3.09961C1.64909 3.08659 1.52539 3.04427 1.4082 2.97266C1.29102 2.90104 1.18685 2.8099 1.0957 2.69922C1.01107 2.58203 0.942708 2.45508 0.890625 2.31836C0.838542 2.17513 0.8125 2.02865 0.8125 1.87891C0.8125 1.6901 0.858073 1.54036 0.949219 1.42969C1.04688 1.31901 1.17057 1.26367 1.32031 1.26367C1.40495 1.26367 1.54167 1.27344 1.73047 1.29297C1.91927 1.3125 2.14062 1.33854 2.39453 1.37109C2.65495 1.39714 2.9349 1.42969 3.23438 1.46875C3.54036 1.5013 3.84961 1.53385 4.16211 1.56641C4.48112 1.59245 4.79362 1.61523 5.09961 1.63477C5.4056 1.6543 5.69206 1.66406 5.95898 1.66406C6.10872 1.66406 6.24219 1.64779 6.35938 1.61523C6.48307 1.57617 6.61003 1.51758 6.74023 1.43945C6.9681 1.27669 7.22852 1.14974 7.52148 1.05859C7.82096 0.967448 8.13346 0.921875 8.45898 0.921875C8.77799 0.921875 9.11654 0.980469 9.47461 1.09766C9.83268 1.20833 10.1615 1.35156 10.4609 1.52734C10.7669 1.69661 11.0176 1.88542 11.2129 2.09375C11.4147 2.30208 11.5156 2.4974 11.5156 2.67969C11.5156 2.82292 11.4831 2.94336 11.418 3.04102C11.3594 3.13867 11.2487 3.22005 11.0859 3.28516C10.9232 3.34375 10.6986 3.39583 10.4121 3.44141C10.1322 3.48047 9.77409 3.51302 9.33789 3.53906C9.18815 3.55208 9.07747 3.59766 9.00586 3.67578C8.93424 3.7474 8.89844 3.84831 8.89844 3.97852C8.89844 4.0957 8.92773 4.29753 8.98633 4.58398C9.05143 4.86393 9.11979 5.21224 9.19141 5.62891C9.26953 6.03906 9.33789 6.51107 9.39648 7.04492C9.46159 7.57227 9.49414 8.13867 9.49414 8.74414C9.49414 9.36263 9.40625 9.92578 9.23047 10.4336C9.0612 10.9349 8.81706 11.3646 8.49805 11.7227C8.17904 12.0807 7.79492 12.3542 7.3457 12.543C6.89648 12.7383 6.39518 12.8359 5.8418 12.8359C5.35352 12.8359 4.87826 12.7643 4.41602 12.6211C3.96029 12.4779 3.5306 12.2793 3.12695 12.0254C2.72331 11.7715 2.35221 11.4655 2.01367 11.1074C1.68164 10.7493 1.39518 10.3555 1.1543 9.92578C0.913411 9.49609 0.724609 9.03711 0.587891 8.54883C0.457682 8.06055 0.392578 7.55599 0.392578 7.03516C0.392578 6.79427 0.464193 6.5957 0.607422 6.43945C0.750651 6.27669 0.932943 6.19531 1.1543 6.19531C1.35612 6.19531 1.54818 6.2181 1.73047 6.26367C1.91276 6.30924 2.06901 6.37435 2.19922 6.45898C2.33594 6.54362 2.44336 6.64128 2.52148 6.75195C2.59961 6.86263 2.63867 6.97982 2.63867 7.10352C2.63867 7.63086 2.73307 8.13542 2.92188 8.61719C3.11719 9.09896 3.3776 9.52214 3.70312 9.88672C4.02865 10.2513 4.40625 10.541 4.83594 10.7559C5.26562 10.9707 5.7181 11.0781 6.19336 11.0781C6.61654 11.0781 6.94206 10.9219 7.16992 10.6094C7.4043 10.2904 7.52148 9.83464 7.52148 9.24219C7.52148 8.49349 7.45964 7.69922 7.33594 6.85938C7.21224 6.01302 7.02669 5.0918 6.7793 4.0957C6.68164 3.74414 6.48633 3.55859 6.19336 3.53906C5.41211 3.5 4.65365 3.44466 3.91797 3.37305C3.18229 3.30143 2.4694 3.21029 1.7793 3.09961Z" fill="#27AAFF"/>
</svg>
