<svg width="13" height="11" viewBox="0 0 13 11" fill="none" xmlns="http://www.w3.org/2000/svg">
<path d="M9.5918 1.76172C9.5918 2.01562 9.50716 2.25326 9.33789 2.47461C9.17513 2.69596 8.9668 2.91081 8.71289 3.11914C8.46549 3.32747 8.19531 3.5293 7.90234 3.72461C7.60938 3.91992 7.33594 4.11849 7.08203 4.32031C6.83464 4.52214 6.6263 4.72721 6.45703 4.93555C6.29427 5.14388 6.21289 5.36523 6.21289 5.59961C6.21289 5.79492 6.34961 5.98372 6.62305 6.16602C6.89648 6.34831 7.29036 6.5306 7.80469 6.71289C8.31901 6.89518 8.94076 7.08398 9.66992 7.2793C10.3991 7.4681 11.2194 7.66992 12.1309 7.88477C12.5866 8.00846 12.8145 8.23958 12.8145 8.57812C12.8145 8.70833 12.7819 8.83529 12.7168 8.95898C12.6582 9.08268 12.5768 9.19336 12.4727 9.29102C12.3685 9.38216 12.248 9.45703 12.1113 9.51562C11.9811 9.57422 11.8477 9.60352 11.7109 9.60352C11.3854 9.60352 11.0143 9.55469 10.5977 9.45703C10.1875 9.35938 9.76107 9.23893 9.31836 9.0957C8.87565 8.95247 8.43294 8.79622 7.99023 8.62695C7.54753 8.45117 7.13086 8.29167 6.74023 8.14844C6.35612 8.00521 6.01432 7.88477 5.71484 7.78711C5.42188 7.68945 5.20052 7.64062 5.05078 7.64062C4.93359 7.64062 4.81966 7.69596 4.70898 7.80664C4.60482 7.91081 4.50716 8.05729 4.41602 8.24609C4.33138 8.4349 4.25977 8.65951 4.20117 8.91992C4.14258 9.17383 4.10026 9.45378 4.07422 9.75977C4.04167 10.1048 3.91797 10.362 3.70312 10.5312C3.49479 10.694 3.20508 10.7754 2.83398 10.7754C2.44987 10.7754 2.22852 10.5964 2.16992 10.2383C2.07227 9.69141 1.95182 9.13477 1.80859 8.56836C1.67188 8.00195 1.51888 7.43555 1.34961 6.86914C1.18685 6.30273 1.00781 5.74284 0.8125 5.18945C0.623698 4.63607 0.42513 4.10547 0.216797 3.59766C0.164714 3.48698 0.125651 3.38607 0.0996094 3.29492C0.0800781 3.19727 0.0703125 3.09961 0.0703125 3.00195C0.0703125 2.91732 0.0963542 2.83919 0.148438 2.76758C0.200521 2.68945 0.272135 2.62109 0.363281 2.5625C0.454427 2.50391 0.558594 2.45833 0.675781 2.42578C0.799479 2.39323 0.926432 2.37695 1.05664 2.37695C1.32357 2.37695 1.53516 2.43229 1.69141 2.54297C1.84766 2.65365 2.00716 2.81966 2.16992 3.04102C2.24805 3.14518 2.32292 3.28516 2.39453 3.46094C2.46615 3.63021 2.53451 3.8125 2.59961 4.00781C2.66471 4.20312 2.72982 4.40169 2.79492 4.60352C2.86003 4.79883 2.92188 4.97786 2.98047 5.14062C3.04557 5.29688 3.10742 5.42708 3.16602 5.53125C3.23112 5.62891 3.29297 5.67773 3.35156 5.67773C3.40365 5.67773 3.44596 5.65495 3.47852 5.60938C3.51758 5.5638 3.56315 5.49544 3.61523 5.4043C3.95378 4.70117 4.32487 4.0599 4.72852 3.48047C5.13216 2.89453 5.54557 2.39648 5.96875 1.98633C6.39193 1.56966 6.8151 1.2474 7.23828 1.01953C7.66797 0.791667 8.07812 0.677734 8.46875 0.677734C8.625 0.677734 8.77148 0.707031 8.9082 0.765625C9.04492 0.817708 9.16211 0.892578 9.25977 0.990234C9.36393 1.08789 9.44531 1.20508 9.50391 1.3418C9.5625 1.47201 9.5918 1.61198 9.5918 1.76172Z" fill="#27AAFF"/>
</svg>
