<svg width="8" height="11" viewBox="0 0 8 11" fill="none" xmlns="http://www.w3.org/2000/svg">
<path d="M3.17773 10.6641C2.98893 10.6966 2.81966 10.7324 2.66992 10.7715C2.52018 10.8171 2.33464 10.8398 2.11328 10.8398C1.8724 10.8398 1.68685 10.7715 1.55664 10.6348C1.42643 10.498 1.36133 10.3451 1.36133 10.1758C1.36133 10.0391 1.38411 9.86328 1.42969 9.64844C1.47526 9.42708 1.49805 9.20573 1.49805 8.98438C1.45247 8.14453 1.39062 7.31445 1.3125 6.49414C1.24089 5.66732 1.16927 4.91211 1.09766 4.22852C1.02604 3.54492 0.964193 2.96224 0.912109 2.48047C0.860026 1.99219 0.833984 1.66016 0.833984 1.48438C0.833984 1.36719 0.863281 1.25977 0.921875 1.16211C0.980469 1.05794 1.06185 0.966797 1.16602 0.888672C1.27018 0.810547 1.39062 0.751953 1.52734 0.712891C1.67057 0.667318 1.82031 0.644531 1.97656 0.644531C2.28255 0.644531 2.50716 0.693359 2.65039 0.791016C2.79362 0.882161 2.88151 1.0319 2.91406 1.24023C3.09635 2.63997 3.22656 3.92578 3.30469 5.09766C3.38932 6.26302 3.44792 7.35677 3.48047 8.37891C3.48047 8.52865 3.51953 8.64258 3.59766 8.7207C3.68229 8.79883 3.78971 8.83789 3.91992 8.83789C4.18034 8.83789 4.44401 8.82487 4.71094 8.79883C4.97786 8.76628 5.24479 8.73372 5.51172 8.70117C5.77865 8.66862 6.04232 8.63932 6.30273 8.61328C6.56966 8.58073 6.82682 8.56445 7.07422 8.56445C7.23698 8.56445 7.36719 8.58398 7.46484 8.62305C7.56901 8.66211 7.64714 8.71419 7.69922 8.7793C7.75781 8.8444 7.79362 8.91927 7.80664 9.00391C7.82617 9.08203 7.83594 9.16016 7.83594 9.23828C7.83594 9.36198 7.82292 9.48568 7.79688 9.60938C7.77083 9.73307 7.72526 9.84701 7.66016 9.95117C7.59505 10.0488 7.50716 10.1302 7.39648 10.1953C7.28581 10.2669 7.14583 10.3092 6.97656 10.3223C6.17578 10.4004 5.44336 10.459 4.7793 10.498C4.12174 10.5371 3.58789 10.5924 3.17773 10.6641Z" fill="#27AAFF"/>
</svg>
