<svg width="14" height="11" viewBox="0 0 14 11" fill="none" xmlns="http://www.w3.org/2000/svg">
<path d="M9.83984 4.67773C9.76172 4.67773 9.69336 4.73958 9.63477 4.86328C9.38737 5.34505 9.1237 5.78125 8.84375 6.17188C8.57031 6.5625 8.29362 6.89453 8.01367 7.16797C7.73372 7.44141 7.45703 7.65299 7.18359 7.80273C6.91016 7.94596 6.65299 8.01758 6.41211 8.01758C6.17773 8.01758 5.95964 7.96875 5.75781 7.87109C5.5625 7.76693 5.34766 7.57487 5.11328 7.29492C4.88542 7.01497 4.62174 6.6276 4.32227 6.13281C4.0293 5.63802 3.66797 4.99349 3.23828 4.19922C3.16667 4.06901 3.0918 3.97461 3.01367 3.91602C2.94206 3.85091 2.87695 3.81836 2.81836 3.81836C2.73372 3.81836 2.6556 3.90951 2.58398 4.0918C2.51237 4.26758 2.45052 4.51823 2.39844 4.84375C2.34635 5.16276 2.30404 5.55013 2.27148 6.00586C2.24544 6.45508 2.23242 6.95312 2.23242 7.5C2.23242 7.82552 2.2487 8.15104 2.28125 8.47656C2.32031 8.80208 2.33984 9.13737 2.33984 9.48242C2.33984 9.59961 2.30729 9.71029 2.24219 9.81445C2.17708 9.91211 2.08919 9.99674 1.97852 10.0684C1.87435 10.1465 1.7474 10.2083 1.59766 10.2539C1.45443 10.2995 1.30143 10.3223 1.13867 10.3223C0.813151 10.3223 0.578776 10.127 0.435547 9.73633C0.292318 9.3457 0.220703 8.7207 0.220703 7.86133C0.220703 6.77409 0.279297 5.78776 0.396484 4.90234C0.520182 4.01042 0.692708 3.2487 0.914062 2.61719C1.14193 1.97917 1.40885 1.48763 1.71484 1.14258C2.02734 0.791016 2.37565 0.615234 2.75977 0.615234C3.09831 0.615234 3.42057 0.810547 3.72656 1.20117C4.03906 1.58529 4.37435 2.21029 4.73242 3.07617C4.87565 3.42773 5.02865 3.75651 5.19141 4.0625C5.36068 4.36849 5.52669 4.63542 5.68945 4.86328C5.85872 5.08464 6.02148 5.26042 6.17773 5.39062C6.33398 5.51432 6.47396 5.57617 6.59766 5.57617C6.72135 5.57617 6.83854 5.55013 6.94922 5.49805C7.06641 5.43945 7.19661 5.31901 7.33984 5.13672C7.48958 4.94792 7.66211 4.67448 7.85742 4.31641C8.05924 3.95833 8.30664 3.47982 8.59961 2.88086C8.75586 2.56836 8.89583 2.30794 9.01953 2.09961C9.14323 1.89128 9.26693 1.72526 9.39062 1.60156C9.51432 1.47135 9.64453 1.38021 9.78125 1.32812C9.91797 1.26953 10.071 1.24023 10.2402 1.24023C10.4421 1.24023 10.6406 1.34766 10.8359 1.5625C11.0312 1.77734 11.2201 2.0638 11.4023 2.42188C11.5911 2.77995 11.7734 3.19661 11.9492 3.67188C12.125 4.14714 12.2943 4.64518 12.457 5.16602C12.6263 5.68685 12.7891 6.21745 12.9453 6.75781C13.1081 7.29167 13.2643 7.79948 13.4141 8.28125C13.4531 8.42448 13.4792 8.52539 13.4922 8.58398C13.5117 8.63607 13.5215 8.70117 13.5215 8.7793C13.5215 8.88997 13.4857 9.00065 13.4141 9.11133C13.349 9.21549 13.2611 9.3099 13.1504 9.39453C13.0397 9.47917 12.9128 9.54753 12.7695 9.59961C12.6328 9.65169 12.4961 9.67773 12.3594 9.67773C12.1771 9.67773 12.0339 9.6582 11.9297 9.61914C11.832 9.57357 11.7539 9.49544 11.6953 9.38477C11.6628 9.32617 11.6074 9.16992 11.5293 8.91602C11.4512 8.66211 11.3568 8.36263 11.2461 8.01758C11.1419 7.66602 11.0247 7.29492 10.8945 6.9043C10.7708 6.51367 10.6439 6.1556 10.5137 5.83008C10.39 5.49805 10.2695 5.22461 10.1523 5.00977C10.0352 4.78841 9.93099 4.67773 9.83984 4.67773Z" fill="#27AAFF"/>
</svg>
