<svg width="13" height="11" viewBox="0 0 13 11" fill="none" xmlns="http://www.w3.org/2000/svg">
<path d="M3.00391 6.11719C3.00391 6.39062 3.01693 6.67383 3.04297 6.9668C3.06901 7.25977 3.09831 7.55273 3.13086 7.8457C3.16992 8.13867 3.20247 8.4349 3.22852 8.73438C3.25456 9.02734 3.26758 9.31706 3.26758 9.60352C3.26758 9.92253 3.1569 10.1829 2.93555 10.3848C2.71419 10.5801 2.41797 10.6777 2.04688 10.6777C1.86458 10.6777 1.69206 10.6224 1.5293 10.5117C1.37305 10.401 1.28516 10.2253 1.26562 9.98438C1.23307 9.67839 1.20052 9.33659 1.16797 8.95898C1.14193 8.57487 1.11589 8.18099 1.08984 7.77734C1.07031 7.36719 1.05078 6.95703 1.03125 6.54688C1.01172 6.13021 0.995443 5.73307 0.982422 5.35547C0.969401 4.97135 0.959635 4.61979 0.953125 4.30078C0.946615 3.97526 0.943359 3.70182 0.943359 3.48047C0.943359 3.28516 0.95638 3.09961 0.982422 2.92383C1.00846 2.74805 1.0638 2.59505 1.14844 2.46484C1.23307 2.33464 1.34701 2.23047 1.49023 2.15234C1.63997 2.07422 1.83854 2.03516 2.08594 2.03516C2.27474 2.03516 2.48633 2.10352 2.7207 2.24023C2.95508 2.37044 3.20573 2.54948 3.47266 2.77734C3.74609 3.00521 4.03581 3.26888 4.3418 3.56836C4.64779 3.86133 4.96354 4.17057 5.28906 4.49609C5.61458 4.82161 5.94661 5.15365 6.28516 5.49219C6.63021 5.82422 6.97852 6.13997 7.33008 6.43945C7.48633 6.57617 7.66211 6.73568 7.85742 6.91797C8.05924 7.10026 8.26432 7.27279 8.47266 7.43555C8.6875 7.59831 8.89909 7.73828 9.10742 7.85547C9.32227 7.96615 9.52734 8.02148 9.72266 8.02148C9.90495 8.02148 10.0221 7.94336 10.0742 7.78711C10.1328 7.62435 10.1621 7.36719 10.1621 7.01562C10.1621 6.75521 10.1393 6.43294 10.0938 6.04883C10.0547 5.66471 9.99609 5.25456 9.91797 4.81836C9.83984 4.38216 9.74219 3.94596 9.625 3.50977C9.50781 3.06706 9.37435 2.66341 9.22461 2.29883C9.19206 2.2207 9.15951 2.14583 9.12695 2.07422C9.10091 1.99609 9.08789 1.91146 9.08789 1.82031C9.08789 1.67057 9.13672 1.53711 9.23438 1.41992C9.33203 1.30273 9.44922 1.20508 9.58594 1.12695C9.72266 1.04883 9.86589 0.990234 10.0156 0.951172C10.1654 0.905599 10.2891 0.882812 10.3867 0.882812C10.6016 0.882812 10.7936 1 10.9629 1.23438C11.1322 1.46224 11.2786 1.76172 11.4023 2.13281C11.5326 2.4974 11.64 2.91081 11.7246 3.37305C11.8092 3.82878 11.8776 4.28776 11.9297 4.75C11.9883 5.21224 12.0273 5.65495 12.0469 6.07812C12.0729 6.49479 12.0859 6.8431 12.0859 7.12305C12.0859 7.65039 12.0632 8.11589 12.0176 8.51953C11.9785 8.91667 11.8906 9.25195 11.7539 9.52539C11.6237 9.79883 11.4316 10.0072 11.1777 10.1504C10.9238 10.2871 10.5853 10.3555 10.1621 10.3555C9.82357 10.3555 9.46875 10.2871 9.09766 10.1504C8.72656 10.0072 8.34896 9.81836 7.96484 9.58398C7.58724 9.3431 7.20312 9.06966 6.8125 8.76367C6.42839 8.45768 6.05078 8.13867 5.67969 7.80664C5.30859 7.47461 4.94727 7.14258 4.5957 6.81055C4.25065 6.47852 3.92839 6.16927 3.62891 5.88281C3.50521 5.75911 3.39128 5.69727 3.28711 5.69727C3.19596 5.69727 3.12435 5.73633 3.07227 5.81445C3.02669 5.88607 3.00391 5.98698 3.00391 6.11719Z" fill="#27AAFF"/>
</svg>
