<svg width="21" height="20" viewBox="0 0 21 20" fill="none" xmlns="http://www.w3.org/2000/svg">
<path d="M9.41016 19.1973C8.13281 19.1973 6.95508 18.9805 5.87695 18.5469C4.81055 18.1133 3.89062 17.5098 3.11719 16.7363C2.34375 15.9512 1.74023 15.0195 1.30664 13.9414C0.873047 12.8633 0.65625 11.6738 0.65625 10.373C0.65625 9.66992 0.714844 8.99609 0.832031 8.35156C0.960938 7.69531 1.13086 7.08594 1.3418 6.52344C1.43555 6.30078 1.48242 6.14258 1.48242 6.04883C1.48242 5.93164 1.45312 5.82031 1.39453 5.71484C1.33594 5.60938 1.27148 5.49805 1.20117 5.38086C1.13086 5.26367 1.06641 5.14063 1.00781 5.01172C0.949219 4.88281 0.919922 4.73633 0.919922 4.57227C0.919922 4.08008 1.20117 3.59961 1.76367 3.13086C2.32617 2.65039 3.07031 2.22852 3.99609 1.86523C4.92188 1.49023 5.9707 1.19141 7.14258 0.96875C8.31445 0.734375 9.51562 0.617188 10.7461 0.617188C12.2578 0.617188 13.6172 0.810547 14.8242 1.19727C16.043 1.58398 17.0742 2.14062 17.918 2.86719C18.7734 3.58203 19.4297 4.45508 19.8867 5.48633C20.3438 6.51758 20.5723 7.67773 20.5723 8.9668C20.5723 10.4082 20.2852 11.7559 19.7109 13.0098C19.1367 14.252 18.3457 15.3301 17.3379 16.2441C16.3418 17.1582 15.1641 17.8789 13.8047 18.4062C12.4453 18.9336 10.9805 19.1973 9.41016 19.1973ZM17.0391 9.65234C17.0391 8.73828 16.8809 7.91797 16.5645 7.19141C16.248 6.46484 15.791 5.85547 15.1934 5.36328C14.5957 4.85938 13.8574 4.47852 12.9785 4.2207C12.1113 3.95117 11.127 3.81641 10.0254 3.81641C8.0918 3.81641 6.63281 4.30859 5.64844 5.29297C4.67578 6.26563 4.18945 7.71875 4.18945 9.65234C4.18945 10.5898 4.33594 11.4512 4.62891 12.2363C4.92188 13.0098 5.33203 13.6777 5.85938 14.2402C6.38672 14.791 7.01367 15.2246 7.74023 15.541C8.47852 15.8457 9.28711 15.998 10.166 15.998C11.1738 15.998 12.0996 15.8457 12.9434 15.541C13.7871 15.2246 14.5078 14.7852 15.1055 14.2227C15.7148 13.6602 16.1895 12.9922 16.5293 12.2188C16.8691 11.4336 17.0391 10.5781 17.0391 9.65234Z" fill="#27AAFF"/>
</svg>
