<svg width="13" height="13" viewBox="0 0 13 13" fill="none" xmlns="http://www.w3.org/2000/svg">
<path d="M4.24414 12.123C4.24414 11.9082 4.23438 11.6283 4.21484 11.2832C4.20182 10.9382 4.18229 10.5573 4.15625 10.1406C4.13021 9.72396 4.10091 9.28125 4.06836 8.8125C4.03581 8.34375 4 7.87826 3.96094 7.41602C3.92188 6.95378 3.88281 6.50781 3.84375 6.07812C3.8112 5.64193 3.77865 5.24805 3.74609 4.89648C3.69401 4.39518 3.6224 4.02734 3.53125 3.79297C3.4401 3.55859 3.29036 3.44141 3.08203 3.44141C2.88672 3.44141 2.75651 3.49674 2.69141 3.60742C2.63281 3.7181 2.59701 3.85482 2.58398 4.01758C2.57747 4.18034 2.57422 4.35938 2.57422 4.55469C2.58073 4.74349 2.55143 4.91927 2.48633 5.08203C2.42773 5.24479 2.3138 5.38151 2.14453 5.49219C1.97526 5.60286 1.71484 5.6582 1.36328 5.6582C1.11589 5.6582 0.904297 5.55729 0.728516 5.35547C0.552734 5.14714 0.464844 4.84766 0.464844 4.45703C0.464844 3.91016 0.627604 3.41536 0.953125 2.97266C1.27214 2.52344 1.72461 2.14258 2.31055 1.83008C2.89648 1.51107 3.60286 1.26367 4.42969 1.08789C5.25651 0.912109 6.17448 0.824219 7.18359 0.824219C7.90625 0.824219 8.57357 0.905599 9.18555 1.06836C9.79753 1.22461 10.3249 1.44596 10.7676 1.73242C11.2168 2.01237 11.5684 2.34766 11.8223 2.73828C12.0762 3.1224 12.2031 3.54232 12.2031 3.99805C12.2031 4.51237 12.0534 5.00391 11.7539 5.47266C11.4544 5.94141 11.041 6.37109 10.5137 6.76172C9.99284 7.15234 9.3776 7.49414 8.66797 7.78711C7.95833 8.07357 7.19661 8.29818 6.38281 8.46094C6.15495 8.5 6.04102 8.63997 6.04102 8.88086C6.04102 9.04362 6.05078 9.2487 6.07031 9.49609C6.09635 9.73698 6.11914 9.99089 6.13867 10.2578C6.16471 10.5247 6.1875 10.7884 6.20703 11.0488C6.23307 11.3092 6.24609 11.5404 6.24609 11.7422C6.24609 12.1068 6.16146 12.3672 5.99219 12.5234C5.82292 12.6797 5.57227 12.7578 5.24023 12.7578C4.92773 12.7578 4.68359 12.7025 4.50781 12.5918C4.33203 12.4876 4.24414 12.3314 4.24414 12.123ZM10.1816 4.28125C10.1816 4.0599 10.0872 3.84831 9.89844 3.64648C9.70964 3.44466 9.45573 3.26562 9.13672 3.10938C8.81771 2.95312 8.44661 2.82943 8.02344 2.73828C7.60677 2.64714 7.16732 2.60156 6.70508 2.60156C6.47721 2.60156 6.28516 2.61133 6.12891 2.63086C5.97917 2.64388 5.85872 2.66992 5.76758 2.70898C5.67643 2.74805 5.61133 2.80013 5.57227 2.86523C5.53971 2.92383 5.52344 3.00195 5.52344 3.09961C5.52344 3.16471 5.5332 3.31771 5.55273 3.55859C5.57227 3.79297 5.59831 4.06641 5.63086 4.37891C5.66341 4.69141 5.69596 5.02018 5.72852 5.36523C5.76758 5.70378 5.80664 6.00977 5.8457 6.2832C5.86523 6.48503 5.89128 6.61849 5.92383 6.68359C5.96289 6.7487 6.02148 6.78125 6.09961 6.78125C6.32096 6.78125 6.57487 6.74544 6.86133 6.67383C7.14779 6.5957 7.44076 6.49479 7.74023 6.37109C8.04622 6.24089 8.34245 6.0944 8.62891 5.93164C8.92188 5.76237 9.18229 5.58659 9.41016 5.4043C9.64453 5.21549 9.83008 5.02669 9.9668 4.83789C10.11 4.64258 10.1816 4.45703 10.1816 4.28125Z" fill="#27AAFF"/>
</svg>
