<svg width="116" height="20" viewBox="0 0 116 20" fill="none" xmlns="http://www.w3.org/2000/svg">
<path d="M4.29883 14.123C4.29883 13.9082 4.28906 13.6283 4.26953 13.2832C4.25651 12.9382 4.23698 12.5573 4.21094 12.1406C4.1849 11.724 4.1556 11.2812 4.12305 10.8125C4.09049 10.3438 4.05469 9.87826 4.01562 9.41602C3.97656 8.95378 3.9375 8.50781 3.89844 8.07812C3.86589 7.64193 3.83333 7.24805 3.80078 6.89648C3.7487 6.39518 3.67708 6.02734 3.58594 5.79297C3.49479 5.55859 3.34505 5.44141 3.13672 5.44141C2.94141 5.44141 2.8112 5.49674 2.74609 5.60742C2.6875 5.7181 2.65169 5.85482 2.63867 6.01758C2.63216 6.18034 2.62891 6.35938 2.62891 6.55469C2.63542 6.74349 2.60612 6.91927 2.54102 7.08203C2.48242 7.24479 2.36849 7.38151 2.19922 7.49219C2.02995 7.60286 1.76953 7.6582 1.41797 7.6582C1.17057 7.6582 0.958984 7.55729 0.783203 7.35547C0.607422 7.14714 0.519531 6.84766 0.519531 6.45703C0.519531 5.91016 0.682292 5.41536 1.00781 4.97266C1.32682 4.52344 1.7793 4.14258 2.36523 3.83008C2.95117 3.51107 3.65755 3.26367 4.48438 3.08789C5.3112 2.91211 6.22917 2.82422 7.23828 2.82422C7.96094 2.82422 8.62826 2.9056 9.24023 3.06836C9.85221 3.22461 10.3796 3.44596 10.8223 3.73242C11.2715 4.01237 11.623 4.34766 11.877 4.73828C12.1309 5.1224 12.2578 5.54232 12.2578 5.99805C12.2578 6.51237 12.1081 7.00391 11.8086 7.47266C11.5091 7.94141 11.0957 8.37109 10.5684 8.76172C10.0475 9.15234 9.43229 9.49414 8.72266 9.78711C8.01302 10.0736 7.2513 10.2982 6.4375 10.4609C6.20964 10.5 6.0957 10.64 6.0957 10.8809C6.0957 11.0436 6.10547 11.2487 6.125 11.4961C6.15104 11.737 6.17383 11.9909 6.19336 12.2578C6.2194 12.5247 6.24219 12.7884 6.26172 13.0488C6.28776 13.3092 6.30078 13.5404 6.30078 13.7422C6.30078 14.1068 6.21615 14.3672 6.04688 14.5234C5.8776 14.6797 5.62695 14.7578 5.29492 14.7578C4.98242 14.7578 4.73828 14.7025 4.5625 14.5918C4.38672 14.4876 4.29883 14.3314 4.29883 14.123ZM10.2363 6.28125C10.2363 6.0599 10.1419 5.84831 9.95312 5.64648C9.76432 5.44466 9.51042 5.26562 9.19141 5.10938C8.8724 4.95312 8.5013 4.82943 8.07812 4.73828C7.66146 4.64714 7.22201 4.60156 6.75977 4.60156C6.5319 4.60156 6.33984 4.61133 6.18359 4.63086C6.03385 4.64388 5.91341 4.66992 5.82227 4.70898C5.73112 4.74805 5.66602 4.80013 5.62695 4.86523C5.5944 4.92383 5.57812 5.00195 5.57812 5.09961C5.57812 5.16471 5.58789 5.31771 5.60742 5.55859C5.62695 5.79297 5.65299 6.06641 5.68555 6.37891C5.7181 6.69141 5.75065 7.02018 5.7832 7.36523C5.82227 7.70378 5.86133 8.00977 5.90039 8.2832C5.91992 8.48503 5.94596 8.61849 5.97852 8.68359C6.01758 8.7487 6.07617 8.78125 6.1543 8.78125C6.37565 8.78125 6.62956 8.74544 6.91602 8.67383C7.20247 8.5957 7.49544 8.49479 7.79492 8.37109C8.10091 8.24089 8.39714 8.0944 8.68359 7.93164C8.97656 7.76237 9.23698 7.58659 9.46484 7.4043C9.69922 7.21549 9.88477 7.02669 10.0215 6.83789C10.1647 6.64258 10.2363 6.45703 10.2363 6.28125ZM12.3555 1.87695C12.3555 1.53841 12.4531 1.29753 12.6484 1.1543C12.8438 1.01107 13.166 0.939453 13.6152 0.939453C13.7715 0.939453 13.9082 0.955729 14.0254 0.988281C14.1426 1.02083 14.2402 1.07617 14.3184 1.1543C14.3965 1.22591 14.4583 1.32682 14.5039 1.45703C14.556 1.58073 14.5983 1.74023 14.6309 1.93555C14.7155 2.51497 14.8001 3.1237 14.8848 3.76172C14.9759 4.39323 15.0605 5.02474 15.1387 5.65625C15.2233 6.28125 15.3014 6.89323 15.373 7.49219C15.4447 8.08464 15.5065 8.63802 15.5586 9.15234C15.6172 9.66016 15.6595 10.1126 15.6855 10.5098C15.7181 10.9004 15.7344 11.2096 15.7344 11.4375C15.7344 11.6719 15.7116 11.8704 15.666 12.0332C15.627 12.196 15.5553 12.3262 15.4512 12.4238C15.3535 12.5215 15.2233 12.5931 15.0605 12.6387C14.9043 12.6777 14.709 12.6973 14.4746 12.6973C14.2467 12.6973 14.0645 12.6387 13.9277 12.5215C13.7975 12.4043 13.7324 12.2253 13.7324 11.9844C13.7324 11.737 13.7129 11.4082 13.6738 10.998C13.6348 10.5814 13.5827 10.1191 13.5176 9.61133C13.4525 9.10352 13.3776 8.56315 13.293 7.99023C13.2148 7.41732 13.1302 6.85091 13.0391 6.29102C12.9544 5.73112 12.8698 5.19401 12.7852 4.67969C12.707 4.15885 12.6354 3.69987 12.5703 3.30273C12.5052 2.89909 12.4531 2.57031 12.4141 2.31641C12.375 2.05599 12.3555 1.90951 12.3555 1.87695ZM23.4297 4.46484C23.7878 4.46484 24.1328 4.52018 24.4648 4.63086C24.7969 4.74154 25.0898 4.89453 25.3438 5.08984C25.5977 5.28516 25.7995 5.51953 25.9492 5.79297C26.1055 6.06641 26.1836 6.36914 26.1836 6.70117C26.1836 6.83789 26.151 6.97135 26.0859 7.10156C26.0273 7.22526 25.946 7.33594 25.8418 7.43359C25.7376 7.52474 25.6172 7.59961 25.4805 7.6582C25.3503 7.71029 25.2135 7.73633 25.0703 7.73633C25.0573 7.73633 25.0443 7.73958 25.0312 7.74609C25.0247 7.74609 25.015 7.74609 25.002 7.74609C24.9889 7.7526 24.9759 7.75586 24.9629 7.75586L25.002 8.53711C25.028 9.4681 25.1582 10.1484 25.3926 10.5781C25.6335 11.0078 25.946 11.2227 26.3301 11.2227C26.4668 11.2227 26.5872 11.2096 26.6914 11.1836C26.8021 11.1576 26.903 11.1283 26.9941 11.0957C27.0918 11.0566 27.1829 11.0241 27.2676 10.998C27.3522 10.972 27.4368 10.959 27.5215 10.959C27.6712 10.959 27.8014 11.0241 27.9121 11.1543C28.0293 11.2845 28.0879 11.4408 28.0879 11.623C28.0879 11.8053 28.0163 11.9876 27.873 12.1699C27.7363 12.3522 27.554 12.5182 27.3262 12.668C27.0983 12.8112 26.8411 12.9284 26.5547 13.0195C26.2682 13.1107 25.9785 13.1562 25.6855 13.1562C25.1777 13.1562 24.7318 12.9479 24.3477 12.5312C23.9635 12.1081 23.6901 11.4896 23.5273 10.6758C23.4883 10.5456 23.4362 10.4805 23.3711 10.4805C23.293 10.4805 23.2246 10.5195 23.166 10.5977C22.5215 11.4115 21.8346 12.0234 21.1055 12.4336C20.3763 12.8372 19.6569 13.0391 18.9473 13.0391C18.6152 13.0391 18.3158 12.9902 18.0488 12.8926C17.7819 12.7949 17.554 12.6582 17.3652 12.4824C17.1829 12.3001 17.0397 12.082 16.9355 11.8281C16.8379 11.5677 16.7891 11.278 16.7891 10.959C16.7891 10.5098 16.8867 10.0378 17.082 9.54297C17.2839 9.04818 17.554 8.5599 17.8926 8.07812C18.2311 7.59635 18.6217 7.13737 19.0645 6.70117C19.5137 6.26497 19.9824 5.88086 20.4707 5.54883C20.9655 5.2168 21.4668 4.95312 21.9746 4.75781C22.4824 4.5625 22.9674 4.46484 23.4297 4.46484ZM23.1074 7.84375C23.2246 7.6224 23.332 7.46289 23.4297 7.36523C23.5273 7.26107 23.6673 7.19271 23.8496 7.16016C23.9928 7.14062 24.0645 7.09505 24.0645 7.02344C24.0645 6.97135 24.0449 6.91602 24.0059 6.85742C23.8822 6.68815 23.752 6.54167 23.6152 6.41797C23.4785 6.28776 23.2962 6.22266 23.0684 6.22266C22.821 6.22266 22.5443 6.29427 22.2383 6.4375C21.9323 6.58073 21.6198 6.77279 21.3008 7.01367C20.9883 7.24805 20.679 7.51823 20.373 7.82422C20.0736 8.1237 19.8066 8.43294 19.5723 8.75195C19.3379 9.07096 19.1491 9.38672 19.0059 9.69922C18.8626 10.0117 18.791 10.2917 18.791 10.5391C18.791 10.7604 18.8496 10.9329 18.9668 11.0566C19.0905 11.1803 19.2565 11.2422 19.4648 11.2422C19.9987 11.2422 20.5814 10.959 21.2129 10.3926C21.8444 9.82617 22.4759 8.97656 23.1074 7.84375ZM32.4824 13.2637C32.0918 13.2637 31.7012 13.1693 31.3105 12.9805C30.9199 12.7852 30.5456 12.5215 30.1875 12.1895C29.8294 11.8574 29.4974 11.4668 29.1914 11.0176C28.8854 10.5618 28.6185 10.0736 28.3906 9.55273C28.1628 9.02539 27.9837 8.47526 27.8535 7.90234C27.7233 7.32943 27.6582 6.75651 27.6582 6.18359C27.6582 5.74089 27.7493 5.42513 27.9316 5.23633C28.1139 5.04102 28.4102 4.94336 28.8203 4.94336C29.3346 4.94336 29.6211 5.15495 29.6797 5.57812C29.7969 6.47656 29.9596 7.28711 30.168 8.00977C30.3763 8.73242 30.6204 9.34766 30.9004 9.85547C31.1868 10.3633 31.5026 10.7539 31.8477 11.0273C32.1992 11.3008 32.5703 11.4375 32.9609 11.4375C33.2409 11.4375 33.5046 11.3691 33.752 11.2324C33.9993 11.0892 34.2142 10.8906 34.3965 10.6367C34.4616 10.5391 34.5039 10.4447 34.5234 10.3535C34.5495 10.2624 34.569 10.1582 34.582 10.041C34.6146 9.57878 34.6504 9.1263 34.6895 8.68359C34.735 8.23438 34.7773 7.78516 34.8164 7.33594C34.8294 7.14062 34.8555 6.98112 34.8945 6.85742C34.9336 6.73372 34.9922 6.63607 35.0703 6.56445C35.1484 6.49284 35.2493 6.44401 35.373 6.41797C35.5033 6.39193 35.666 6.37891 35.8613 6.37891C36.0827 6.37891 36.2715 6.41146 36.4277 6.47656C36.584 6.53516 36.7109 6.63607 36.8086 6.7793C36.9062 6.91602 36.9746 7.09831 37.0137 7.32617C37.0592 7.54753 37.082 7.82422 37.082 8.15625C37.082 8.44271 37.0592 8.69336 37.0137 8.9082C36.9746 9.11654 36.9258 9.3151 36.8672 9.50391C36.8151 9.6862 36.763 9.86849 36.7109 10.0508C36.6654 10.2266 36.6361 10.4219 36.623 10.6367C36.5905 11.1771 36.5612 11.6458 36.5352 12.043C36.5091 12.4336 36.4863 12.7689 36.4668 13.0488C36.4538 13.3288 36.4408 13.5697 36.4277 13.7715C36.4212 13.9733 36.4147 14.1523 36.4082 14.3086C36.4017 14.4714 36.3984 14.6243 36.3984 14.7676C36.3984 14.9108 36.3984 15.0671 36.3984 15.2363C36.3984 15.5423 36.4115 15.8743 36.4375 16.2324C36.4635 16.597 36.4896 16.9453 36.5156 17.2773C36.5482 17.6094 36.5775 17.9023 36.6035 18.1562C36.6296 18.4102 36.6426 18.5859 36.6426 18.6836C36.6426 18.8073 36.6035 18.9245 36.5254 19.0352C36.4473 19.1458 36.3431 19.2435 36.2129 19.3281C36.0827 19.4128 35.9297 19.4779 35.7539 19.5234C35.5781 19.5755 35.3926 19.6016 35.1973 19.6016C35.028 19.6016 34.8913 19.543 34.7871 19.4258C34.6895 19.3151 34.6341 19.1654 34.6211 18.9766C34.6016 18.7292 34.5853 18.4264 34.5723 18.0684C34.5592 17.7168 34.5462 17.3392 34.5332 16.9355C34.5202 16.5384 34.5104 16.1315 34.5039 15.7148C34.5039 15.3047 34.5007 14.9206 34.4941 14.5625C34.4876 14.2109 34.4844 13.9017 34.4844 13.6348C34.4844 13.3678 34.4844 13.1758 34.4844 13.0586C34.4844 12.9414 34.4714 12.86 34.4453 12.8145C34.4193 12.7624 34.3704 12.7363 34.2988 12.7363C34.2598 12.7363 34.2077 12.7493 34.1426 12.7754C34.0775 12.7949 34.0026 12.8307 33.918 12.8828C33.6901 13.0195 33.459 13.1172 33.2246 13.1758C32.9902 13.2344 32.7428 13.2637 32.4824 13.2637ZM46.5645 10.8613C46.7533 10.6986 46.9388 10.6172 47.1211 10.6172C47.2253 10.6172 47.3197 10.6432 47.4043 10.6953C47.4889 10.7474 47.5833 10.8288 47.6875 10.9395C47.7852 11.0892 47.8535 11.2129 47.8926 11.3105C47.9382 11.4017 47.9609 11.4928 47.9609 11.584C47.9609 11.7793 47.8633 11.9648 47.668 12.1406C47.3555 12.401 47.0169 12.6354 46.6523 12.8438C46.2878 13.0456 45.9069 13.2181 45.5098 13.3613C45.1126 13.5046 44.7025 13.612 44.2793 13.6836C43.8561 13.7617 43.4362 13.8008 43.0195 13.8008C42.4922 13.8008 41.9974 13.7324 41.5352 13.5957C41.0729 13.4655 40.6595 13.2767 40.2949 13.0293C39.9368 12.7819 39.6341 12.4857 39.3867 12.1406C39.1393 11.7891 38.9635 11.3952 38.8594 10.959C38.8008 10.7767 38.7454 10.6595 38.6934 10.6074C38.6478 10.5488 38.5697 10.5195 38.459 10.5195C38.2181 10.5195 38.0326 10.4609 37.9023 10.3438C37.7721 10.2266 37.707 10.0573 37.707 9.83594C37.707 9.74479 37.7135 9.6862 37.7266 9.66016L37.7461 9.46484C37.7786 9.23047 37.8405 9.0612 37.9316 8.95703C38.0293 8.85286 38.179 8.80078 38.3809 8.80078H38.5273C38.8008 8.80078 38.9928 8.67383 39.1035 8.41992C39.3053 7.9707 39.5625 7.56055 39.875 7.18945C40.1875 6.81836 40.5391 6.5026 40.9297 6.24219C41.3203 5.97526 41.737 5.77018 42.1797 5.62695C42.6289 5.47721 43.0846 5.40234 43.5469 5.40234C44.0286 5.40234 44.4779 5.47396 44.8945 5.61719C45.3177 5.75391 45.6855 5.94596 45.998 6.19336C46.3105 6.44076 46.5547 6.73047 46.7305 7.0625C46.9128 7.39453 47.0039 7.7526 47.0039 8.13672C47.0039 8.40365 46.9518 8.64779 46.8477 8.86914C46.7435 9.09049 46.5938 9.28581 46.3984 9.45508C46.2031 9.61784 45.9655 9.7513 45.6855 9.85547C45.4121 9.95964 45.0996 10.028 44.748 10.0605L41.3594 10.4023C41.2292 10.4023 41.1217 10.4349 41.0371 10.5C40.959 10.5651 40.9199 10.653 40.9199 10.7637C40.9199 10.9329 40.9818 11.0957 41.1055 11.252C41.2357 11.4082 41.4049 11.5482 41.6133 11.6719C41.8281 11.7891 42.0723 11.8835 42.3457 11.9551C42.6257 12.0267 42.9121 12.0625 43.2051 12.0625C43.485 12.0625 43.7715 12.0365 44.0645 11.9844C44.3639 11.9258 44.6569 11.8444 44.9434 11.7402C45.2363 11.6361 45.5195 11.5124 45.793 11.3691C46.0664 11.2194 46.3236 11.0501 46.5645 10.8613ZM44.3867 8.3418C44.4844 8.32227 44.569 8.27669 44.6406 8.20508C44.7122 8.12695 44.748 8.03255 44.748 7.92188C44.748 7.82422 44.7122 7.73307 44.6406 7.64844C44.569 7.5638 44.4714 7.48893 44.3477 7.42383C44.224 7.35221 44.0807 7.29688 43.918 7.25781C43.7552 7.21875 43.5827 7.19922 43.4004 7.19922C43.1335 7.19922 42.86 7.23828 42.5801 7.31641C42.3001 7.39453 42.0462 7.4987 41.8184 7.62891C41.5905 7.7526 41.4049 7.89258 41.2617 8.04883C41.1185 8.19857 41.0469 8.34831 41.0469 8.49805C41.0469 8.64779 41.138 8.72266 41.3203 8.72266C41.431 8.72266 41.61 8.70964 41.8574 8.68359C42.1048 8.65755 42.3783 8.62826 42.6777 8.5957C42.9772 8.55664 43.2799 8.51432 43.5859 8.46875C43.8919 8.42318 44.1589 8.38086 44.3867 8.3418ZM53.8789 5.69531C53.638 5.69531 53.4264 5.76042 53.2441 5.89062C53.0618 6.01432 52.9056 6.1901 52.7754 6.41797C52.6452 6.63932 52.5378 6.90299 52.4531 7.20898C52.3685 7.50846 52.3001 7.83724 52.248 8.19531C52.196 8.55339 52.1602 8.92773 52.1406 9.31836C52.1211 9.70898 52.1113 10.1029 52.1113 10.5C52.1113 11.0208 52.1309 11.5352 52.1699 12.043C52.2155 12.5443 52.2383 13.0098 52.2383 13.4395C52.2383 13.7194 52.1341 13.9375 51.9258 14.0938C51.7174 14.2565 51.4212 14.3379 51.0371 14.3379C50.9655 14.3379 50.8841 14.3314 50.793 14.3184C50.7018 14.3053 50.6139 14.2793 50.5293 14.2402C50.4512 14.2012 50.3796 14.1458 50.3145 14.0742C50.2559 14.0091 50.2233 13.918 50.2168 13.8008C50.1582 13.2279 50.0736 12.6419 49.9629 12.043C49.8522 11.444 49.7122 10.8483 49.543 10.2559C49.3802 9.6569 49.1816 9.06445 48.9473 8.47852C48.7194 7.89258 48.4557 7.31966 48.1562 6.75977C48.1042 6.66211 48.0586 6.57096 48.0195 6.48633C47.987 6.40169 47.9707 6.32031 47.9707 6.24219C47.9707 6.14453 48.013 6.04036 48.0977 5.92969C48.1888 5.8125 48.2995 5.70508 48.4297 5.60742C48.5664 5.50977 48.7129 5.43164 48.8691 5.37305C49.0319 5.30794 49.1882 5.27539 49.3379 5.27539C49.5853 5.27539 49.8034 5.44792 49.9922 5.79297C50.181 6.13151 50.3568 6.67513 50.5195 7.42383C50.5521 7.55404 50.5781 7.64518 50.5977 7.69727C50.6172 7.74935 50.6432 7.77539 50.6758 7.77539C50.7474 7.77539 50.793 7.66471 50.8125 7.44336C50.8906 6.82487 51.0241 6.29427 51.2129 5.85156C51.4017 5.40234 51.6361 5.03451 51.916 4.74805C52.2025 4.45508 52.528 4.24023 52.8926 4.10352C53.2637 3.9668 53.6706 3.89844 54.1133 3.89844C54.3672 3.89844 54.6243 3.92122 54.8848 3.9668C55.1452 4.01237 55.3796 4.08073 55.5879 4.17188C55.7962 4.26302 55.9655 4.3737 56.0957 4.50391C56.2259 4.63411 56.291 4.7806 56.291 4.94336C56.291 5.06055 56.265 5.20052 56.2129 5.36328C56.1673 5.51953 56.1055 5.67253 56.0273 5.82227C55.9492 5.96549 55.8581 6.08919 55.7539 6.19336C55.6562 6.29102 55.5553 6.33984 55.4512 6.33984C55.334 6.33984 55.2201 6.30729 55.1094 6.24219C54.9987 6.17057 54.8783 6.0957 54.748 6.01758C54.6243 5.93945 54.4909 5.86784 54.3477 5.80273C54.2109 5.73112 54.0547 5.69531 53.8789 5.69531ZM65.0312 14.2207C64.3216 14.2207 63.6673 14.1003 63.0684 13.8594C62.4759 13.6185 61.9648 13.2832 61.5352 12.8535C61.1055 12.4173 60.7702 11.8997 60.5293 11.3008C60.2884 10.7018 60.168 10.041 60.168 9.31836C60.168 8.92773 60.2005 8.55339 60.2656 8.19531C60.3372 7.83073 60.4316 7.49219 60.5488 7.17969C60.6009 7.05599 60.627 6.9681 60.627 6.91602C60.627 6.85091 60.6107 6.78906 60.5781 6.73047C60.5456 6.67188 60.5098 6.61003 60.4707 6.54492C60.4316 6.47982 60.3958 6.41146 60.3633 6.33984C60.3307 6.26823 60.3145 6.18685 60.3145 6.0957C60.3145 5.82227 60.4707 5.55534 60.7832 5.29492C61.0957 5.02799 61.5091 4.79362 62.0234 4.5918C62.5378 4.38346 63.1204 4.21745 63.7715 4.09375C64.4225 3.96354 65.0898 3.89844 65.7734 3.89844C66.6133 3.89844 67.3685 4.00586 68.0391 4.2207C68.7161 4.43555 69.2891 4.74479 69.7578 5.14844C70.2331 5.54557 70.5977 6.0306 70.8516 6.60352C71.1055 7.17643 71.2324 7.82096 71.2324 8.53711C71.2324 9.33789 71.0729 10.0866 70.7539 10.7832C70.4349 11.4733 69.9954 12.0723 69.4355 12.5801C68.8822 13.0879 68.2279 13.4883 67.4727 13.7812C66.7174 14.0742 65.9036 14.2207 65.0312 14.2207ZM69.2695 8.91797C69.2695 8.41016 69.1816 7.95443 69.0059 7.55078C68.8301 7.14714 68.5762 6.80859 68.2441 6.53516C67.9121 6.25521 67.502 6.04362 67.0137 5.90039C66.5319 5.75065 65.985 5.67578 65.373 5.67578C64.2988 5.67578 63.4883 5.94922 62.9414 6.49609C62.401 7.03646 62.1309 7.84375 62.1309 8.91797C62.1309 9.4388 62.2122 9.91732 62.375 10.3535C62.5378 10.7832 62.7656 11.1543 63.0586 11.4668C63.3516 11.7728 63.6999 12.0137 64.1035 12.1895C64.5137 12.3587 64.9629 12.4434 65.4512 12.4434C66.0111 12.4434 66.5254 12.3587 66.9941 12.1895C67.4629 12.0137 67.8633 11.7695 68.1953 11.457C68.5339 11.1445 68.7975 10.7734 68.9863 10.3438C69.1751 9.90755 69.2695 9.43229 69.2695 8.91797ZM86.0078 3.76172C86.0078 4.01562 85.9232 4.25326 85.7539 4.47461C85.5911 4.69596 85.3828 4.91081 85.1289 5.11914C84.8815 5.32747 84.6113 5.5293 84.3184 5.72461C84.0254 5.91992 83.752 6.11849 83.498 6.32031C83.2507 6.52214 83.0423 6.72721 82.873 6.93555C82.7103 7.14388 82.6289 7.36523 82.6289 7.59961C82.6289 7.79492 82.7656 7.98372 83.0391 8.16602C83.3125 8.34831 83.7064 8.5306 84.2207 8.71289C84.735 8.89518 85.3568 9.08398 86.0859 9.2793C86.8151 9.4681 87.6354 9.66992 88.5469 9.88477C89.0026 10.0085 89.2305 10.2396 89.2305 10.5781C89.2305 10.7083 89.1979 10.8353 89.1328 10.959C89.0742 11.0827 88.9928 11.1934 88.8887 11.291C88.7845 11.3822 88.6641 11.457 88.5273 11.5156C88.3971 11.5742 88.2637 11.6035 88.127 11.6035C87.8014 11.6035 87.4303 11.5547 87.0137 11.457C86.6035 11.3594 86.1771 11.2389 85.7344 11.0957C85.2917 10.9525 84.849 10.7962 84.4062 10.627C83.9635 10.4512 83.5469 10.2917 83.1562 10.1484C82.7721 10.0052 82.4303 9.88477 82.1309 9.78711C81.8379 9.68945 81.6165 9.64062 81.4668 9.64062C81.3496 9.64062 81.2357 9.69596 81.125 9.80664C81.0208 9.91081 80.9232 10.0573 80.832 10.2461C80.7474 10.4349 80.6758 10.6595 80.6172 10.9199C80.5586 11.1738 80.5163 11.4538 80.4902 11.7598C80.4577 12.1048 80.334 12.362 80.1191 12.5312C79.9108 12.694 79.6211 12.7754 79.25 12.7754C78.8659 12.7754 78.6445 12.5964 78.5859 12.2383C78.4883 11.6914 78.3678 11.1348 78.2246 10.5684C78.0879 10.002 77.9349 9.43555 77.7656 8.86914C77.6029 8.30273 77.4238 7.74284 77.2285 7.18945C77.0397 6.63607 76.8411 6.10547 76.6328 5.59766C76.5807 5.48698 76.5417 5.38607 76.5156 5.29492C76.4961 5.19727 76.4863 5.09961 76.4863 5.00195C76.4863 4.91732 76.5124 4.83919 76.5645 4.76758C76.6165 4.68945 76.6882 4.62109 76.7793 4.5625C76.8704 4.50391 76.9746 4.45833 77.0918 4.42578C77.2155 4.39323 77.3424 4.37695 77.4727 4.37695C77.7396 4.37695 77.9512 4.43229 78.1074 4.54297C78.2637 4.65365 78.4232 4.81966 78.5859 5.04102C78.6641 5.14518 78.7389 5.28516 78.8105 5.46094C78.8822 5.63021 78.9505 5.8125 79.0156 6.00781C79.0807 6.20312 79.1458 6.40169 79.2109 6.60352C79.276 6.79883 79.3379 6.97786 79.3965 7.14062C79.4616 7.29688 79.5234 7.42708 79.582 7.53125C79.6471 7.62891 79.709 7.67773 79.7676 7.67773C79.8197 7.67773 79.862 7.65495 79.8945 7.60938C79.9336 7.5638 79.9792 7.49544 80.0312 7.4043C80.3698 6.70117 80.7409 6.0599 81.1445 5.48047C81.5482 4.89453 81.9616 4.39648 82.3848 3.98633C82.8079 3.56966 83.2311 3.2474 83.6543 3.01953C84.084 2.79167 84.4941 2.67773 84.8848 2.67773C85.041 2.67773 85.1875 2.70703 85.3242 2.76562C85.4609 2.81771 85.5781 2.89258 85.6758 2.99023C85.7799 3.08789 85.8613 3.20508 85.9199 3.3418C85.9785 3.47201 86.0078 3.61198 86.0078 3.76172ZM96.5449 10.8613C96.7337 10.6986 96.9193 10.6172 97.1016 10.6172C97.2057 10.6172 97.3001 10.6432 97.3848 10.6953C97.4694 10.7474 97.5638 10.8288 97.668 10.9395C97.7656 11.0892 97.834 11.2129 97.873 11.3105C97.9186 11.4017 97.9414 11.4928 97.9414 11.584C97.9414 11.7793 97.8438 11.9648 97.6484 12.1406C97.3359 12.401 96.9974 12.6354 96.6328 12.8438C96.2682 13.0456 95.8874 13.2181 95.4902 13.3613C95.0931 13.5046 94.6829 13.612 94.2598 13.6836C93.8366 13.7617 93.4167 13.8008 93 13.8008C92.4727 13.8008 91.9779 13.7324 91.5156 13.5957C91.0534 13.4655 90.64 13.2767 90.2754 13.0293C89.9173 12.7819 89.6146 12.4857 89.3672 12.1406C89.1198 11.7891 88.944 11.3952 88.8398 10.959C88.7812 10.7767 88.7259 10.6595 88.6738 10.6074C88.6283 10.5488 88.5501 10.5195 88.4395 10.5195C88.1986 10.5195 88.013 10.4609 87.8828 10.3438C87.7526 10.2266 87.6875 10.0573 87.6875 9.83594C87.6875 9.74479 87.694 9.6862 87.707 9.66016L87.7266 9.46484C87.7591 9.23047 87.821 9.0612 87.9121 8.95703C88.0098 8.85286 88.1595 8.80078 88.3613 8.80078H88.5078C88.7812 8.80078 88.9733 8.67383 89.084 8.41992C89.2858 7.9707 89.543 7.56055 89.8555 7.18945C90.168 6.81836 90.5195 6.5026 90.9102 6.24219C91.3008 5.97526 91.7174 5.77018 92.1602 5.62695C92.6094 5.47721 93.0651 5.40234 93.5273 5.40234C94.0091 5.40234 94.4583 5.47396 94.875 5.61719C95.2982 5.75391 95.666 5.94596 95.9785 6.19336C96.291 6.44076 96.5352 6.73047 96.7109 7.0625C96.8932 7.39453 96.9844 7.7526 96.9844 8.13672C96.9844 8.40365 96.9323 8.64779 96.8281 8.86914C96.724 9.09049 96.5742 9.28581 96.3789 9.45508C96.1836 9.61784 95.946 9.7513 95.666 9.85547C95.3926 9.95964 95.0801 10.028 94.7285 10.0605L91.3398 10.4023C91.2096 10.4023 91.1022 10.4349 91.0176 10.5C90.9395 10.5651 90.9004 10.653 90.9004 10.7637C90.9004 10.9329 90.9622 11.0957 91.0859 11.252C91.2161 11.4082 91.3854 11.5482 91.5938 11.6719C91.8086 11.7891 92.0527 11.8835 92.3262 11.9551C92.6061 12.0267 92.8926 12.0625 93.1855 12.0625C93.4655 12.0625 93.752 12.0365 94.0449 11.9844C94.3444 11.9258 94.6374 11.8444 94.9238 11.7402C95.2168 11.6361 95.5 11.5124 95.7734 11.3691C96.0469 11.2194 96.304 11.0501 96.5449 10.8613ZM94.3672 8.3418C94.4648 8.32227 94.5495 8.27669 94.6211 8.20508C94.6927 8.12695 94.7285 8.03255 94.7285 7.92188C94.7285 7.82422 94.6927 7.73307 94.6211 7.64844C94.5495 7.5638 94.4518 7.48893 94.3281 7.42383C94.2044 7.35221 94.0612 7.29688 93.8984 7.25781C93.7357 7.21875 93.5632 7.19922 93.3809 7.19922C93.1139 7.19922 92.8405 7.23828 92.5605 7.31641C92.2806 7.39453 92.0267 7.4987 91.7988 7.62891C91.571 7.7526 91.3854 7.89258 91.2422 8.04883C91.099 8.19857 91.0273 8.34831 91.0273 8.49805C91.0273 8.64779 91.1185 8.72266 91.3008 8.72266C91.4115 8.72266 91.5905 8.70964 91.8379 8.68359C92.0853 8.65755 92.3587 8.62826 92.6582 8.5957C92.9577 8.55664 93.2604 8.51432 93.5664 8.46875C93.8724 8.42318 94.1393 8.38086 94.3672 8.3418ZM102.639 13.2637C102.248 13.2637 101.857 13.1693 101.467 12.9805C101.076 12.7852 100.702 12.5215 100.344 12.1895C99.9857 11.8574 99.6536 11.4668 99.3477 11.0176C99.0417 10.5618 98.7747 10.0736 98.5469 9.55273C98.319 9.02539 98.14 8.47526 98.0098 7.90234C97.8796 7.32943 97.8145 6.75651 97.8145 6.18359C97.8145 5.74089 97.9056 5.42513 98.0879 5.23633C98.2702 5.04102 98.5664 4.94336 98.9766 4.94336C99.4909 4.94336 99.7773 5.15495 99.8359 5.57812C99.9531 6.47656 100.116 7.28711 100.324 8.00977C100.533 8.73242 100.777 9.34766 101.057 9.85547C101.343 10.3633 101.659 10.7539 102.004 11.0273C102.355 11.3008 102.727 11.4375 103.117 11.4375C103.397 11.4375 103.661 11.3691 103.908 11.2324C104.156 11.0892 104.37 10.8906 104.553 10.6367C104.618 10.5391 104.66 10.4447 104.68 10.3535C104.706 10.2624 104.725 10.1582 104.738 10.041C104.771 9.57878 104.807 9.1263 104.846 8.68359C104.891 8.23438 104.934 7.78516 104.973 7.33594C104.986 7.14062 105.012 6.98112 105.051 6.85742C105.09 6.73372 105.148 6.63607 105.227 6.56445C105.305 6.49284 105.406 6.44401 105.529 6.41797C105.66 6.39193 105.822 6.37891 106.018 6.37891C106.239 6.37891 106.428 6.41146 106.584 6.47656C106.74 6.53516 106.867 6.63607 106.965 6.7793C107.062 6.91602 107.131 7.09831 107.17 7.32617C107.215 7.54753 107.238 7.82422 107.238 8.15625C107.238 8.44271 107.215 8.69336 107.17 8.9082C107.131 9.11654 107.082 9.3151 107.023 9.50391C106.971 9.6862 106.919 9.86849 106.867 10.0508C106.822 10.2266 106.792 10.4219 106.779 10.6367C106.747 11.1771 106.717 11.6458 106.691 12.043C106.665 12.4336 106.643 12.7689 106.623 13.0488C106.61 13.3288 106.597 13.5697 106.584 13.7715C106.577 13.9733 106.571 14.1523 106.564 14.3086C106.558 14.4714 106.555 14.6243 106.555 14.7676C106.555 14.9108 106.555 15.0671 106.555 15.2363C106.555 15.5423 106.568 15.8743 106.594 16.2324C106.62 16.597 106.646 16.9453 106.672 17.2773C106.704 17.6094 106.734 17.9023 106.76 18.1562C106.786 18.4102 106.799 18.5859 106.799 18.6836C106.799 18.8073 106.76 18.9245 106.682 19.0352C106.604 19.1458 106.499 19.2435 106.369 19.3281C106.239 19.4128 106.086 19.4779 105.91 19.5234C105.734 19.5755 105.549 19.6016 105.354 19.6016C105.184 19.6016 105.048 19.543 104.943 19.4258C104.846 19.3151 104.79 19.1654 104.777 18.9766C104.758 18.7292 104.742 18.4264 104.729 18.0684C104.715 17.7168 104.702 17.3392 104.689 16.9355C104.676 16.5384 104.667 16.1315 104.66 15.7148C104.66 15.3047 104.657 14.9206 104.65 14.5625C104.644 14.2109 104.641 13.9017 104.641 13.6348C104.641 13.3678 104.641 13.1758 104.641 13.0586C104.641 12.9414 104.628 12.86 104.602 12.8145C104.576 12.7624 104.527 12.7363 104.455 12.7363C104.416 12.7363 104.364 12.7493 104.299 12.7754C104.234 12.7949 104.159 12.8307 104.074 12.8828C103.846 13.0195 103.615 13.1172 103.381 13.1758C103.146 13.2344 102.899 13.2637 102.639 13.2637ZM110.842 4.52344C111.278 4.52344 111.727 4.58203 112.189 4.69922C112.652 4.8099 113.075 4.95638 113.459 5.13867C113.843 5.31445 114.159 5.51302 114.406 5.73438C114.654 5.95573 114.777 6.17057 114.777 6.37891C114.777 6.48307 114.732 6.60026 114.641 6.73047C114.549 6.85417 114.439 6.97461 114.309 7.0918C114.178 7.20247 114.035 7.29688 113.879 7.375C113.729 7.44661 113.596 7.48242 113.479 7.48242C113.322 7.48242 113.146 7.41732 112.951 7.28711C112.762 7.1569 112.551 7.01367 112.316 6.85742C112.089 6.69466 111.838 6.54818 111.564 6.41797C111.291 6.28776 110.995 6.22266 110.676 6.22266C110.467 6.22266 110.295 6.27474 110.158 6.37891C110.028 6.47656 109.963 6.61654 109.963 6.79883C109.963 6.96159 110.041 7.1276 110.197 7.29688C110.354 7.45964 110.559 7.62891 110.812 7.80469C111.073 7.98047 111.366 8.16602 111.691 8.36133C112.017 8.55664 112.349 8.76497 112.688 8.98633C113.033 9.20768 113.368 9.44857 113.693 9.70898C114.019 9.9694 114.309 10.2526 114.562 10.5586C114.823 10.8646 115.031 11.1999 115.188 11.5645C115.344 11.9225 115.422 12.3132 115.422 12.7363C115.422 13.1009 115.357 13.4329 115.227 13.7324C115.096 14.0319 114.911 14.2891 114.67 14.5039C114.429 14.7188 114.143 14.8848 113.811 15.002C113.479 15.1191 113.114 15.1777 112.717 15.1777C112.215 15.1777 111.753 15.0996 111.33 14.9434C110.907 14.7936 110.542 14.5853 110.236 14.3184C109.93 14.0514 109.689 13.7324 109.514 13.3613C109.344 12.9902 109.26 12.5833 109.26 12.1406C109.26 11.5677 109.361 11.151 109.562 10.8906C109.771 10.6302 110.096 10.5 110.539 10.5C110.812 10.5 111.031 10.5521 111.193 10.6562C111.356 10.7604 111.438 10.8874 111.438 11.0371C111.438 11.1152 111.424 11.1966 111.398 11.2812C111.372 11.3594 111.343 11.444 111.311 11.5352C111.285 11.6198 111.258 11.7109 111.232 11.8086C111.213 11.9062 111.203 12.0039 111.203 12.1016C111.203 12.2708 111.242 12.4336 111.32 12.5898C111.398 12.7461 111.503 12.8828 111.633 13C111.77 13.1237 111.926 13.2214 112.102 13.293C112.277 13.3646 112.463 13.4004 112.658 13.4004C113.179 13.4004 113.439 13.1855 113.439 12.7559C113.439 12.4173 113.306 12.0983 113.039 11.7988C112.772 11.4928 112.437 11.1966 112.033 10.9102C111.63 10.6172 111.193 10.3242 110.725 10.0312C110.262 9.73828 109.829 9.43229 109.426 9.11328C109.022 8.79427 108.687 8.45573 108.42 8.09766C108.153 7.73307 108.02 7.33919 108.02 6.91602C108.02 6.56445 108.091 6.24219 108.234 5.94922C108.384 5.65625 108.586 5.4056 108.84 5.19727C109.094 4.98242 109.39 4.81641 109.729 4.69922C110.074 4.58203 110.445 4.52344 110.842 4.52344Z" fill="#27AAFF"/>
</svg>
