<svg width="122" height="28" viewBox="0 0 122 28" fill="none" xmlns="http://www.w3.org/2000/svg">
<g filter="url(#filter0_d)">
<path d="M8.02148 14.123C8.02148 13.9082 8.01172 13.6283 7.99219 13.2832C7.97917 12.9382 7.95964 12.5573 7.93359 12.1406C7.90755 11.724 7.87826 11.2812 7.8457 10.8125C7.81315 10.3438 7.77734 9.87826 7.73828 9.41602C7.69922 8.95378 7.66016 8.50781 7.62109 8.07812C7.58854 7.64193 7.55599 7.24805 7.52344 6.89648C7.47135 6.39518 7.39974 6.02734 7.30859 5.79297C7.21745 5.55859 7.06771 5.44141 6.85938 5.44141C6.66406 5.44141 6.53385 5.49674 6.46875 5.60742C6.41016 5.7181 6.37435 5.85482 6.36133 6.01758C6.35482 6.18034 6.35156 6.35938 6.35156 6.55469C6.35807 6.74349 6.32878 6.91927 6.26367 7.08203C6.20508 7.24479 6.09115 7.38151 5.92188 7.49219C5.7526 7.60286 5.49219 7.6582 5.14062 7.6582C4.89323 7.6582 4.68164 7.55729 4.50586 7.35547C4.33008 7.14714 4.24219 6.84766 4.24219 6.45703C4.24219 5.91016 4.40495 5.41536 4.73047 4.97266C5.04948 4.52344 5.50195 4.14258 6.08789 3.83008C6.67383 3.51107 7.38021 3.26367 8.20703 3.08789C9.03385 2.91211 9.95182 2.82422 10.9609 2.82422C11.6836 2.82422 12.3509 2.9056 12.9629 3.06836C13.5749 3.22461 14.1022 3.44596 14.5449 3.73242C14.9941 4.01237 15.3457 4.34766 15.5996 4.73828C15.8535 5.1224 15.9805 5.54232 15.9805 5.99805C15.9805 6.51237 15.8307 7.00391 15.5312 7.47266C15.2318 7.94141 14.8184 8.37109 14.291 8.76172C13.7702 9.15234 13.1549 9.49414 12.4453 9.78711C11.7357 10.0736 10.974 10.2982 10.1602 10.4609C9.93229 10.5 9.81836 10.64 9.81836 10.8809C9.81836 11.0436 9.82812 11.2487 9.84766 11.4961C9.8737 11.737 9.89648 11.9909 9.91602 12.2578C9.94206 12.5247 9.96484 12.7884 9.98438 13.0488C10.0104 13.3092 10.0234 13.5404 10.0234 13.7422C10.0234 14.1068 9.9388 14.3672 9.76953 14.5234C9.60026 14.6797 9.34961 14.7578 9.01758 14.7578C8.70508 14.7578 8.46094 14.7025 8.28516 14.5918C8.10938 14.4876 8.02148 14.3314 8.02148 14.123ZM13.959 6.28125C13.959 6.0599 13.8646 5.84831 13.6758 5.64648C13.487 5.44466 13.2331 5.26562 12.9141 5.10938C12.5951 4.95312 12.224 4.82943 11.8008 4.73828C11.3841 4.64714 10.9447 4.60156 10.4824 4.60156C10.2546 4.60156 10.0625 4.61133 9.90625 4.63086C9.75651 4.64388 9.63607 4.66992 9.54492 4.70898C9.45378 4.74805 9.38867 4.80013 9.34961 4.86523C9.31706 4.92383 9.30078 5.00195 9.30078 5.09961C9.30078 5.16471 9.31055 5.31771 9.33008 5.55859C9.34961 5.79297 9.37565 6.06641 9.4082 6.37891C9.44076 6.69141 9.47331 7.02018 9.50586 7.36523C9.54492 7.70378 9.58398 8.00977 9.62305 8.2832C9.64258 8.48503 9.66862 8.61849 9.70117 8.68359C9.74023 8.7487 9.79883 8.78125 9.87695 8.78125C10.0983 8.78125 10.3522 8.74544 10.6387 8.67383C10.9251 8.5957 11.2181 8.49479 11.5176 8.37109C11.8236 8.24089 12.1198 8.0944 12.4062 7.93164C12.6992 7.76237 12.9596 7.58659 13.1875 7.4043C13.4219 7.21549 13.6074 7.02669 13.7441 6.83789C13.8874 6.64258 13.959 6.45703 13.959 6.28125ZM16.0781 1.87695C16.0781 1.53841 16.1758 1.29753 16.3711 1.1543C16.5664 1.01107 16.8887 0.939453 17.3379 0.939453C17.4941 0.939453 17.6309 0.955729 17.748 0.988281C17.8652 1.02083 17.9629 1.07617 18.041 1.1543C18.1191 1.22591 18.181 1.32682 18.2266 1.45703C18.2786 1.58073 18.321 1.74023 18.3535 1.93555C18.4382 2.51497 18.5228 3.1237 18.6074 3.76172C18.6986 4.39323 18.7832 5.02474 18.8613 5.65625C18.946 6.28125 19.0241 6.89323 19.0957 7.49219C19.1673 8.08464 19.2292 8.63802 19.2812 9.15234C19.3398 9.66016 19.3822 10.1126 19.4082 10.5098C19.4408 10.9004 19.457 11.2096 19.457 11.4375C19.457 11.6719 19.4342 11.8704 19.3887 12.0332C19.3496 12.196 19.278 12.3262 19.1738 12.4238C19.0762 12.5215 18.946 12.5931 18.7832 12.6387C18.627 12.6777 18.4316 12.6973 18.1973 12.6973C17.9694 12.6973 17.7871 12.6387 17.6504 12.5215C17.5202 12.4043 17.4551 12.2253 17.4551 11.9844C17.4551 11.737 17.4355 11.4082 17.3965 10.998C17.3574 10.5814 17.3053 10.1191 17.2402 9.61133C17.1751 9.10352 17.1003 8.56315 17.0156 7.99023C16.9375 7.41732 16.8529 6.85091 16.7617 6.29102C16.6771 5.73112 16.5924 5.19401 16.5078 4.67969C16.4297 4.15885 16.3581 3.69987 16.293 3.30273C16.2279 2.89909 16.1758 2.57031 16.1367 2.31641C16.0977 2.05599 16.0781 1.90951 16.0781 1.87695ZM27.1523 4.46484C27.5104 4.46484 27.8555 4.52018 28.1875 4.63086C28.5195 4.74154 28.8125 4.89453 29.0664 5.08984C29.3203 5.28516 29.5221 5.51953 29.6719 5.79297C29.8281 6.06641 29.9062 6.36914 29.9062 6.70117C29.9062 6.83789 29.8737 6.97135 29.8086 7.10156C29.75 7.22526 29.6686 7.33594 29.5645 7.43359C29.4603 7.52474 29.3398 7.59961 29.2031 7.6582C29.0729 7.71029 28.9362 7.73633 28.793 7.73633C28.7799 7.73633 28.7669 7.73958 28.7539 7.74609C28.7474 7.74609 28.7376 7.74609 28.7246 7.74609C28.7116 7.7526 28.6986 7.75586 28.6855 7.75586L28.7246 8.53711C28.7507 9.4681 28.8809 10.1484 29.1152 10.5781C29.3561 11.0078 29.6686 11.2227 30.0527 11.2227C30.1895 11.2227 30.3099 11.2096 30.4141 11.1836C30.5247 11.1576 30.6257 11.1283 30.7168 11.0957C30.8145 11.0566 30.9056 11.0241 30.9902 10.998C31.0749 10.972 31.1595 10.959 31.2441 10.959C31.3939 10.959 31.5241 11.0241 31.6348 11.1543C31.752 11.2845 31.8105 11.4408 31.8105 11.623C31.8105 11.8053 31.7389 11.9876 31.5957 12.1699C31.459 12.3522 31.2767 12.5182 31.0488 12.668C30.821 12.8112 30.5638 12.9284 30.2773 13.0195C29.9909 13.1107 29.7012 13.1562 29.4082 13.1562C28.9004 13.1562 28.4544 12.9479 28.0703 12.5312C27.6862 12.1081 27.4128 11.4896 27.25 10.6758C27.2109 10.5456 27.1589 10.4805 27.0938 10.4805C27.0156 10.4805 26.9473 10.5195 26.8887 10.5977C26.2441 11.4115 25.5573 12.0234 24.8281 12.4336C24.099 12.8372 23.3796 13.0391 22.6699 13.0391C22.3379 13.0391 22.0384 12.9902 21.7715 12.8926C21.5046 12.7949 21.2767 12.6582 21.0879 12.4824C20.9056 12.3001 20.7624 12.082 20.6582 11.8281C20.5605 11.5677 20.5117 11.278 20.5117 10.959C20.5117 10.5098 20.6094 10.0378 20.8047 9.54297C21.0065 9.04818 21.2767 8.5599 21.6152 8.07812C21.9538 7.59635 22.3444 7.13737 22.7871 6.70117C23.2363 6.26497 23.7051 5.88086 24.1934 5.54883C24.6882 5.2168 25.1895 4.95312 25.6973 4.75781C26.2051 4.5625 26.6901 4.46484 27.1523 4.46484ZM26.8301 7.84375C26.9473 7.6224 27.0547 7.46289 27.1523 7.36523C27.25 7.26107 27.39 7.19271 27.5723 7.16016C27.7155 7.14062 27.7871 7.09505 27.7871 7.02344C27.7871 6.97135 27.7676 6.91602 27.7285 6.85742C27.6048 6.68815 27.4746 6.54167 27.3379 6.41797C27.2012 6.28776 27.0189 6.22266 26.791 6.22266C26.5436 6.22266 26.2669 6.29427 25.9609 6.4375C25.6549 6.58073 25.3424 6.77279 25.0234 7.01367C24.7109 7.24805 24.4017 7.51823 24.0957 7.82422C23.7962 8.1237 23.5293 8.43294 23.2949 8.75195C23.0605 9.07096 22.8717 9.38672 22.7285 9.69922C22.5853 10.0117 22.5137 10.2917 22.5137 10.5391C22.5137 10.7604 22.5723 10.9329 22.6895 11.0566C22.8132 11.1803 22.9792 11.2422 23.1875 11.2422C23.7214 11.2422 24.304 10.959 24.9355 10.3926C25.5671 9.82617 26.1986 8.97656 26.8301 7.84375ZM36.2051 13.2637C35.8145 13.2637 35.4238 13.1693 35.0332 12.9805C34.6426 12.7852 34.2682 12.5215 33.9102 12.1895C33.5521 11.8574 33.2201 11.4668 32.9141 11.0176C32.6081 10.5618 32.3411 10.0736 32.1133 9.55273C31.8854 9.02539 31.7064 8.47526 31.5762 7.90234C31.446 7.32943 31.3809 6.75651 31.3809 6.18359C31.3809 5.74089 31.472 5.42513 31.6543 5.23633C31.8366 5.04102 32.1328 4.94336 32.543 4.94336C33.0573 4.94336 33.3438 5.15495 33.4023 5.57812C33.5195 6.47656 33.6823 7.28711 33.8906 8.00977C34.099 8.73242 34.3431 9.34766 34.623 9.85547C34.9095 10.3633 35.2253 10.7539 35.5703 11.0273C35.9219 11.3008 36.293 11.4375 36.6836 11.4375C36.9635 11.4375 37.2272 11.3691 37.4746 11.2324C37.722 11.0892 37.9368 10.8906 38.1191 10.6367C38.1842 10.5391 38.2266 10.4447 38.2461 10.3535C38.2721 10.2624 38.2917 10.1582 38.3047 10.041C38.3372 9.57878 38.373 9.1263 38.4121 8.68359C38.4577 8.23438 38.5 7.78516 38.5391 7.33594C38.5521 7.14062 38.5781 6.98112 38.6172 6.85742C38.6562 6.73372 38.7148 6.63607 38.793 6.56445C38.8711 6.49284 38.972 6.44401 39.0957 6.41797C39.2259 6.39193 39.3887 6.37891 39.584 6.37891C39.8053 6.37891 39.9941 6.41146 40.1504 6.47656C40.3066 6.53516 40.4336 6.63607 40.5312 6.7793C40.6289 6.91602 40.6973 7.09831 40.7363 7.32617C40.7819 7.54753 40.8047 7.82422 40.8047 8.15625C40.8047 8.44271 40.7819 8.69336 40.7363 8.9082C40.6973 9.11654 40.6484 9.3151 40.5898 9.50391C40.5378 9.6862 40.4857 9.86849 40.4336 10.0508C40.388 10.2266 40.3587 10.4219 40.3457 10.6367C40.3132 11.1771 40.2839 11.6458 40.2578 12.043C40.2318 12.4336 40.209 12.7689 40.1895 13.0488C40.1764 13.3288 40.1634 13.5697 40.1504 13.7715C40.1439 13.9733 40.1374 14.1523 40.1309 14.3086C40.1243 14.4714 40.1211 14.6243 40.1211 14.7676C40.1211 14.9108 40.1211 15.0671 40.1211 15.2363C40.1211 15.5423 40.1341 15.8743 40.1602 16.2324C40.1862 16.597 40.2122 16.9453 40.2383 17.2773C40.2708 17.6094 40.3001 17.9023 40.3262 18.1562C40.3522 18.4102 40.3652 18.5859 40.3652 18.6836C40.3652 18.8073 40.3262 18.9245 40.248 19.0352C40.1699 19.1458 40.0658 19.2435 39.9355 19.3281C39.8053 19.4128 39.6523 19.4779 39.4766 19.5234C39.3008 19.5755 39.1152 19.6016 38.9199 19.6016C38.7507 19.6016 38.6139 19.543 38.5098 19.4258C38.4121 19.3151 38.3568 19.1654 38.3438 18.9766C38.3242 18.7292 38.3079 18.4264 38.2949 18.0684C38.2819 17.7168 38.2689 17.3392 38.2559 16.9355C38.2428 16.5384 38.2331 16.1315 38.2266 15.7148C38.2266 15.3047 38.2233 14.9206 38.2168 14.5625C38.2103 14.2109 38.207 13.9017 38.207 13.6348C38.207 13.3678 38.207 13.1758 38.207 13.0586C38.207 12.9414 38.194 12.86 38.168 12.8145C38.1419 12.7624 38.0931 12.7363 38.0215 12.7363C37.9824 12.7363 37.9303 12.7493 37.8652 12.7754C37.8001 12.7949 37.7253 12.8307 37.6406 12.8828C37.4128 13.0195 37.1816 13.1172 36.9473 13.1758C36.7129 13.2344 36.4655 13.2637 36.2051 13.2637ZM50.2871 10.8613C50.4759 10.6986 50.6615 10.6172 50.8438 10.6172C50.9479 10.6172 51.0423 10.6432 51.127 10.6953C51.2116 10.7474 51.306 10.8288 51.4102 10.9395C51.5078 11.0892 51.5762 11.2129 51.6152 11.3105C51.6608 11.4017 51.6836 11.4928 51.6836 11.584C51.6836 11.7793 51.5859 11.9648 51.3906 12.1406C51.0781 12.401 50.7396 12.6354 50.375 12.8438C50.0104 13.0456 49.6296 13.2181 49.2324 13.3613C48.8353 13.5046 48.4251 13.612 48.002 13.6836C47.5788 13.7617 47.1589 13.8008 46.7422 13.8008C46.2148 13.8008 45.7201 13.7324 45.2578 13.5957C44.7956 13.4655 44.3822 13.2767 44.0176 13.0293C43.6595 12.7819 43.3568 12.4857 43.1094 12.1406C42.862 11.7891 42.6862 11.3952 42.582 10.959C42.5234 10.7767 42.4681 10.6595 42.416 10.6074C42.3704 10.5488 42.2923 10.5195 42.1816 10.5195C41.9408 10.5195 41.7552 10.4609 41.625 10.3438C41.4948 10.2266 41.4297 10.0573 41.4297 9.83594C41.4297 9.74479 41.4362 9.6862 41.4492 9.66016L41.4688 9.46484C41.5013 9.23047 41.5632 9.0612 41.6543 8.95703C41.752 8.85286 41.9017 8.80078 42.1035 8.80078H42.25C42.5234 8.80078 42.7155 8.67383 42.8262 8.41992C43.028 7.9707 43.2852 7.56055 43.5977 7.18945C43.9102 6.81836 44.2617 6.5026 44.6523 6.24219C45.043 5.97526 45.4596 5.77018 45.9023 5.62695C46.3516 5.47721 46.8073 5.40234 47.2695 5.40234C47.7513 5.40234 48.2005 5.47396 48.6172 5.61719C49.0404 5.75391 49.4082 5.94596 49.7207 6.19336C50.0332 6.44076 50.2773 6.73047 50.4531 7.0625C50.6354 7.39453 50.7266 7.7526 50.7266 8.13672C50.7266 8.40365 50.6745 8.64779 50.5703 8.86914C50.4661 9.09049 50.3164 9.28581 50.1211 9.45508C49.9258 9.61784 49.6882 9.7513 49.4082 9.85547C49.1348 9.95964 48.8223 10.028 48.4707 10.0605L45.082 10.4023C44.9518 10.4023 44.8444 10.4349 44.7598 10.5C44.6816 10.5651 44.6426 10.653 44.6426 10.7637C44.6426 10.9329 44.7044 11.0957 44.8281 11.252C44.9583 11.4082 45.1276 11.5482 45.3359 11.6719C45.5508 11.7891 45.7949 11.8835 46.0684 11.9551C46.3483 12.0267 46.6348 12.0625 46.9277 12.0625C47.2077 12.0625 47.4941 12.0365 47.7871 11.9844C48.0866 11.9258 48.3796 11.8444 48.666 11.7402C48.959 11.6361 49.2422 11.5124 49.5156 11.3691C49.7891 11.2194 50.0462 11.0501 50.2871 10.8613ZM48.1094 8.3418C48.207 8.32227 48.2917 8.27669 48.3633 8.20508C48.4349 8.12695 48.4707 8.03255 48.4707 7.92188C48.4707 7.82422 48.4349 7.73307 48.3633 7.64844C48.2917 7.5638 48.194 7.48893 48.0703 7.42383C47.9466 7.35221 47.8034 7.29688 47.6406 7.25781C47.4779 7.21875 47.3053 7.19922 47.123 7.19922C46.8561 7.19922 46.5827 7.23828 46.3027 7.31641C46.0228 7.39453 45.7689 7.4987 45.541 7.62891C45.3132 7.7526 45.1276 7.89258 44.9844 8.04883C44.8411 8.19857 44.7695 8.34831 44.7695 8.49805C44.7695 8.64779 44.8607 8.72266 45.043 8.72266C45.1536 8.72266 45.3327 8.70964 45.5801 8.68359C45.8275 8.65755 46.1009 8.62826 46.4004 8.5957C46.6999 8.55664 47.0026 8.51432 47.3086 8.46875C47.6146 8.42318 47.8815 8.38086 48.1094 8.3418ZM57.6016 5.69531C57.3607 5.69531 57.1491 5.76042 56.9668 5.89062C56.7845 6.01432 56.6283 6.1901 56.498 6.41797C56.3678 6.63932 56.2604 6.90299 56.1758 7.20898C56.0911 7.50846 56.0228 7.83724 55.9707 8.19531C55.9186 8.55339 55.8828 8.92773 55.8633 9.31836C55.8438 9.70898 55.834 10.1029 55.834 10.5C55.834 11.0208 55.8535 11.5352 55.8926 12.043C55.9382 12.5443 55.9609 13.0098 55.9609 13.4395C55.9609 13.7194 55.8568 13.9375 55.6484 14.0938C55.4401 14.2565 55.1439 14.3379 54.7598 14.3379C54.6882 14.3379 54.6068 14.3314 54.5156 14.3184C54.4245 14.3053 54.3366 14.2793 54.252 14.2402C54.1738 14.2012 54.1022 14.1458 54.0371 14.0742C53.9785 14.0091 53.946 13.918 53.9395 13.8008C53.8809 13.2279 53.7962 12.6419 53.6855 12.043C53.5749 11.444 53.4349 10.8483 53.2656 10.2559C53.1029 9.6569 52.9043 9.06445 52.6699 8.47852C52.4421 7.89258 52.1784 7.31966 51.8789 6.75977C51.8268 6.66211 51.7812 6.57096 51.7422 6.48633C51.7096 6.40169 51.6934 6.32031 51.6934 6.24219C51.6934 6.14453 51.7357 6.04036 51.8203 5.92969C51.9115 5.8125 52.0221 5.70508 52.1523 5.60742C52.2891 5.50977 52.4355 5.43164 52.5918 5.37305C52.7546 5.30794 52.9108 5.27539 53.0605 5.27539C53.3079 5.27539 53.526 5.44792 53.7148 5.79297C53.9036 6.13151 54.0794 6.67513 54.2422 7.42383C54.2747 7.55404 54.3008 7.64518 54.3203 7.69727C54.3398 7.74935 54.3659 7.77539 54.3984 7.77539C54.4701 7.77539 54.5156 7.66471 54.5352 7.44336C54.6133 6.82487 54.7467 6.29427 54.9355 5.85156C55.1243 5.40234 55.3587 5.03451 55.6387 4.74805C55.9251 4.45508 56.2507 4.24023 56.6152 4.10352C56.9863 3.9668 57.3932 3.89844 57.8359 3.89844C58.0898 3.89844 58.347 3.92122 58.6074 3.9668C58.8678 4.01237 59.1022 4.08073 59.3105 4.17188C59.5189 4.26302 59.6882 4.3737 59.8184 4.50391C59.9486 4.63411 60.0137 4.7806 60.0137 4.94336C60.0137 5.06055 59.9876 5.20052 59.9355 5.36328C59.89 5.51953 59.8281 5.67253 59.75 5.82227C59.6719 5.96549 59.5807 6.08919 59.4766 6.19336C59.3789 6.29102 59.278 6.33984 59.1738 6.33984C59.0566 6.33984 58.9427 6.30729 58.832 6.24219C58.7214 6.17057 58.6009 6.0957 58.4707 6.01758C58.347 5.93945 58.2135 5.86784 58.0703 5.80273C57.9336 5.73112 57.7773 5.69531 57.6016 5.69531ZM67.1328 12.8047C66.9896 13.1497 66.7715 13.3223 66.4785 13.3223C66.3613 13.3223 66.2279 13.2897 66.0781 13.2246L65.8145 13.0977C65.4954 12.9414 65.3359 12.7233 65.3359 12.4434C65.3359 12.3001 65.362 12.1667 65.4141 12.043C65.6159 11.5677 65.834 11.0762 66.0684 10.5684C66.3027 10.054 66.5501 9.52995 66.8105 8.99609C66.8301 8.94401 66.8496 8.89518 66.8691 8.84961C66.8887 8.80404 66.8984 8.76172 66.8984 8.72266C66.8984 8.56641 66.8171 8.42643 66.6543 8.30273C66.1074 7.89258 65.5638 7.48242 65.0234 7.07227C64.4896 6.6556 63.946 6.24544 63.3926 5.8418C63.1517 5.67253 63.0312 5.47721 63.0312 5.25586C63.0312 5.16471 63.0475 5.07682 63.0801 4.99219C63.1126 4.90104 63.1712 4.8099 63.2559 4.71875L63.5293 4.39648C63.7181 4.17513 63.9264 4.06445 64.1543 4.06445C64.2324 4.06445 64.3105 4.08398 64.3887 4.12305C64.4733 4.1556 64.5612 4.20117 64.6523 4.25977C65.1341 4.61133 65.6094 4.96289 66.0781 5.31445C66.5534 5.65951 67.0254 6.01432 67.4941 6.37891C67.5527 6.41797 67.6081 6.45052 67.6602 6.47656C67.7122 6.5026 67.7643 6.51562 67.8164 6.51562C67.9596 6.51562 68.0866 6.42448 68.1973 6.24219C68.5098 5.63672 68.832 5.03776 69.1641 4.44531C69.4961 3.85286 69.8379 3.27018 70.1895 2.69727C70.3652 2.43034 70.5736 2.29688 70.8145 2.29688C70.9512 2.29688 71.1107 2.35221 71.293 2.46289L71.4492 2.56055C71.7161 2.73633 71.8496 2.94141 71.8496 3.17578C71.8496 3.26042 71.8366 3.34505 71.8105 3.42969C71.7845 3.50781 71.7454 3.59245 71.6934 3.68359C71.3092 4.29557 70.9447 4.91406 70.5996 5.53906C70.2546 6.16406 69.9193 6.79883 69.5938 7.44336C69.5742 7.49544 69.5547 7.54102 69.5352 7.58008C69.5221 7.61914 69.5156 7.6582 69.5156 7.69727C69.5156 7.86003 69.5938 8 69.75 8.11719C70.5052 8.70312 71.2539 9.29232 71.9961 9.88477C72.7383 10.4707 73.4837 11.0501 74.2324 11.623C74.4603 11.7988 74.5742 11.9909 74.5742 12.1992C74.5742 12.3945 74.4733 12.5801 74.2715 12.7559L73.9297 13.0586C73.7409 13.2344 73.5488 13.3223 73.3535 13.3223C73.1777 13.3223 72.9987 13.2474 72.8164 13.0977L68.9492 10.0801C68.8906 10.041 68.8353 10.0085 68.7832 9.98242C68.7376 9.95638 68.6888 9.94336 68.6367 9.94336C68.4805 9.94336 68.3535 10.041 68.2559 10.2363L67.1328 12.8047ZM88.2852 3.76172C88.2852 4.01562 88.2005 4.25326 88.0312 4.47461C87.8685 4.69596 87.6602 4.91081 87.4062 5.11914C87.1589 5.32747 86.8887 5.5293 86.5957 5.72461C86.3027 5.91992 86.0293 6.11849 85.7754 6.32031C85.528 6.52214 85.3197 6.72721 85.1504 6.93555C84.9876 7.14388 84.9062 7.36523 84.9062 7.59961C84.9062 7.79492 85.043 7.98372 85.3164 8.16602C85.5898 8.34831 85.9837 8.5306 86.498 8.71289C87.0124 8.89518 87.6341 9.08398 88.3633 9.2793C89.0924 9.4681 89.9128 9.66992 90.8242 9.88477C91.2799 10.0085 91.5078 10.2396 91.5078 10.5781C91.5078 10.7083 91.4753 10.8353 91.4102 10.959C91.3516 11.0827 91.2702 11.1934 91.166 11.291C91.0618 11.3822 90.9414 11.457 90.8047 11.5156C90.6745 11.5742 90.541 11.6035 90.4043 11.6035C90.0788 11.6035 89.7077 11.5547 89.291 11.457C88.8809 11.3594 88.4544 11.2389 88.0117 11.0957C87.569 10.9525 87.1263 10.7962 86.6836 10.627C86.2409 10.4512 85.8242 10.2917 85.4336 10.1484C85.0495 10.0052 84.7077 9.88477 84.4082 9.78711C84.1152 9.68945 83.8939 9.64062 83.7441 9.64062C83.627 9.64062 83.513 9.69596 83.4023 9.80664C83.2982 9.91081 83.2005 10.0573 83.1094 10.2461C83.0247 10.4349 82.9531 10.6595 82.8945 10.9199C82.8359 11.1738 82.7936 11.4538 82.7676 11.7598C82.735 12.1048 82.6113 12.362 82.3965 12.5312C82.1882 12.694 81.8984 12.7754 81.5273 12.7754C81.1432 12.7754 80.9219 12.5964 80.8633 12.2383C80.7656 11.6914 80.6452 11.1348 80.502 10.5684C80.3652 10.002 80.2122 9.43555 80.043 8.86914C79.8802 8.30273 79.7012 7.74284 79.5059 7.18945C79.3171 6.63607 79.1185 6.10547 78.9102 5.59766C78.8581 5.48698 78.819 5.38607 78.793 5.29492C78.7734 5.19727 78.7637 5.09961 78.7637 5.00195C78.7637 4.91732 78.7897 4.83919 78.8418 4.76758C78.8939 4.68945 78.9655 4.62109 79.0566 4.5625C79.1478 4.50391 79.252 4.45833 79.3691 4.42578C79.4928 4.39323 79.6198 4.37695 79.75 4.37695C80.0169 4.37695 80.2285 4.43229 80.3848 4.54297C80.541 4.65365 80.7005 4.81966 80.8633 5.04102C80.9414 5.14518 81.0163 5.28516 81.0879 5.46094C81.1595 5.63021 81.2279 5.8125 81.293 6.00781C81.3581 6.20312 81.4232 6.40169 81.4883 6.60352C81.5534 6.79883 81.6152 6.97786 81.6738 7.14062C81.7389 7.29688 81.8008 7.42708 81.8594 7.53125C81.9245 7.62891 81.9863 7.67773 82.0449 7.67773C82.097 7.67773 82.1393 7.65495 82.1719 7.60938C82.2109 7.5638 82.2565 7.49544 82.3086 7.4043C82.6471 6.70117 83.0182 6.0599 83.4219 5.48047C83.8255 4.89453 84.2389 4.39648 84.6621 3.98633C85.0853 3.56966 85.5085 3.2474 85.9316 3.01953C86.3613 2.79167 86.7715 2.67773 87.1621 2.67773C87.3184 2.67773 87.4648 2.70703 87.6016 2.76562C87.7383 2.81771 87.8555 2.89258 87.9531 2.99023C88.0573 3.08789 88.1387 3.20508 88.1973 3.3418C88.2559 3.47201 88.2852 3.61198 88.2852 3.76172ZM98.8223 10.8613C99.0111 10.6986 99.1966 10.6172 99.3789 10.6172C99.4831 10.6172 99.5775 10.6432 99.6621 10.6953C99.7467 10.7474 99.8411 10.8288 99.9453 10.9395C100.043 11.0892 100.111 11.2129 100.15 11.3105C100.196 11.4017 100.219 11.4928 100.219 11.584C100.219 11.7793 100.121 11.9648 99.9258 12.1406C99.6133 12.401 99.2747 12.6354 98.9102 12.8438C98.5456 13.0456 98.1647 13.2181 97.7676 13.3613C97.3704 13.5046 96.9603 13.612 96.5371 13.6836C96.1139 13.7617 95.694 13.8008 95.2773 13.8008C94.75 13.8008 94.2552 13.7324 93.793 13.5957C93.3307 13.4655 92.9173 13.2767 92.5527 13.0293C92.1947 12.7819 91.8919 12.4857 91.6445 12.1406C91.3971 11.7891 91.2214 11.3952 91.1172 10.959C91.0586 10.7767 91.0033 10.6595 90.9512 10.6074C90.9056 10.5488 90.8275 10.5195 90.7168 10.5195C90.4759 10.5195 90.2904 10.4609 90.1602 10.3438C90.0299 10.2266 89.9648 10.0573 89.9648 9.83594C89.9648 9.74479 89.9714 9.6862 89.9844 9.66016L90.0039 9.46484C90.0365 9.23047 90.0983 9.0612 90.1895 8.95703C90.2871 8.85286 90.4368 8.80078 90.6387 8.80078H90.7852C91.0586 8.80078 91.2507 8.67383 91.3613 8.41992C91.5632 7.9707 91.8203 7.56055 92.1328 7.18945C92.4453 6.81836 92.7969 6.5026 93.1875 6.24219C93.5781 5.97526 93.9948 5.77018 94.4375 5.62695C94.8867 5.47721 95.3424 5.40234 95.8047 5.40234C96.2865 5.40234 96.7357 5.47396 97.1523 5.61719C97.5755 5.75391 97.9434 5.94596 98.2559 6.19336C98.5684 6.44076 98.8125 6.73047 98.9883 7.0625C99.1706 7.39453 99.2617 7.7526 99.2617 8.13672C99.2617 8.40365 99.2096 8.64779 99.1055 8.86914C99.0013 9.09049 98.8516 9.28581 98.6562 9.45508C98.4609 9.61784 98.2233 9.7513 97.9434 9.85547C97.6699 9.95964 97.3574 10.028 97.0059 10.0605L93.6172 10.4023C93.487 10.4023 93.3796 10.4349 93.2949 10.5C93.2168 10.5651 93.1777 10.653 93.1777 10.7637C93.1777 10.9329 93.2396 11.0957 93.3633 11.252C93.4935 11.4082 93.6628 11.5482 93.8711 11.6719C94.0859 11.7891 94.3301 11.8835 94.6035 11.9551C94.8835 12.0267 95.1699 12.0625 95.4629 12.0625C95.7428 12.0625 96.0293 12.0365 96.3223 11.9844C96.6217 11.9258 96.9147 11.8444 97.2012 11.7402C97.4941 11.6361 97.7773 11.5124 98.0508 11.3691C98.3242 11.2194 98.5814 11.0501 98.8223 10.8613ZM96.6445 8.3418C96.7422 8.32227 96.8268 8.27669 96.8984 8.20508C96.9701 8.12695 97.0059 8.03255 97.0059 7.92188C97.0059 7.82422 96.9701 7.73307 96.8984 7.64844C96.8268 7.5638 96.7292 7.48893 96.6055 7.42383C96.4818 7.35221 96.3385 7.29688 96.1758 7.25781C96.013 7.21875 95.8405 7.19922 95.6582 7.19922C95.3913 7.19922 95.1178 7.23828 94.8379 7.31641C94.5579 7.39453 94.304 7.4987 94.0762 7.62891C93.8483 7.7526 93.6628 7.89258 93.5195 8.04883C93.3763 8.19857 93.3047 8.34831 93.3047 8.49805C93.3047 8.64779 93.3958 8.72266 93.5781 8.72266C93.6888 8.72266 93.8678 8.70964 94.1152 8.68359C94.3626 8.65755 94.6361 8.62826 94.9355 8.5957C95.235 8.55664 95.5378 8.51432 95.8438 8.46875C96.1497 8.42318 96.4167 8.38086 96.6445 8.3418ZM104.916 13.2637C104.525 13.2637 104.135 13.1693 103.744 12.9805C103.354 12.7852 102.979 12.5215 102.621 12.1895C102.263 11.8574 101.931 11.4668 101.625 11.0176C101.319 10.5618 101.052 10.0736 100.824 9.55273C100.596 9.02539 100.417 8.47526 100.287 7.90234C100.157 7.32943 100.092 6.75651 100.092 6.18359C100.092 5.74089 100.183 5.42513 100.365 5.23633C100.548 5.04102 100.844 4.94336 101.254 4.94336C101.768 4.94336 102.055 5.15495 102.113 5.57812C102.23 6.47656 102.393 7.28711 102.602 8.00977C102.81 8.73242 103.054 9.34766 103.334 9.85547C103.62 10.3633 103.936 10.7539 104.281 11.0273C104.633 11.3008 105.004 11.4375 105.395 11.4375C105.674 11.4375 105.938 11.3691 106.186 11.2324C106.433 11.0892 106.648 10.8906 106.83 10.6367C106.895 10.5391 106.938 10.4447 106.957 10.3535C106.983 10.2624 107.003 10.1582 107.016 10.041C107.048 9.57878 107.084 9.1263 107.123 8.68359C107.169 8.23438 107.211 7.78516 107.25 7.33594C107.263 7.14062 107.289 6.98112 107.328 6.85742C107.367 6.73372 107.426 6.63607 107.504 6.56445C107.582 6.49284 107.683 6.44401 107.807 6.41797C107.937 6.39193 108.1 6.37891 108.295 6.37891C108.516 6.37891 108.705 6.41146 108.861 6.47656C109.018 6.53516 109.145 6.63607 109.242 6.7793C109.34 6.91602 109.408 7.09831 109.447 7.32617C109.493 7.54753 109.516 7.82422 109.516 8.15625C109.516 8.44271 109.493 8.69336 109.447 8.9082C109.408 9.11654 109.359 9.3151 109.301 9.50391C109.249 9.6862 109.197 9.86849 109.145 10.0508C109.099 10.2266 109.07 10.4219 109.057 10.6367C109.024 11.1771 108.995 11.6458 108.969 12.043C108.943 12.4336 108.92 12.7689 108.9 13.0488C108.887 13.3288 108.874 13.5697 108.861 13.7715C108.855 13.9733 108.848 14.1523 108.842 14.3086C108.835 14.4714 108.832 14.6243 108.832 14.7676C108.832 14.9108 108.832 15.0671 108.832 15.2363C108.832 15.5423 108.845 15.8743 108.871 16.2324C108.897 16.597 108.923 16.9453 108.949 17.2773C108.982 17.6094 109.011 17.9023 109.037 18.1562C109.063 18.4102 109.076 18.5859 109.076 18.6836C109.076 18.8073 109.037 18.9245 108.959 19.0352C108.881 19.1458 108.777 19.2435 108.646 19.3281C108.516 19.4128 108.363 19.4779 108.188 19.5234C108.012 19.5755 107.826 19.6016 107.631 19.6016C107.462 19.6016 107.325 19.543 107.221 19.4258C107.123 19.3151 107.068 19.1654 107.055 18.9766C107.035 18.7292 107.019 18.4264 107.006 18.0684C106.993 17.7168 106.98 17.3392 106.967 16.9355C106.954 16.5384 106.944 16.1315 106.938 15.7148C106.938 15.3047 106.934 14.9206 106.928 14.5625C106.921 14.2109 106.918 13.9017 106.918 13.6348C106.918 13.3678 106.918 13.1758 106.918 13.0586C106.918 12.9414 106.905 12.86 106.879 12.8145C106.853 12.7624 106.804 12.7363 106.732 12.7363C106.693 12.7363 106.641 12.7493 106.576 12.7754C106.511 12.7949 106.436 12.8307 106.352 12.8828C106.124 13.0195 105.893 13.1172 105.658 13.1758C105.424 13.2344 105.176 13.2637 104.916 13.2637ZM113.119 4.52344C113.555 4.52344 114.005 4.58203 114.467 4.69922C114.929 4.8099 115.352 4.95638 115.736 5.13867C116.12 5.31445 116.436 5.51302 116.684 5.73438C116.931 5.95573 117.055 6.17057 117.055 6.37891C117.055 6.48307 117.009 6.60026 116.918 6.73047C116.827 6.85417 116.716 6.97461 116.586 7.0918C116.456 7.20247 116.312 7.29688 116.156 7.375C116.007 7.44661 115.873 7.48242 115.756 7.48242C115.6 7.48242 115.424 7.41732 115.229 7.28711C115.04 7.1569 114.828 7.01367 114.594 6.85742C114.366 6.69466 114.115 6.54818 113.842 6.41797C113.568 6.28776 113.272 6.22266 112.953 6.22266C112.745 6.22266 112.572 6.27474 112.436 6.37891C112.305 6.47656 112.24 6.61654 112.24 6.79883C112.24 6.96159 112.318 7.1276 112.475 7.29688C112.631 7.45964 112.836 7.62891 113.09 7.80469C113.35 7.98047 113.643 8.16602 113.969 8.36133C114.294 8.55664 114.626 8.76497 114.965 8.98633C115.31 9.20768 115.645 9.44857 115.971 9.70898C116.296 9.9694 116.586 10.2526 116.84 10.5586C117.1 10.8646 117.309 11.1999 117.465 11.5645C117.621 11.9225 117.699 12.3132 117.699 12.7363C117.699 13.1009 117.634 13.4329 117.504 13.7324C117.374 14.0319 117.188 14.2891 116.947 14.5039C116.706 14.7188 116.42 14.8848 116.088 15.002C115.756 15.1191 115.391 15.1777 114.994 15.1777C114.493 15.1777 114.031 15.0996 113.607 14.9434C113.184 14.7936 112.82 14.5853 112.514 14.3184C112.208 14.0514 111.967 13.7324 111.791 13.3613C111.622 12.9902 111.537 12.5833 111.537 12.1406C111.537 11.5677 111.638 11.151 111.84 10.8906C112.048 10.6302 112.374 10.5 112.816 10.5C113.09 10.5 113.308 10.5521 113.471 10.6562C113.633 10.7604 113.715 10.8874 113.715 11.0371C113.715 11.1152 113.702 11.1966 113.676 11.2812C113.65 11.3594 113.62 11.444 113.588 11.5352C113.562 11.6198 113.536 11.7109 113.51 11.8086C113.49 11.9062 113.48 12.0039 113.48 12.1016C113.48 12.2708 113.52 12.4336 113.598 12.5898C113.676 12.7461 113.78 12.8828 113.91 13C114.047 13.1237 114.203 13.2214 114.379 13.293C114.555 13.3646 114.74 13.4004 114.936 13.4004C115.456 13.4004 115.717 13.1855 115.717 12.7559C115.717 12.4173 115.583 12.0983 115.316 11.7988C115.049 11.4928 114.714 11.1966 114.311 10.9102C113.907 10.6172 113.471 10.3242 113.002 10.0312C112.54 9.73828 112.107 9.43229 111.703 9.11328C111.299 8.79427 110.964 8.45573 110.697 8.09766C110.43 7.73307 110.297 7.33919 110.297 6.91602C110.297 6.56445 110.368 6.24219 110.512 5.94922C110.661 5.65625 110.863 5.4056 111.117 5.19727C111.371 4.98242 111.667 4.81641 112.006 4.69922C112.351 4.58203 112.722 4.52344 113.119 4.52344Z" fill="#F24E1E"/>
</g>
<defs>
<filter id="filter0_d" x="0.242188" y="0.939453" width="121.457" height="26.6621" filterUnits="userSpaceOnUse" color-interpolation-filters="sRGB">
<feFlood flood-opacity="0" result="BackgroundImageFix"/>
<feColorMatrix in="SourceAlpha" type="matrix" values="0 0 0 0 0 0 0 0 0 0 0 0 0 0 0 0 0 0 127 0"/>
<feOffset dy="4"/>
<feGaussianBlur stdDeviation="2"/>
<feColorMatrix type="matrix" values="0 0 0 0 0 0 0 0 0 0 0 0 0 0 0 0 0 0 0.25 0"/>
<feBlend mode="normal" in2="BackgroundImageFix" result="effect1_dropShadow"/>
<feBlend mode="normal" in="SourceGraphic" in2="effect1_dropShadow" result="shape"/>
</filter>
</defs>
</svg>
