<svg width="21" height="23" viewBox="0 0 21 23" fill="none" xmlns="http://www.w3.org/2000/svg">
<g filter="url(#filter0_d)">
<path d="M10.3438 7.16211C10.3047 7.03841 10.2852 6.92448 10.2852 6.82031C10.2852 6.51432 10.4512 6.27995 10.7832 6.11719C10.9199 6.05208 11.0339 6 11.125 5.96094C11.2161 5.91536 11.291 5.88281 11.3496 5.86328C11.4147 5.83724 11.4668 5.82096 11.5059 5.81445C11.5449 5.80794 11.584 5.80469 11.623 5.80469C11.7728 5.80469 11.903 5.87956 12.0137 6.0293C12.1243 6.17253 12.222 6.35807 12.3066 6.58594C12.3978 6.80729 12.4759 7.04818 12.541 7.30859C12.6126 7.5625 12.6842 7.80339 12.7559 8.03125C12.834 8.2526 12.9154 8.43815 13 8.58789C13.0911 8.73112 13.1986 8.80273 13.3223 8.80273C13.459 8.80273 13.5924 8.74089 13.7227 8.61719C13.8594 8.48698 13.9831 8.32422 14.0938 8.12891C14.2044 7.93359 14.2923 7.72201 14.3574 7.49414C14.429 7.26628 14.4648 7.04818 14.4648 6.83984C14.4648 6.17578 14.3379 5.58333 14.084 5.0625C13.8301 4.53516 13.5013 4.08919 13.0977 3.72461C12.694 3.36003 12.235 3.08333 11.7207 2.89453C11.2129 2.69922 10.7051 2.60156 10.1973 2.60156C9.5918 2.60156 9.09375 2.67318 8.70312 2.81641C8.3125 2.95964 8.00326 3.16797 7.77539 3.44141C7.55404 3.70833 7.39779 4.03711 7.30664 4.42773C7.22201 4.81836 7.17969 5.26107 7.17969 5.75586C7.17969 6.13346 7.2513 6.50456 7.39453 6.86914C7.53776 7.22721 7.74609 7.55924 8.01953 7.86523C8.29297 8.17122 8.62826 8.44141 9.02539 8.67578C9.42253 8.91016 9.875 9.08594 10.3828 9.20312C10.4154 9.21615 10.4414 9.22266 10.4609 9.22266C10.4805 9.22266 10.5065 9.22266 10.5391 9.22266C10.6432 9.22266 10.7246 9.1901 10.7832 9.125C10.8483 9.0599 10.8809 8.97852 10.8809 8.88086C10.8809 8.84831 10.8776 8.81901 10.8711 8.79297C10.8646 8.76042 10.8548 8.72135 10.8418 8.67578L10.3438 7.16211ZM5.1582 5.82422C5.1582 5.7526 5.16146 5.66471 5.16797 5.56055C5.17448 5.45638 5.17773 5.34896 5.17773 5.23828C5.17773 5.13411 5.17122 5.02995 5.1582 4.92578C5.14518 4.82161 5.11914 4.72721 5.08008 4.64258C5.04753 4.55143 4.9987 4.47656 4.93359 4.41797C4.86849 4.35286 4.78385 4.3138 4.67969 4.30078C4.5625 4.28776 4.46484 4.24219 4.38672 4.16406C4.3151 4.07943 4.2793 3.97852 4.2793 3.86133C4.2793 3.68555 4.34115 3.51302 4.46484 3.34375C4.76432 2.88802 5.12565 2.50065 5.54883 2.18164C5.97852 1.85612 6.44727 1.59245 6.95508 1.39062C7.46289 1.1888 7.99674 1.04232 8.55664 0.951172C9.11654 0.853516 9.67969 0.804688 10.2461 0.804688C10.7018 0.804688 11.1706 0.860026 11.6523 0.970703C12.1341 1.07487 12.6029 1.23438 13.0586 1.44922C13.5208 1.66406 13.957 1.92773 14.3672 2.24023C14.7773 2.55273 15.1354 2.91732 15.4414 3.33398C15.7474 3.74414 15.9883 4.20312 16.1641 4.71094C16.3464 5.21224 16.4375 5.76237 16.4375 6.36133C16.4375 6.86263 16.3789 7.32161 16.2617 7.73828C16.1445 8.15495 15.9785 8.53255 15.7637 8.87109C15.5553 9.20964 15.3014 9.51237 15.002 9.7793C14.7025 10.0397 14.3704 10.2611 14.0059 10.4434C13.791 10.5345 13.6836 10.681 13.6836 10.8828C13.6836 10.9023 13.6836 10.9251 13.6836 10.9512C13.6836 10.9707 13.6868 10.9902 13.6934 11.0098C13.6934 11.0358 13.6966 11.0586 13.7031 11.0781C13.7357 11.2539 13.778 11.4688 13.8301 11.7227C13.8887 11.9831 13.944 12.25 13.9961 12.5234C14.0547 12.8034 14.1035 13.0703 14.1426 13.3242C14.1816 13.5846 14.2012 13.8027 14.2012 13.9785C14.2012 14.3822 13.9733 14.6361 13.5176 14.7402C13.3809 14.7728 13.2507 14.7956 13.127 14.8086C13.0033 14.8281 12.9219 14.8379 12.8828 14.8379C12.4857 14.8379 12.2578 14.6068 12.1992 14.1445C12.1406 13.6953 12.0658 13.2559 11.9746 12.8262C11.89 12.3965 11.7988 11.9668 11.7012 11.5371C11.6621 11.3874 11.6068 11.2799 11.5352 11.2148C11.4701 11.1497 11.3919 11.1172 11.3008 11.1172H11.0176C10.1517 11.1172 9.36068 10.9772 8.64453 10.6973C7.92839 10.4108 7.3099 10.0267 6.78906 9.54492C6.27474 9.05664 5.87435 8.49349 5.58789 7.85547C5.30143 7.21745 5.1582 6.54036 5.1582 5.82422Z" fill="#F24E1E"/>
</g>
<defs>
<filter id="filter0_d" x="0.279297" y="0.804688" width="20.1582" height="22.0332" filterUnits="userSpaceOnUse" color-interpolation-filters="sRGB">
<feFlood flood-opacity="0" result="BackgroundImageFix"/>
<feColorMatrix in="SourceAlpha" type="matrix" values="0 0 0 0 0 0 0 0 0 0 0 0 0 0 0 0 0 0 127 0"/>
<feOffset dy="4"/>
<feGaussianBlur stdDeviation="2"/>
<feColorMatrix type="matrix" values="0 0 0 0 0 0 0 0 0 0 0 0 0 0 0 0 0 0 0.25 0"/>
<feBlend mode="normal" in2="BackgroundImageFix" result="effect1_dropShadow"/>
<feBlend mode="normal" in="SourceGraphic" in2="effect1_dropShadow" result="shape"/>
</filter>
</defs>
</svg>
