<svg width="143" height="16" viewBox="0 0 143 16" fill="none" xmlns="http://www.w3.org/2000/svg">
<path d="M3.58789 5.59766C3.45768 5.64974 3.33073 5.67578 3.20703 5.67578C2.89453 5.67578 2.67969 5.49023 2.5625 5.11914C2.52995 5.02148 2.50716 4.9401 2.49414 4.875C2.48763 4.8099 2.48438 4.7513 2.48438 4.69922C2.48438 4.39323 2.6569 4.16536 3.00195 4.01562C3.68555 3.74219 4.38216 3.52083 5.0918 3.35156C5.80143 3.18229 6.51758 3.09766 7.24023 3.09766C7.57878 3.09766 7.91081 3.13346 8.23633 3.20508C8.56836 3.27669 8.86458 3.40039 9.125 3.57617C9.38542 3.75195 9.59701 3.98633 9.75977 4.2793C9.92253 4.57227 10.0039 4.9401 10.0039 5.38281C10.0039 5.69531 9.9388 5.99479 9.80859 6.28125C9.6849 6.56771 9.51888 6.84115 9.31055 7.10156C9.10221 7.36198 8.86458 7.60938 8.59766 7.84375C8.33073 8.07812 8.05729 8.29297 7.77734 8.48828C7.4974 8.68359 7.2207 8.86263 6.94727 9.02539C6.67383 9.18164 6.42643 9.31836 6.20508 9.43555C6.01628 9.54622 5.92188 9.66016 5.92188 9.77734C5.92188 9.91406 6.02279 10.0215 6.22461 10.0996C6.92122 10.347 7.63411 10.5781 8.36328 10.793C9.09245 11.0078 9.83138 11.2487 10.5801 11.5156C10.9316 11.6458 11.1074 11.8477 11.1074 12.1211C11.1074 12.2513 11.0684 12.3848 10.9902 12.5215C10.9186 12.6517 10.8372 12.7721 10.7461 12.8828C10.5573 13.1628 10.3229 13.3027 10.043 13.3027C9.94531 13.3027 9.82487 13.2832 9.68164 13.2441C9.25846 13.0814 8.80273 12.9121 8.31445 12.7363C7.83268 12.5605 7.33789 12.388 6.83008 12.2188C6.32878 12.043 5.83398 11.877 5.3457 11.7207C4.85742 11.5579 4.40495 11.4115 3.98828 11.2812C3.83854 11.2422 3.73763 11.2227 3.68555 11.2227C3.63346 11.2227 3.59115 11.2357 3.55859 11.2617C3.53255 11.2812 3.51953 11.3268 3.51953 11.3984C3.51953 11.418 3.52279 11.444 3.5293 11.4766C3.53581 11.5026 3.53906 11.5319 3.53906 11.5645C3.55859 11.6621 3.58138 11.7923 3.60742 11.9551C3.63997 12.1113 3.66927 12.2741 3.69531 12.4434C3.72786 12.6126 3.75391 12.7754 3.77344 12.9316C3.79297 13.0814 3.80273 13.2051 3.80273 13.3027C3.80273 13.6673 3.60417 13.9212 3.20703 14.0645L2.76758 14.2012C2.70247 14.2207 2.64388 14.2337 2.5918 14.2402C2.53971 14.2533 2.48438 14.2598 2.42578 14.2598C2.06771 14.2598 1.85938 14.0384 1.80078 13.5957C1.64453 12.4108 1.44271 11.2422 1.19531 10.0898C0.954427 8.9375 0.677734 7.78841 0.365234 6.64258C0.345703 6.57747 0.332682 6.52214 0.326172 6.47656C0.326172 6.42448 0.326172 6.37891 0.326172 6.33984C0.326172 5.99479 0.511719 5.76042 0.882812 5.63672C1.01953 5.59115 1.13021 5.55534 1.21484 5.5293C1.30599 5.50326 1.3776 5.48372 1.42969 5.4707C1.48828 5.45117 1.5306 5.43815 1.55664 5.43164C1.58919 5.42513 1.61849 5.42188 1.64453 5.42188C1.99609 5.42188 2.22396 5.62044 2.32812 6.01758C2.46484 6.52539 2.5918 7.01693 2.70898 7.49219C2.83268 7.96745 2.94336 8.4362 3.04102 8.89844C3.0931 9.1263 3.1875 9.24023 3.32422 9.24023C3.36328 9.24023 3.40885 9.23372 3.46094 9.2207C3.51302 9.20117 3.57487 9.17513 3.64648 9.14258C3.85482 9.0319 4.10547 8.89518 4.39844 8.73242C4.69792 8.56966 5.00716 8.39062 5.32617 8.19531C5.65169 7.99349 5.9707 7.7819 6.2832 7.56055C6.60221 7.33919 6.88542 7.11784 7.13281 6.89648C7.38672 6.67513 7.5918 6.45703 7.74805 6.24219C7.9043 6.02734 7.98242 5.82552 7.98242 5.63672C7.98242 5.51953 7.96289 5.41211 7.92383 5.31445C7.89128 5.2168 7.82617 5.13216 7.72852 5.06055C7.63086 4.98893 7.4974 4.93359 7.32812 4.89453C7.16536 4.85547 6.95703 4.83594 6.70312 4.83594C6.45573 4.83594 6.19531 4.85872 5.92188 4.9043C5.65495 4.94336 5.38802 4.9987 5.12109 5.07031C4.85417 5.14193 4.59049 5.22331 4.33008 5.31445C4.06966 5.4056 3.82227 5.5 3.58789 5.59766ZM16.3027 9.58203C16.1204 9.58203 15.9707 9.50716 15.8535 9.35742C15.7363 9.20117 15.6777 8.97656 15.6777 8.68359C15.6777 8.42318 15.7949 8.22786 16.0293 8.09766C16.2637 7.96745 16.6608 7.8763 17.2207 7.82422C17.403 7.80469 17.6406 7.77865 17.9336 7.74609C18.2331 7.70703 18.5358 7.67122 18.8418 7.63867C19.1543 7.59961 19.4473 7.56706 19.7207 7.54102C20.0007 7.51497 20.2188 7.50195 20.375 7.50195C20.6159 7.50195 20.8014 7.57357 20.9316 7.7168C21.0684 7.86003 21.1367 8.11393 21.1367 8.47852C21.1367 8.85612 20.7624 9.08398 20.0137 9.16211C19.916 9.17513 19.7695 9.19466 19.5742 9.2207C19.3854 9.24023 19.1706 9.26628 18.9297 9.29883C18.6888 9.33138 18.4349 9.36393 18.168 9.39648C17.9076 9.42904 17.6569 9.45833 17.416 9.48438C17.1751 9.51042 16.9538 9.5332 16.752 9.55273C16.5566 9.57227 16.4069 9.58203 16.3027 9.58203ZM29.8574 5.59766C29.7272 5.64974 29.6003 5.67578 29.4766 5.67578C29.1641 5.67578 28.9492 5.49023 28.832 5.11914C28.7995 5.02148 28.7767 4.9401 28.7637 4.875C28.7572 4.8099 28.7539 4.7513 28.7539 4.69922C28.7539 4.39323 28.9264 4.16536 29.2715 4.01562C29.9551 3.74219 30.6517 3.52083 31.3613 3.35156C32.071 3.18229 32.7871 3.09766 33.5098 3.09766C33.8483 3.09766 34.1803 3.13346 34.5059 3.20508C34.8379 3.27669 35.1341 3.40039 35.3945 3.57617C35.6549 3.75195 35.8665 3.98633 36.0293 4.2793C36.1921 4.57227 36.2734 4.9401 36.2734 5.38281C36.2734 5.69531 36.2083 5.99479 36.0781 6.28125C35.9544 6.56771 35.7884 6.84115 35.5801 7.10156C35.3717 7.36198 35.1341 7.60938 34.8672 7.84375C34.6003 8.07812 34.3268 8.29297 34.0469 8.48828C33.7669 8.68359 33.4902 8.86263 33.2168 9.02539C32.9434 9.18164 32.696 9.31836 32.4746 9.43555C32.2858 9.54622 32.1914 9.66016 32.1914 9.77734C32.1914 9.91406 32.2923 10.0215 32.4941 10.0996C33.1908 10.347 33.9036 10.5781 34.6328 10.793C35.362 11.0078 36.1009 11.2487 36.8496 11.5156C37.2012 11.6458 37.377 11.8477 37.377 12.1211C37.377 12.2513 37.3379 12.3848 37.2598 12.5215C37.1882 12.6517 37.1068 12.7721 37.0156 12.8828C36.8268 13.1628 36.5924 13.3027 36.3125 13.3027C36.2148 13.3027 36.0944 13.2832 35.9512 13.2441C35.528 13.0814 35.0723 12.9121 34.584 12.7363C34.1022 12.5605 33.6074 12.388 33.0996 12.2188C32.5983 12.043 32.1035 11.877 31.6152 11.7207C31.127 11.5579 30.6745 11.4115 30.2578 11.2812C30.1081 11.2422 30.0072 11.2227 29.9551 11.2227C29.903 11.2227 29.8607 11.2357 29.8281 11.2617C29.8021 11.2812 29.7891 11.3268 29.7891 11.3984C29.7891 11.418 29.7923 11.444 29.7988 11.4766C29.8053 11.5026 29.8086 11.5319 29.8086 11.5645C29.8281 11.6621 29.8509 11.7923 29.877 11.9551C29.9095 12.1113 29.9388 12.2741 29.9648 12.4434C29.9974 12.6126 30.0234 12.7754 30.043 12.9316C30.0625 13.0814 30.0723 13.2051 30.0723 13.3027C30.0723 13.6673 29.8737 13.9212 29.4766 14.0645L29.0371 14.2012C28.972 14.2207 28.9134 14.2337 28.8613 14.2402C28.8092 14.2533 28.7539 14.2598 28.6953 14.2598C28.3372 14.2598 28.1289 14.0384 28.0703 13.5957C27.9141 12.4108 27.7122 11.2422 27.4648 10.0898C27.224 8.9375 26.9473 7.78841 26.6348 6.64258C26.6152 6.57747 26.6022 6.52214 26.5957 6.47656C26.5957 6.42448 26.5957 6.37891 26.5957 6.33984C26.5957 5.99479 26.7812 5.76042 27.1523 5.63672C27.2891 5.59115 27.3997 5.55534 27.4844 5.5293C27.5755 5.50326 27.6471 5.48372 27.6992 5.4707C27.7578 5.45117 27.8001 5.43815 27.8262 5.43164C27.8587 5.42513 27.888 5.42188 27.9141 5.42188C28.2656 5.42188 28.4935 5.62044 28.5977 6.01758C28.7344 6.52539 28.8613 7.01693 28.9785 7.49219C29.1022 7.96745 29.2129 8.4362 29.3105 8.89844C29.3626 9.1263 29.457 9.24023 29.5938 9.24023C29.6328 9.24023 29.6784 9.23372 29.7305 9.2207C29.7826 9.20117 29.8444 9.17513 29.916 9.14258C30.1243 9.0319 30.375 8.89518 30.668 8.73242C30.9674 8.56966 31.2767 8.39062 31.5957 8.19531C31.9212 7.99349 32.2402 7.7819 32.5527 7.56055C32.8717 7.33919 33.1549 7.11784 33.4023 6.89648C33.6562 6.67513 33.8613 6.45703 34.0176 6.24219C34.1738 6.02734 34.252 5.82552 34.252 5.63672C34.252 5.51953 34.2324 5.41211 34.1934 5.31445C34.1608 5.2168 34.0957 5.13216 33.998 5.06055C33.9004 4.98893 33.7669 4.93359 33.5977 4.89453C33.4349 4.85547 33.2266 4.83594 32.9727 4.83594C32.7253 4.83594 32.4648 4.85872 32.1914 4.9043C31.9245 4.94336 31.6576 4.9987 31.3906 5.07031C31.1237 5.14193 30.86 5.22331 30.5996 5.31445C30.3392 5.4056 30.0918 5.5 29.8574 5.59766ZM45.8828 10.8613C46.0716 10.6986 46.2572 10.6172 46.4395 10.6172C46.5436 10.6172 46.638 10.6432 46.7227 10.6953C46.8073 10.7474 46.9017 10.8288 47.0059 10.9395C47.1035 11.0892 47.1719 11.2129 47.2109 11.3105C47.2565 11.4017 47.2793 11.4928 47.2793 11.584C47.2793 11.7793 47.1816 11.9648 46.9863 12.1406C46.6738 12.401 46.3353 12.6354 45.9707 12.8438C45.6061 13.0456 45.2253 13.2181 44.8281 13.3613C44.431 13.5046 44.0208 13.612 43.5977 13.6836C43.1745 13.7617 42.7546 13.8008 42.3379 13.8008C41.8105 13.8008 41.3158 13.7324 40.8535 13.5957C40.3913 13.4655 39.9779 13.2767 39.6133 13.0293C39.2552 12.7819 38.9525 12.4857 38.7051 12.1406C38.4577 11.7891 38.2819 11.3952 38.1777 10.959C38.1191 10.7767 38.0638 10.6595 38.0117 10.6074C37.9661 10.5488 37.888 10.5195 37.7773 10.5195C37.5365 10.5195 37.3509 10.4609 37.2207 10.3438C37.0905 10.2266 37.0254 10.0573 37.0254 9.83594C37.0254 9.74479 37.0319 9.6862 37.0449 9.66016L37.0645 9.46484C37.097 9.23047 37.1589 9.0612 37.25 8.95703C37.3477 8.85286 37.4974 8.80078 37.6992 8.80078H37.8457C38.1191 8.80078 38.3112 8.67383 38.4219 8.41992C38.6237 7.9707 38.8809 7.56055 39.1934 7.18945C39.5059 6.81836 39.8574 6.5026 40.248 6.24219C40.6387 5.97526 41.0553 5.77018 41.498 5.62695C41.9473 5.47721 42.403 5.40234 42.8652 5.40234C43.347 5.40234 43.7962 5.47396 44.2129 5.61719C44.6361 5.75391 45.0039 5.94596 45.3164 6.19336C45.6289 6.44076 45.873 6.73047 46.0488 7.0625C46.2311 7.39453 46.3223 7.7526 46.3223 8.13672C46.3223 8.40365 46.2702 8.64779 46.166 8.86914C46.0618 9.09049 45.9121 9.28581 45.7168 9.45508C45.5215 9.61784 45.2839 9.7513 45.0039 9.85547C44.7305 9.95964 44.418 10.028 44.0664 10.0605L40.6777 10.4023C40.5475 10.4023 40.4401 10.4349 40.3555 10.5C40.2773 10.5651 40.2383 10.653 40.2383 10.7637C40.2383 10.9329 40.3001 11.0957 40.4238 11.252C40.554 11.4082 40.7233 11.5482 40.9316 11.6719C41.1465 11.7891 41.3906 11.8835 41.6641 11.9551C41.944 12.0267 42.2305 12.0625 42.5234 12.0625C42.8034 12.0625 43.0898 12.0365 43.3828 11.9844C43.6823 11.9258 43.9753 11.8444 44.2617 11.7402C44.5547 11.6361 44.8379 11.5124 45.1113 11.3691C45.3848 11.2194 45.6419 11.0501 45.8828 10.8613ZM43.7051 8.3418C43.8027 8.32227 43.8874 8.27669 43.959 8.20508C44.0306 8.12695 44.0664 8.03255 44.0664 7.92188C44.0664 7.82422 44.0306 7.73307 43.959 7.64844C43.8874 7.5638 43.7897 7.48893 43.666 7.42383C43.5423 7.35221 43.3991 7.29688 43.2363 7.25781C43.0736 7.21875 42.901 7.19922 42.7188 7.19922C42.4518 7.19922 42.1784 7.23828 41.8984 7.31641C41.6185 7.39453 41.3646 7.4987 41.1367 7.62891C40.9089 7.7526 40.7233 7.89258 40.5801 8.04883C40.4368 8.19857 40.3652 8.34831 40.3652 8.49805C40.3652 8.64779 40.4564 8.72266 40.6387 8.72266C40.7493 8.72266 40.9284 8.70964 41.1758 8.68359C41.4232 8.65755 41.6966 8.62826 41.9961 8.5957C42.2956 8.55664 42.5983 8.51432 42.9043 8.46875C43.2103 8.42318 43.4772 8.38086 43.7051 8.3418ZM50.3359 4.52344C50.7721 4.52344 51.2214 4.58203 51.6836 4.69922C52.1458 4.8099 52.569 4.95638 52.9531 5.13867C53.3372 5.31445 53.653 5.51302 53.9004 5.73438C54.1478 5.95573 54.2715 6.17057 54.2715 6.37891C54.2715 6.48307 54.2259 6.60026 54.1348 6.73047C54.0436 6.85417 53.9329 6.97461 53.8027 7.0918C53.6725 7.20247 53.5293 7.29688 53.373 7.375C53.2233 7.44661 53.0898 7.48242 52.9727 7.48242C52.8164 7.48242 52.6406 7.41732 52.4453 7.28711C52.2565 7.1569 52.0449 7.01367 51.8105 6.85742C51.5827 6.69466 51.332 6.54818 51.0586 6.41797C50.7852 6.28776 50.4889 6.22266 50.1699 6.22266C49.9616 6.22266 49.7891 6.27474 49.6523 6.37891C49.5221 6.47656 49.457 6.61654 49.457 6.79883C49.457 6.96159 49.5352 7.1276 49.6914 7.29688C49.8477 7.45964 50.0527 7.62891 50.3066 7.80469C50.5671 7.98047 50.86 8.16602 51.1855 8.36133C51.5111 8.55664 51.8431 8.76497 52.1816 8.98633C52.5267 9.20768 52.862 9.44857 53.1875 9.70898C53.513 9.9694 53.8027 10.2526 54.0566 10.5586C54.3171 10.8646 54.5254 11.1999 54.6816 11.5645C54.8379 11.9225 54.916 12.3132 54.916 12.7363C54.916 13.1009 54.8509 13.4329 54.7207 13.7324C54.5905 14.0319 54.4049 14.2891 54.1641 14.5039C53.9232 14.7188 53.6367 14.8848 53.3047 15.002C52.9727 15.1191 52.6081 15.1777 52.2109 15.1777C51.7096 15.1777 51.2474 15.0996 50.8242 14.9434C50.401 14.7936 50.0365 14.5853 49.7305 14.3184C49.4245 14.0514 49.1836 13.7324 49.0078 13.3613C48.8385 12.9902 48.7539 12.5833 48.7539 12.1406C48.7539 11.5677 48.8548 11.151 49.0566 10.8906C49.265 10.6302 49.5905 10.5 50.0332 10.5C50.3066 10.5 50.5247 10.5521 50.6875 10.6562C50.8503 10.7604 50.9316 10.8874 50.9316 11.0371C50.9316 11.1152 50.9186 11.1966 50.8926 11.2812C50.8665 11.3594 50.8372 11.444 50.8047 11.5352C50.7786 11.6198 50.7526 11.7109 50.7266 11.8086C50.707 11.9062 50.6973 12.0039 50.6973 12.1016C50.6973 12.2708 50.7363 12.4336 50.8145 12.5898C50.8926 12.7461 50.9967 12.8828 51.127 13C51.2637 13.1237 51.4199 13.2214 51.5957 13.293C51.7715 13.3646 51.957 13.4004 52.1523 13.4004C52.6732 13.4004 52.9336 13.1855 52.9336 12.7559C52.9336 12.4173 52.8001 12.0983 52.5332 11.7988C52.2663 11.4928 51.931 11.1966 51.5273 10.9102C51.1237 10.6172 50.6875 10.3242 50.2188 10.0312C49.7565 9.73828 49.3236 9.43229 48.9199 9.11328C48.5163 8.79427 48.181 8.45573 47.9141 8.09766C47.6471 7.73307 47.5137 7.33919 47.5137 6.91602C47.5137 6.56445 47.5853 6.24219 47.7285 5.94922C47.8783 5.65625 48.0801 5.4056 48.334 5.19727C48.5879 4.98242 48.8841 4.81641 49.2227 4.69922C49.5677 4.58203 49.9388 4.52344 50.3359 4.52344ZM56.1758 1.7207C56.1758 1.37565 56.2734 1.13477 56.4688 0.998047C56.6641 0.854818 56.9863 0.783203 57.4355 0.783203C57.5983 0.783203 57.735 0.799479 57.8457 0.832031C57.9629 0.858073 58.0605 0.910156 58.1387 0.988281C58.2233 1.06641 58.2884 1.17057 58.334 1.30078C58.3861 1.42448 58.4284 1.58398 58.4609 1.7793C58.5391 2.38477 58.6237 3.00977 58.7148 3.6543C58.8125 4.29883 58.9134 4.94661 59.0176 5.59766C59.0566 5.89062 59.2096 6.03711 59.4766 6.03711C59.5482 6.03711 59.6654 6.0306 59.8281 6.01758C59.9974 5.99805 60.196 5.97852 60.4238 5.95898C60.6517 5.93294 60.8958 5.9069 61.1562 5.88086C61.4232 5.85482 61.6868 5.83203 61.9473 5.8125C62.2142 5.78646 62.4648 5.76693 62.6992 5.75391C62.9401 5.73438 63.1517 5.72461 63.334 5.72461C63.4772 5.72461 63.5911 5.75391 63.6758 5.8125C63.7604 5.86458 63.8255 5.9362 63.8711 6.02734C63.9232 6.11198 63.9557 6.20964 63.9688 6.32031C63.9883 6.42448 63.998 6.5319 63.998 6.64258C63.998 6.74023 63.9785 6.84115 63.9395 6.94531C63.9069 7.04948 63.8581 7.14388 63.793 7.22852C63.7344 7.30664 63.6595 7.37174 63.5684 7.42383C63.4772 7.47591 63.373 7.50195 63.2559 7.50195C62.6895 7.50195 62.1165 7.52148 61.5371 7.56055C60.9642 7.5931 60.3913 7.63867 59.8184 7.69727C59.5254 7.73633 59.3789 7.88281 59.3789 8.13672C59.3789 8.15625 59.3822 8.18229 59.3887 8.21484C59.3952 8.24089 59.3984 8.26367 59.3984 8.2832C59.4766 8.84961 59.5482 9.38021 59.6133 9.875C59.6849 10.3698 59.7435 10.8125 59.7891 11.2031C59.8411 11.5872 59.8802 11.9095 59.9062 12.1699C59.9388 12.4238 59.9551 12.5931 59.9551 12.6777C59.9551 12.9121 59.9323 13.1074 59.8867 13.2637C59.8411 13.4264 59.7663 13.5566 59.6621 13.6543C59.5579 13.7585 59.418 13.8301 59.2422 13.8691C59.0729 13.9147 58.8581 13.9375 58.5977 13.9375C58.3503 13.9375 58.168 13.8789 58.0508 13.7617C57.9336 13.6445 57.8685 13.4655 57.8555 13.2246C57.8164 12.4564 57.7546 11.6849 57.6699 10.9102C57.5853 10.1289 57.4876 9.35091 57.377 8.57617C57.3184 8.29622 57.1719 8.15625 56.9375 8.15625C56.918 8.15625 56.8952 8.15951 56.8691 8.16602C56.8431 8.17253 56.8203 8.17578 56.8008 8.17578C56.3971 8.26693 56.0163 8.35807 55.6582 8.44922C55.3001 8.54036 54.9648 8.63802 54.6523 8.74219C54.4766 8.80078 54.3203 8.8431 54.1836 8.86914C54.0469 8.88867 53.9232 8.89844 53.8125 8.89844C53.6628 8.89844 53.5521 8.83333 53.4805 8.70312C53.4089 8.56641 53.373 8.39714 53.373 8.19531C53.373 8.1237 53.3796 8.04232 53.3926 7.95117C53.4056 7.85352 53.4316 7.75911 53.4707 7.66797C53.5033 7.57031 53.5553 7.48242 53.627 7.4043C53.6921 7.31966 53.7832 7.2513 53.9004 7.19922C54.1738 7.08854 54.5384 6.97461 54.9941 6.85742C55.4499 6.73372 55.9642 6.61979 56.5371 6.51562C56.6673 6.48307 56.7682 6.43099 56.8398 6.35938C56.918 6.28125 56.957 6.16732 56.957 6.01758C56.957 5.98503 56.957 5.95247 56.957 5.91992C56.957 5.88086 56.9505 5.8418 56.9375 5.80273C56.8333 5.20378 56.7324 4.66016 56.6348 4.17188C56.5436 3.67708 56.4622 3.25391 56.3906 2.90234C56.3255 2.55078 56.2734 2.27409 56.2344 2.07227C56.1953 1.87044 56.1758 1.75326 56.1758 1.7207ZM69.5645 4.46484C69.9225 4.46484 70.2676 4.52018 70.5996 4.63086C70.9316 4.74154 71.2246 4.89453 71.4785 5.08984C71.7324 5.28516 71.9342 5.51953 72.084 5.79297C72.2402 6.06641 72.3184 6.36914 72.3184 6.70117C72.3184 6.83789 72.2858 6.97135 72.2207 7.10156C72.1621 7.22526 72.0807 7.33594 71.9766 7.43359C71.8724 7.52474 71.752 7.59961 71.6152 7.6582C71.485 7.71029 71.3483 7.73633 71.2051 7.73633C71.1921 7.73633 71.179 7.73958 71.166 7.74609C71.1595 7.74609 71.1497 7.74609 71.1367 7.74609C71.1237 7.7526 71.1107 7.75586 71.0977 7.75586L71.1367 8.53711C71.1628 9.4681 71.293 10.1484 71.5273 10.5781C71.7682 11.0078 72.0807 11.2227 72.4648 11.2227C72.6016 11.2227 72.722 11.2096 72.8262 11.1836C72.9368 11.1576 73.0378 11.1283 73.1289 11.0957C73.2266 11.0566 73.3177 11.0241 73.4023 10.998C73.487 10.972 73.5716 10.959 73.6562 10.959C73.806 10.959 73.9362 11.0241 74.0469 11.1543C74.1641 11.2845 74.2227 11.4408 74.2227 11.623C74.2227 11.8053 74.151 11.9876 74.0078 12.1699C73.8711 12.3522 73.6888 12.5182 73.4609 12.668C73.2331 12.8112 72.9759 12.9284 72.6895 13.0195C72.403 13.1107 72.1133 13.1562 71.8203 13.1562C71.3125 13.1562 70.8665 12.9479 70.4824 12.5312C70.0983 12.1081 69.8249 11.4896 69.6621 10.6758C69.623 10.5456 69.571 10.4805 69.5059 10.4805C69.4277 10.4805 69.3594 10.5195 69.3008 10.5977C68.6562 11.4115 67.9694 12.0234 67.2402 12.4336C66.5111 12.8372 65.7917 13.0391 65.082 13.0391C64.75 13.0391 64.4505 12.9902 64.1836 12.8926C63.9167 12.7949 63.6888 12.6582 63.5 12.4824C63.3177 12.3001 63.1745 12.082 63.0703 11.8281C62.9727 11.5677 62.9238 11.278 62.9238 10.959C62.9238 10.5098 63.0215 10.0378 63.2168 9.54297C63.4186 9.04818 63.6888 8.5599 64.0273 8.07812C64.3659 7.59635 64.7565 7.13737 65.1992 6.70117C65.6484 6.26497 66.1172 5.88086 66.6055 5.54883C67.1003 5.2168 67.6016 4.95312 68.1094 4.75781C68.6172 4.5625 69.1022 4.46484 69.5645 4.46484ZM69.2422 7.84375C69.3594 7.6224 69.4668 7.46289 69.5645 7.36523C69.6621 7.26107 69.8021 7.19271 69.9844 7.16016C70.1276 7.14062 70.1992 7.09505 70.1992 7.02344C70.1992 6.97135 70.1797 6.91602 70.1406 6.85742C70.0169 6.68815 69.8867 6.54167 69.75 6.41797C69.6133 6.28776 69.431 6.22266 69.2031 6.22266C68.9557 6.22266 68.679 6.29427 68.373 6.4375C68.0671 6.58073 67.7546 6.77279 67.4355 7.01367C67.123 7.24805 66.8138 7.51823 66.5078 7.82422C66.2083 8.1237 65.9414 8.43294 65.707 8.75195C65.4727 9.07096 65.2839 9.38672 65.1406 9.69922C64.9974 10.0117 64.9258 10.2917 64.9258 10.5391C64.9258 10.7604 64.9844 10.9329 65.1016 11.0566C65.2253 11.1803 65.3913 11.2422 65.5996 11.2422C66.1335 11.2422 66.7161 10.959 67.3477 10.3926C67.9792 9.82617 68.6107 8.97656 69.2422 7.84375ZM79.8379 5.69531C79.597 5.69531 79.3854 5.76042 79.2031 5.89062C79.0208 6.01432 78.8646 6.1901 78.7344 6.41797C78.6042 6.63932 78.4967 6.90299 78.4121 7.20898C78.3275 7.50846 78.2591 7.83724 78.207 8.19531C78.1549 8.55339 78.1191 8.92773 78.0996 9.31836C78.0801 9.70898 78.0703 10.1029 78.0703 10.5C78.0703 11.0208 78.0898 11.5352 78.1289 12.043C78.1745 12.5443 78.1973 13.0098 78.1973 13.4395C78.1973 13.7194 78.0931 13.9375 77.8848 14.0938C77.6764 14.2565 77.3802 14.3379 76.9961 14.3379C76.9245 14.3379 76.8431 14.3314 76.752 14.3184C76.6608 14.3053 76.5729 14.2793 76.4883 14.2402C76.4102 14.2012 76.3385 14.1458 76.2734 14.0742C76.2148 14.0091 76.1823 13.918 76.1758 13.8008C76.1172 13.2279 76.0326 12.6419 75.9219 12.043C75.8112 11.444 75.6712 10.8483 75.502 10.2559C75.3392 9.6569 75.1406 9.06445 74.9062 8.47852C74.6784 7.89258 74.4147 7.31966 74.1152 6.75977C74.0632 6.66211 74.0176 6.57096 73.9785 6.48633C73.946 6.40169 73.9297 6.32031 73.9297 6.24219C73.9297 6.14453 73.972 6.04036 74.0566 5.92969C74.1478 5.8125 74.2585 5.70508 74.3887 5.60742C74.5254 5.50977 74.6719 5.43164 74.8281 5.37305C74.9909 5.30794 75.1471 5.27539 75.2969 5.27539C75.5443 5.27539 75.7624 5.44792 75.9512 5.79297C76.14 6.13151 76.3158 6.67513 76.4785 7.42383C76.5111 7.55404 76.5371 7.64518 76.5566 7.69727C76.5762 7.74935 76.6022 7.77539 76.6348 7.77539C76.7064 7.77539 76.752 7.66471 76.7715 7.44336C76.8496 6.82487 76.9831 6.29427 77.1719 5.85156C77.3607 5.40234 77.5951 5.03451 77.875 4.74805C78.1615 4.45508 78.487 4.24023 78.8516 4.10352C79.2227 3.9668 79.6296 3.89844 80.0723 3.89844C80.3262 3.89844 80.5833 3.92122 80.8438 3.9668C81.1042 4.01237 81.3385 4.08073 81.5469 4.17188C81.7552 4.26302 81.9245 4.3737 82.0547 4.50391C82.1849 4.63411 82.25 4.7806 82.25 4.94336C82.25 5.06055 82.224 5.20052 82.1719 5.36328C82.1263 5.51953 82.0645 5.67253 81.9863 5.82227C81.9082 5.96549 81.8171 6.08919 81.7129 6.19336C81.6152 6.29102 81.5143 6.33984 81.4102 6.33984C81.293 6.33984 81.179 6.30729 81.0684 6.24219C80.9577 6.17057 80.8372 6.0957 80.707 6.01758C80.5833 5.93945 80.4499 5.86784 80.3066 5.80273C80.1699 5.73112 80.0137 5.69531 79.8379 5.69531ZM82.543 1.7207C82.543 1.37565 82.6406 1.13477 82.8359 0.998047C83.0312 0.854818 83.3535 0.783203 83.8027 0.783203C83.9655 0.783203 84.1022 0.799479 84.2129 0.832031C84.3301 0.858073 84.4277 0.910156 84.5059 0.988281C84.5905 1.06641 84.6556 1.17057 84.7012 1.30078C84.7533 1.42448 84.7956 1.58398 84.8281 1.7793C84.9062 2.38477 84.9909 3.00977 85.082 3.6543C85.1797 4.29883 85.2806 4.94661 85.3848 5.59766C85.4238 5.89062 85.5768 6.03711 85.8438 6.03711C85.9154 6.03711 86.0326 6.0306 86.1953 6.01758C86.3646 5.99805 86.5632 5.97852 86.791 5.95898C87.0189 5.93294 87.263 5.9069 87.5234 5.88086C87.7904 5.85482 88.054 5.83203 88.3145 5.8125C88.5814 5.78646 88.832 5.76693 89.0664 5.75391C89.3073 5.73438 89.5189 5.72461 89.7012 5.72461C89.8444 5.72461 89.9583 5.75391 90.043 5.8125C90.1276 5.86458 90.1927 5.9362 90.2383 6.02734C90.2904 6.11198 90.3229 6.20964 90.3359 6.32031C90.3555 6.42448 90.3652 6.5319 90.3652 6.64258C90.3652 6.74023 90.3457 6.84115 90.3066 6.94531C90.2741 7.04948 90.2253 7.14388 90.1602 7.22852C90.1016 7.30664 90.0267 7.37174 89.9355 7.42383C89.8444 7.47591 89.7402 7.50195 89.623 7.50195C89.0566 7.50195 88.4837 7.52148 87.9043 7.56055C87.3314 7.5931 86.7585 7.63867 86.1855 7.69727C85.8926 7.73633 85.7461 7.88281 85.7461 8.13672C85.7461 8.15625 85.7493 8.18229 85.7559 8.21484C85.7624 8.24089 85.7656 8.26367 85.7656 8.2832C85.8438 8.84961 85.9154 9.38021 85.9805 9.875C86.0521 10.3698 86.1107 10.8125 86.1562 11.2031C86.2083 11.5872 86.2474 11.9095 86.2734 12.1699C86.306 12.4238 86.3223 12.5931 86.3223 12.6777C86.3223 12.9121 86.2995 13.1074 86.2539 13.2637C86.2083 13.4264 86.1335 13.5566 86.0293 13.6543C85.9251 13.7585 85.7852 13.8301 85.6094 13.8691C85.4401 13.9147 85.2253 13.9375 84.9648 13.9375C84.7174 13.9375 84.5352 13.8789 84.418 13.7617C84.3008 13.6445 84.2357 13.4655 84.2227 13.2246C84.1836 12.4564 84.1217 11.6849 84.0371 10.9102C83.9525 10.1289 83.8548 9.35091 83.7441 8.57617C83.6855 8.29622 83.5391 8.15625 83.3047 8.15625C83.2852 8.15625 83.2624 8.15951 83.2363 8.16602C83.2103 8.17253 83.1875 8.17578 83.168 8.17578C82.7643 8.26693 82.3835 8.35807 82.0254 8.44922C81.6673 8.54036 81.332 8.63802 81.0195 8.74219C80.8438 8.80078 80.6875 8.8431 80.5508 8.86914C80.4141 8.88867 80.2904 8.89844 80.1797 8.89844C80.0299 8.89844 79.9193 8.83333 79.8477 8.70312C79.776 8.56641 79.7402 8.39714 79.7402 8.19531C79.7402 8.1237 79.7467 8.04232 79.7598 7.95117C79.7728 7.85352 79.7988 7.75911 79.8379 7.66797C79.8704 7.57031 79.9225 7.48242 79.9941 7.4043C80.0592 7.31966 80.1504 7.2513 80.2676 7.19922C80.541 7.08854 80.9056 6.97461 81.3613 6.85742C81.8171 6.73372 82.3314 6.61979 82.9043 6.51562C83.0345 6.48307 83.1354 6.43099 83.207 6.35938C83.2852 6.28125 83.3242 6.16732 83.3242 6.01758C83.3242 5.98503 83.3242 5.95247 83.3242 5.91992C83.3242 5.88086 83.3177 5.8418 83.3047 5.80273C83.2005 5.20378 83.0996 4.66016 83.002 4.17188C82.9108 3.67708 82.8294 3.25391 82.7578 2.90234C82.6927 2.55078 82.6406 2.27409 82.6016 2.07227C82.5625 1.87044 82.543 1.75326 82.543 1.7207ZM98.5977 2.90234C98.7344 2.81771 98.8743 2.75911 99.0176 2.72656C99.1608 2.69401 99.2943 2.67773 99.418 2.67773C99.5807 2.67773 99.7272 2.70703 99.8574 2.76562C99.9876 2.81771 100.098 2.88607 100.189 2.9707C100.281 3.05534 100.349 3.15299 100.395 3.26367C100.447 3.36784 100.473 3.47201 100.473 3.57617C100.473 3.7194 100.424 3.85612 100.326 3.98633C100.235 4.11654 100.105 4.22721 99.9355 4.31836C99.597 4.51367 99.3138 4.67969 99.0859 4.81641C98.8581 4.95312 98.6628 5.07682 98.5 5.1875C98.3438 5.29818 98.207 5.40234 98.0898 5.5C97.9727 5.59766 97.8555 5.70508 97.7383 5.82227C97.569 5.97852 97.4062 6.15755 97.25 6.35938C97.0938 6.5612 96.9538 6.76302 96.8301 6.96484C96.7129 7.16016 96.6152 7.34896 96.5371 7.53125C96.4655 7.71354 96.4297 7.86328 96.4297 7.98047C96.4297 8.07812 96.4557 8.15625 96.5078 8.21484C96.5599 8.27344 96.6348 8.30273 96.7324 8.30273C96.8366 8.30273 96.9505 8.26693 97.0742 8.19531C97.4714 7.97396 97.888 7.77539 98.3242 7.59961C98.7669 7.42383 99.2129 7.27409 99.6621 7.15039C100.111 7.02669 100.561 6.93555 101.01 6.87695C101.459 6.81185 101.895 6.7793 102.318 6.7793C102.989 6.7793 103.604 6.85417 104.164 7.00391C104.724 7.14714 105.206 7.34896 105.609 7.60938C106.013 7.86979 106.326 8.18555 106.547 8.55664C106.768 8.92122 106.879 9.32161 106.879 9.75781C106.879 10.2461 106.739 10.7148 106.459 11.1641C106.179 11.6133 105.795 12.0072 105.307 12.3457C104.818 12.6842 104.242 12.9544 103.578 13.1562C102.914 13.3581 102.198 13.459 101.43 13.459C100.408 13.459 99.4701 13.3516 98.6172 13.1367C97.7708 12.9284 97.0417 12.6354 96.4297 12.2578C95.8242 11.8802 95.3522 11.431 95.0137 10.9102C94.6816 10.3828 94.5156 9.80664 94.5156 9.18164C94.5156 8.56315 94.6003 7.95768 94.7695 7.36523C94.9453 6.76628 95.2025 6.19987 95.541 5.66602C95.8861 5.12565 96.3125 4.62435 96.8203 4.16211C97.3281 3.69336 97.9206 3.27344 98.5977 2.90234ZM104.916 10.0996C104.916 9.87826 104.844 9.67643 104.701 9.49414C104.564 9.31185 104.369 9.1556 104.115 9.02539C103.868 8.89518 103.565 8.79427 103.207 8.72266C102.855 8.65104 102.465 8.61523 102.035 8.61523C101.221 8.61523 100.424 8.72917 99.6426 8.95703C98.8678 9.17839 98.1387 9.50065 97.4551 9.92383C97.2923 10.028 97.2109 10.1549 97.2109 10.3047C97.2109 10.4089 97.2695 10.5163 97.3867 10.627C97.5039 10.7311 97.6634 10.832 97.8652 10.9297C98.0671 11.0273 98.3047 11.1217 98.5781 11.2129C98.8516 11.304 99.1413 11.3822 99.4473 11.4473C99.7533 11.5124 100.069 11.5645 100.395 11.6035C100.72 11.6426 101.039 11.6621 101.352 11.6621C101.853 11.6621 102.318 11.623 102.748 11.5449C103.184 11.4603 103.562 11.3496 103.881 11.2129C104.206 11.0697 104.46 10.9036 104.643 10.7148C104.825 10.526 104.916 10.321 104.916 10.0996ZM113.295 4.46484C113.653 4.46484 113.998 4.52018 114.33 4.63086C114.662 4.74154 114.955 4.89453 115.209 5.08984C115.463 5.28516 115.665 5.51953 115.814 5.79297C115.971 6.06641 116.049 6.36914 116.049 6.70117C116.049 6.83789 116.016 6.97135 115.951 7.10156C115.893 7.22526 115.811 7.33594 115.707 7.43359C115.603 7.52474 115.482 7.59961 115.346 7.6582C115.215 7.71029 115.079 7.73633 114.936 7.73633C114.923 7.73633 114.91 7.73958 114.896 7.74609C114.89 7.74609 114.88 7.74609 114.867 7.74609C114.854 7.7526 114.841 7.75586 114.828 7.75586L114.867 8.53711C114.893 9.4681 115.023 10.1484 115.258 10.5781C115.499 11.0078 115.811 11.2227 116.195 11.2227C116.332 11.2227 116.452 11.2096 116.557 11.1836C116.667 11.1576 116.768 11.1283 116.859 11.0957C116.957 11.0566 117.048 11.0241 117.133 10.998C117.217 10.972 117.302 10.959 117.387 10.959C117.536 10.959 117.667 11.0241 117.777 11.1543C117.895 11.2845 117.953 11.4408 117.953 11.623C117.953 11.8053 117.882 11.9876 117.738 12.1699C117.602 12.3522 117.419 12.5182 117.191 12.668C116.964 12.8112 116.706 12.9284 116.42 13.0195C116.133 13.1107 115.844 13.1562 115.551 13.1562C115.043 13.1562 114.597 12.9479 114.213 12.5312C113.829 12.1081 113.555 11.4896 113.393 10.6758C113.354 10.5456 113.301 10.4805 113.236 10.4805C113.158 10.4805 113.09 10.5195 113.031 10.5977C112.387 11.4115 111.7 12.0234 110.971 12.4336C110.242 12.8372 109.522 13.0391 108.812 13.0391C108.48 13.0391 108.181 12.9902 107.914 12.8926C107.647 12.7949 107.419 12.6582 107.23 12.4824C107.048 12.3001 106.905 12.082 106.801 11.8281C106.703 11.5677 106.654 11.278 106.654 10.959C106.654 10.5098 106.752 10.0378 106.947 9.54297C107.149 9.04818 107.419 8.5599 107.758 8.07812C108.096 7.59635 108.487 7.13737 108.93 6.70117C109.379 6.26497 109.848 5.88086 110.336 5.54883C110.831 5.2168 111.332 4.95312 111.84 4.75781C112.348 4.5625 112.833 4.46484 113.295 4.46484ZM112.973 7.84375C113.09 7.6224 113.197 7.46289 113.295 7.36523C113.393 7.26107 113.533 7.19271 113.715 7.16016C113.858 7.14062 113.93 7.09505 113.93 7.02344C113.93 6.97135 113.91 6.91602 113.871 6.85742C113.747 6.68815 113.617 6.54167 113.48 6.41797C113.344 6.28776 113.161 6.22266 112.934 6.22266C112.686 6.22266 112.41 6.29427 112.104 6.4375C111.798 6.58073 111.485 6.77279 111.166 7.01367C110.854 7.24805 110.544 7.51823 110.238 7.82422C109.939 8.1237 109.672 8.43294 109.438 8.75195C109.203 9.07096 109.014 9.38672 108.871 9.69922C108.728 10.0117 108.656 10.2917 108.656 10.5391C108.656 10.7604 108.715 10.9329 108.832 11.0566C108.956 11.1803 109.122 11.2422 109.33 11.2422C109.864 11.2422 110.447 10.959 111.078 10.3926C111.71 9.82617 112.341 8.97656 112.973 7.84375ZM119.145 13.4199C119.099 12.554 119.024 11.7565 118.92 11.0273C118.822 10.2917 118.718 9.65039 118.607 9.10352C118.503 8.55664 118.409 8.11393 118.324 7.77539C118.246 7.43685 118.207 7.22526 118.207 7.14062C118.207 7.01693 118.253 6.89648 118.344 6.7793C118.441 6.66211 118.562 6.5612 118.705 6.47656C118.848 6.38542 119.001 6.3138 119.164 6.26172C119.333 6.20964 119.486 6.18359 119.623 6.18359C119.734 6.18359 119.828 6.20312 119.906 6.24219C119.991 6.28125 120.049 6.34635 120.082 6.4375C120.115 6.54818 120.144 6.66536 120.17 6.78906C120.202 6.90625 120.235 7.04948 120.268 7.21875C120.307 7.45964 120.359 7.58008 120.424 7.58008C120.495 7.58008 120.577 7.47266 120.668 7.25781C120.798 6.95833 120.938 6.71094 121.088 6.51562C121.238 6.32031 121.397 6.16732 121.566 6.05664C121.742 5.93945 121.921 5.85807 122.104 5.8125C122.292 5.76693 122.488 5.74414 122.689 5.74414C123.301 5.74414 123.819 5.98503 124.242 6.4668C124.672 6.94857 125.007 7.64518 125.248 8.55664C125.281 8.66081 125.31 8.72917 125.336 8.76172C125.362 8.78776 125.391 8.80078 125.424 8.80078C125.456 8.80078 125.489 8.78776 125.521 8.76172C125.561 8.72917 125.596 8.66732 125.629 8.57617C125.785 8.15299 125.967 7.79492 126.176 7.50195C126.384 7.20247 126.599 6.96159 126.82 6.7793C127.048 6.59049 127.279 6.45378 127.514 6.36914C127.748 6.28451 127.973 6.24219 128.188 6.24219C128.585 6.24219 128.943 6.38867 129.262 6.68164C129.587 6.9681 129.874 7.41406 130.121 8.01953C130.375 8.61849 130.593 9.38021 130.775 10.3047C130.964 11.2227 131.12 12.3132 131.244 13.5762C131.244 13.9277 131.137 14.1719 130.922 14.3086C130.707 14.4518 130.414 14.5234 130.043 14.5234C129.802 14.5234 129.613 14.4714 129.477 14.3672C129.34 14.263 129.262 14.1263 129.242 13.957C129.158 13.0521 129.063 12.248 128.959 11.5449C128.861 10.8353 128.754 10.2396 128.637 9.75781C128.52 9.26953 128.389 8.89844 128.246 8.64453C128.109 8.39062 127.956 8.26367 127.787 8.26367C127.702 8.26367 127.595 8.32552 127.465 8.44922C127.341 8.57292 127.208 8.80078 127.064 9.13281C126.921 9.45833 126.771 9.90755 126.615 10.4805C126.459 11.0469 126.309 11.7728 126.166 12.6582C126.127 12.9056 126.007 13.0944 125.805 13.2246C125.609 13.3548 125.368 13.4199 125.082 13.4199C124.75 13.4199 124.519 13.3678 124.389 13.2637C124.265 13.1595 124.197 12.9837 124.184 12.7363C124.158 12.3066 124.112 11.8802 124.047 11.457C123.988 11.0273 123.913 10.6204 123.822 10.2363C123.731 9.8457 123.63 9.48763 123.52 9.16211C123.409 8.83008 123.292 8.54362 123.168 8.30273C123.044 8.05534 122.917 7.86328 122.787 7.72656C122.657 7.58984 122.53 7.52148 122.406 7.52148C122.243 7.52148 122.084 7.63542 121.928 7.86328C121.778 8.09115 121.641 8.41341 121.518 8.83008C121.4 9.24674 121.306 9.74805 121.234 10.334C121.163 10.9199 121.127 11.5742 121.127 12.2969C121.127 12.4206 121.13 12.5443 121.137 12.668C121.143 12.7852 121.146 12.9089 121.146 13.0391C121.146 13.2344 121.114 13.3939 121.049 13.5176C120.99 13.6413 120.902 13.7389 120.785 13.8105C120.674 13.8822 120.544 13.931 120.395 13.957C120.245 13.9831 120.082 13.9961 119.906 13.9961C119.743 13.9961 119.613 13.9831 119.516 13.957C119.418 13.9375 119.343 13.9049 119.291 13.8594C119.239 13.8138 119.203 13.752 119.184 13.6738C119.164 13.6022 119.151 13.5176 119.145 13.4199ZM140.785 10.8613C140.974 10.6986 141.16 10.6172 141.342 10.6172C141.446 10.6172 141.54 10.6432 141.625 10.6953C141.71 10.7474 141.804 10.8288 141.908 10.9395C142.006 11.0892 142.074 11.2129 142.113 11.3105C142.159 11.4017 142.182 11.4928 142.182 11.584C142.182 11.7793 142.084 11.9648 141.889 12.1406C141.576 12.401 141.238 12.6354 140.873 12.8438C140.508 13.0456 140.128 13.2181 139.73 13.3613C139.333 13.5046 138.923 13.612 138.5 13.6836C138.077 13.7617 137.657 13.8008 137.24 13.8008C136.713 13.8008 136.218 13.7324 135.756 13.5957C135.294 13.4655 134.88 13.2767 134.516 13.0293C134.158 12.7819 133.855 12.4857 133.607 12.1406C133.36 11.7891 133.184 11.3952 133.08 10.959C133.021 10.7767 132.966 10.6595 132.914 10.6074C132.868 10.5488 132.79 10.5195 132.68 10.5195C132.439 10.5195 132.253 10.4609 132.123 10.3438C131.993 10.2266 131.928 10.0573 131.928 9.83594C131.928 9.74479 131.934 9.6862 131.947 9.66016L131.967 9.46484C131.999 9.23047 132.061 9.0612 132.152 8.95703C132.25 8.85286 132.4 8.80078 132.602 8.80078H132.748C133.021 8.80078 133.214 8.67383 133.324 8.41992C133.526 7.9707 133.783 7.56055 134.096 7.18945C134.408 6.81836 134.76 6.5026 135.15 6.24219C135.541 5.97526 135.958 5.77018 136.4 5.62695C136.85 5.47721 137.305 5.40234 137.768 5.40234C138.249 5.40234 138.699 5.47396 139.115 5.61719C139.538 5.75391 139.906 5.94596 140.219 6.19336C140.531 6.44076 140.775 6.73047 140.951 7.0625C141.133 7.39453 141.225 7.7526 141.225 8.13672C141.225 8.40365 141.173 8.64779 141.068 8.86914C140.964 9.09049 140.814 9.28581 140.619 9.45508C140.424 9.61784 140.186 9.7513 139.906 9.85547C139.633 9.95964 139.32 10.028 138.969 10.0605L135.58 10.4023C135.45 10.4023 135.342 10.4349 135.258 10.5C135.18 10.5651 135.141 10.653 135.141 10.7637C135.141 10.9329 135.202 11.0957 135.326 11.252C135.456 11.4082 135.626 11.5482 135.834 11.6719C136.049 11.7891 136.293 11.8835 136.566 11.9551C136.846 12.0267 137.133 12.0625 137.426 12.0625C137.706 12.0625 137.992 12.0365 138.285 11.9844C138.585 11.9258 138.878 11.8444 139.164 11.7402C139.457 11.6361 139.74 11.5124 140.014 11.3691C140.287 11.2194 140.544 11.0501 140.785 10.8613ZM138.607 8.3418C138.705 8.32227 138.79 8.27669 138.861 8.20508C138.933 8.12695 138.969 8.03255 138.969 7.92188C138.969 7.82422 138.933 7.73307 138.861 7.64844C138.79 7.5638 138.692 7.48893 138.568 7.42383C138.445 7.35221 138.301 7.29688 138.139 7.25781C137.976 7.21875 137.803 7.19922 137.621 7.19922C137.354 7.19922 137.081 7.23828 136.801 7.31641C136.521 7.39453 136.267 7.4987 136.039 7.62891C135.811 7.7526 135.626 7.89258 135.482 8.04883C135.339 8.19857 135.268 8.34831 135.268 8.49805C135.268 8.64779 135.359 8.72266 135.541 8.72266C135.652 8.72266 135.831 8.70964 136.078 8.68359C136.326 8.65755 136.599 8.62826 136.898 8.5957C137.198 8.55664 137.501 8.51432 137.807 8.46875C138.113 8.42318 138.38 8.38086 138.607 8.3418Z" fill="black"/>
</svg>
