<svg width="62" height="16" viewBox="0 0 62 16" fill="none" xmlns="http://www.w3.org/2000/svg">
<path d="M6.44531 5.69531C6.20443 5.69531 5.99284 5.76042 5.81055 5.89062C5.62826 6.01432 5.47201 6.1901 5.3418 6.41797C5.21159 6.63932 5.10417 6.90299 5.01953 7.20898C4.9349 7.50846 4.86654 7.83724 4.81445 8.19531C4.76237 8.55339 4.72656 8.92773 4.70703 9.31836C4.6875 9.70898 4.67773 10.1029 4.67773 10.5C4.67773 11.0208 4.69727 11.5352 4.73633 12.043C4.7819 12.5443 4.80469 13.0098 4.80469 13.4395C4.80469 13.7194 4.70052 13.9375 4.49219 14.0938C4.28385 14.2565 3.98763 14.3379 3.60352 14.3379C3.5319 14.3379 3.45052 14.3314 3.35938 14.3184C3.26823 14.3053 3.18034 14.2793 3.0957 14.2402C3.01758 14.2012 2.94596 14.1458 2.88086 14.0742C2.82227 14.0091 2.78971 13.918 2.7832 13.8008C2.72461 13.2279 2.63997 12.6419 2.5293 12.043C2.41862 11.444 2.27865 10.8483 2.10938 10.2559C1.94661 9.6569 1.74805 9.06445 1.51367 8.47852C1.28581 7.89258 1.02214 7.31966 0.722656 6.75977C0.670573 6.66211 0.625 6.57096 0.585938 6.48633C0.553385 6.40169 0.537109 6.32031 0.537109 6.24219C0.537109 6.14453 0.579427 6.04036 0.664062 5.92969C0.755208 5.8125 0.865885 5.70508 0.996094 5.60742C1.13281 5.50977 1.2793 5.43164 1.43555 5.37305C1.59831 5.30794 1.75456 5.27539 1.9043 5.27539C2.15169 5.27539 2.36979 5.44792 2.55859 5.79297C2.7474 6.13151 2.92318 6.67513 3.08594 7.42383C3.11849 7.55404 3.14453 7.64518 3.16406 7.69727C3.18359 7.74935 3.20964 7.77539 3.24219 7.77539C3.3138 7.77539 3.35938 7.66471 3.37891 7.44336C3.45703 6.82487 3.59049 6.29427 3.7793 5.85156C3.9681 5.40234 4.20247 5.03451 4.48242 4.74805C4.76888 4.45508 5.0944 4.24023 5.45898 4.10352C5.83008 3.9668 6.23698 3.89844 6.67969 3.89844C6.93359 3.89844 7.19076 3.92122 7.45117 3.9668C7.71159 4.01237 7.94596 4.08073 8.1543 4.17188C8.36263 4.26302 8.5319 4.3737 8.66211 4.50391C8.79232 4.63411 8.85742 4.7806 8.85742 4.94336C8.85742 5.06055 8.83138 5.20052 8.7793 5.36328C8.73372 5.51953 8.67188 5.67253 8.59375 5.82227C8.51562 5.96549 8.42448 6.08919 8.32031 6.19336C8.22266 6.29102 8.12174 6.33984 8.01758 6.33984C7.90039 6.33984 7.78646 6.30729 7.67578 6.24219C7.5651 6.17057 7.44466 6.0957 7.31445 6.01758C7.19076 5.93945 7.05729 5.86784 6.91406 5.80273C6.77734 5.73112 6.62109 5.69531 6.44531 5.69531ZM16.5527 10.8613C16.7415 10.6986 16.9271 10.6172 17.1094 10.6172C17.2135 10.6172 17.3079 10.6432 17.3926 10.6953C17.4772 10.7474 17.5716 10.8288 17.6758 10.9395C17.7734 11.0892 17.8418 11.2129 17.8809 11.3105C17.9264 11.4017 17.9492 11.4928 17.9492 11.584C17.9492 11.7793 17.8516 11.9648 17.6562 12.1406C17.3438 12.401 17.0052 12.6354 16.6406 12.8438C16.276 13.0456 15.8952 13.2181 15.498 13.3613C15.1009 13.5046 14.6908 13.612 14.2676 13.6836C13.8444 13.7617 13.4245 13.8008 13.0078 13.8008C12.4805 13.8008 11.9857 13.7324 11.5234 13.5957C11.0612 13.4655 10.6478 13.2767 10.2832 13.0293C9.92513 12.7819 9.6224 12.4857 9.375 12.1406C9.1276 11.7891 8.95182 11.3952 8.84766 10.959C8.78906 10.7767 8.73372 10.6595 8.68164 10.6074C8.63607 10.5488 8.55794 10.5195 8.44727 10.5195C8.20638 10.5195 8.02083 10.4609 7.89062 10.3438C7.76042 10.2266 7.69531 10.0573 7.69531 9.83594C7.69531 9.74479 7.70182 9.6862 7.71484 9.66016L7.73438 9.46484C7.76693 9.23047 7.82878 9.0612 7.91992 8.95703C8.01758 8.85286 8.16732 8.80078 8.36914 8.80078H8.51562C8.78906 8.80078 8.98112 8.67383 9.0918 8.41992C9.29362 7.9707 9.55078 7.56055 9.86328 7.18945C10.1758 6.81836 10.5273 6.5026 10.918 6.24219C11.3086 5.97526 11.7253 5.77018 12.168 5.62695C12.6172 5.47721 13.0729 5.40234 13.5352 5.40234C14.0169 5.40234 14.4661 5.47396 14.8828 5.61719C15.306 5.75391 15.6738 5.94596 15.9863 6.19336C16.2988 6.44076 16.543 6.73047 16.7188 7.0625C16.901 7.39453 16.9922 7.7526 16.9922 8.13672C16.9922 8.40365 16.9401 8.64779 16.8359 8.86914C16.7318 9.09049 16.582 9.28581 16.3867 9.45508C16.1914 9.61784 15.9538 9.7513 15.6738 9.85547C15.4004 9.95964 15.0879 10.028 14.7363 10.0605L11.3477 10.4023C11.2174 10.4023 11.11 10.4349 11.0254 10.5C10.9473 10.5651 10.9082 10.653 10.9082 10.7637C10.9082 10.9329 10.9701 11.0957 11.0938 11.252C11.224 11.4082 11.3932 11.5482 11.6016 11.6719C11.8164 11.7891 12.0605 11.8835 12.334 11.9551C12.6139 12.0267 12.9004 12.0625 13.1934 12.0625C13.4733 12.0625 13.7598 12.0365 14.0527 11.9844C14.3522 11.9258 14.6452 11.8444 14.9316 11.7402C15.2246 11.6361 15.5078 11.5124 15.7812 11.3691C16.0547 11.2194 16.3118 11.0501 16.5527 10.8613ZM14.375 8.3418C14.4727 8.32227 14.5573 8.27669 14.6289 8.20508C14.7005 8.12695 14.7363 8.03255 14.7363 7.92188C14.7363 7.82422 14.7005 7.73307 14.6289 7.64844C14.5573 7.5638 14.4596 7.48893 14.3359 7.42383C14.2122 7.35221 14.069 7.29688 13.9062 7.25781C13.7435 7.21875 13.571 7.19922 13.3887 7.19922C13.1217 7.19922 12.8483 7.23828 12.5684 7.31641C12.2884 7.39453 12.0345 7.4987 11.8066 7.62891C11.5788 7.7526 11.3932 7.89258 11.25 8.04883C11.1068 8.19857 11.0352 8.34831 11.0352 8.49805C11.0352 8.64779 11.1263 8.72266 11.3086 8.72266C11.4193 8.72266 11.5983 8.70964 11.8457 8.68359C12.0931 8.65755 12.3665 8.62826 12.666 8.5957C12.9655 8.55664 13.2682 8.51432 13.5742 8.46875C13.8802 8.42318 14.1471 8.38086 14.375 8.3418ZM21.0059 4.52344C21.4421 4.52344 21.8913 4.58203 22.3535 4.69922C22.8158 4.8099 23.2389 4.95638 23.623 5.13867C24.0072 5.31445 24.3229 5.51302 24.5703 5.73438C24.8177 5.95573 24.9414 6.17057 24.9414 6.37891C24.9414 6.48307 24.8958 6.60026 24.8047 6.73047C24.7135 6.85417 24.6029 6.97461 24.4727 7.0918C24.3424 7.20247 24.1992 7.29688 24.043 7.375C23.8932 7.44661 23.7598 7.48242 23.6426 7.48242C23.4863 7.48242 23.3105 7.41732 23.1152 7.28711C22.9264 7.1569 22.7148 7.01367 22.4805 6.85742C22.2526 6.69466 22.002 6.54818 21.7285 6.41797C21.4551 6.28776 21.1589 6.22266 20.8398 6.22266C20.6315 6.22266 20.459 6.27474 20.3223 6.37891C20.1921 6.47656 20.127 6.61654 20.127 6.79883C20.127 6.96159 20.2051 7.1276 20.3613 7.29688C20.5176 7.45964 20.7227 7.62891 20.9766 7.80469C21.237 7.98047 21.5299 8.16602 21.8555 8.36133C22.181 8.55664 22.513 8.76497 22.8516 8.98633C23.1966 9.20768 23.5319 9.44857 23.8574 9.70898C24.1829 9.9694 24.4727 10.2526 24.7266 10.5586C24.987 10.8646 25.1953 11.1999 25.3516 11.5645C25.5078 11.9225 25.5859 12.3132 25.5859 12.7363C25.5859 13.1009 25.5208 13.4329 25.3906 13.7324C25.2604 14.0319 25.0749 14.2891 24.834 14.5039C24.5931 14.7188 24.3066 14.8848 23.9746 15.002C23.6426 15.1191 23.278 15.1777 22.8809 15.1777C22.3796 15.1777 21.9173 15.0996 21.4941 14.9434C21.071 14.7936 20.7064 14.5853 20.4004 14.3184C20.0944 14.0514 19.8535 13.7324 19.6777 13.3613C19.5085 12.9902 19.4238 12.5833 19.4238 12.1406C19.4238 11.5677 19.5247 11.151 19.7266 10.8906C19.9349 10.6302 20.2604 10.5 20.7031 10.5C20.9766 10.5 21.1947 10.5521 21.3574 10.6562C21.5202 10.7604 21.6016 10.8874 21.6016 11.0371C21.6016 11.1152 21.5885 11.1966 21.5625 11.2812C21.5365 11.3594 21.5072 11.444 21.4746 11.5352C21.4486 11.6198 21.4225 11.7109 21.3965 11.8086C21.377 11.9062 21.3672 12.0039 21.3672 12.1016C21.3672 12.2708 21.4062 12.4336 21.4844 12.5898C21.5625 12.7461 21.6667 12.8828 21.7969 13C21.9336 13.1237 22.0898 13.2214 22.2656 13.293C22.4414 13.3646 22.627 13.4004 22.8223 13.4004C23.3431 13.4004 23.6035 13.1855 23.6035 12.7559C23.6035 12.4173 23.4701 12.0983 23.2031 11.7988C22.9362 11.4928 22.6009 11.1966 22.1973 10.9102C21.7936 10.6172 21.3574 10.3242 20.8887 10.0312C20.4264 9.73828 19.9935 9.43229 19.5898 9.11328C19.1862 8.79427 18.8509 8.45573 18.584 8.09766C18.3171 7.73307 18.1836 7.33919 18.1836 6.91602C18.1836 6.56445 18.2552 6.24219 18.3984 5.94922C18.5482 5.65625 18.75 5.4056 19.0039 5.19727C19.2578 4.98242 19.554 4.81641 19.8926 4.69922C20.2376 4.58203 20.6087 4.52344 21.0059 4.52344ZM26.8457 1.7207C26.8457 1.37565 26.9434 1.13477 27.1387 0.998047C27.334 0.854818 27.6562 0.783203 28.1055 0.783203C28.2682 0.783203 28.4049 0.799479 28.5156 0.832031C28.6328 0.858073 28.7305 0.910156 28.8086 0.988281C28.8932 1.06641 28.9583 1.17057 29.0039 1.30078C29.056 1.42448 29.0983 1.58398 29.1309 1.7793C29.209 2.38477 29.2936 3.00977 29.3848 3.6543C29.4824 4.29883 29.5833 4.94661 29.6875 5.59766C29.7266 5.89062 29.8796 6.03711 30.1465 6.03711C30.2181 6.03711 30.3353 6.0306 30.498 6.01758C30.6673 5.99805 30.8659 5.97852 31.0938 5.95898C31.3216 5.93294 31.5658 5.9069 31.8262 5.88086C32.0931 5.85482 32.3568 5.83203 32.6172 5.8125C32.8841 5.78646 33.1348 5.76693 33.3691 5.75391C33.61 5.73438 33.8216 5.72461 34.0039 5.72461C34.1471 5.72461 34.2611 5.75391 34.3457 5.8125C34.4303 5.86458 34.4954 5.9362 34.541 6.02734C34.5931 6.11198 34.6257 6.20964 34.6387 6.32031C34.6582 6.42448 34.668 6.5319 34.668 6.64258C34.668 6.74023 34.6484 6.84115 34.6094 6.94531C34.5768 7.04948 34.528 7.14388 34.4629 7.22852C34.4043 7.30664 34.3294 7.37174 34.2383 7.42383C34.1471 7.47591 34.043 7.50195 33.9258 7.50195C33.3594 7.50195 32.7865 7.52148 32.207 7.56055C31.6341 7.5931 31.0612 7.63867 30.4883 7.69727C30.1953 7.73633 30.0488 7.88281 30.0488 8.13672C30.0488 8.15625 30.0521 8.18229 30.0586 8.21484C30.0651 8.24089 30.0684 8.26367 30.0684 8.2832C30.1465 8.84961 30.2181 9.38021 30.2832 9.875C30.3548 10.3698 30.4134 10.8125 30.459 11.2031C30.5111 11.5872 30.5501 11.9095 30.5762 12.1699C30.6087 12.4238 30.625 12.5931 30.625 12.6777C30.625 12.9121 30.6022 13.1074 30.5566 13.2637C30.5111 13.4264 30.4362 13.5566 30.332 13.6543C30.2279 13.7585 30.0879 13.8301 29.9121 13.8691C29.7428 13.9147 29.528 13.9375 29.2676 13.9375C29.0202 13.9375 28.8379 13.8789 28.7207 13.7617C28.6035 13.6445 28.5384 13.4655 28.5254 13.2246C28.4863 12.4564 28.4245 11.6849 28.3398 10.9102C28.2552 10.1289 28.1576 9.35091 28.0469 8.57617C27.9883 8.29622 27.8418 8.15625 27.6074 8.15625C27.5879 8.15625 27.5651 8.15951 27.5391 8.16602C27.513 8.17253 27.4902 8.17578 27.4707 8.17578C27.0671 8.26693 26.6862 8.35807 26.3281 8.44922C25.9701 8.54036 25.6348 8.63802 25.3223 8.74219C25.1465 8.80078 24.9902 8.8431 24.8535 8.86914C24.7168 8.88867 24.5931 8.89844 24.4824 8.89844C24.3327 8.89844 24.222 8.83333 24.1504 8.70312C24.0788 8.56641 24.043 8.39714 24.043 8.19531C24.043 8.1237 24.0495 8.04232 24.0625 7.95117C24.0755 7.85352 24.1016 7.75911 24.1406 7.66797C24.1732 7.57031 24.2253 7.48242 24.2969 7.4043C24.362 7.31966 24.4531 7.2513 24.5703 7.19922C24.8438 7.08854 25.2083 6.97461 25.6641 6.85742C26.1198 6.73372 26.6341 6.61979 27.207 6.51562C27.3372 6.48307 27.4382 6.43099 27.5098 6.35938C27.5879 6.28125 27.627 6.16732 27.627 6.01758C27.627 5.98503 27.627 5.95247 27.627 5.91992C27.627 5.88086 27.6204 5.8418 27.6074 5.80273C27.5033 5.20378 27.4023 4.66016 27.3047 4.17188C27.2135 3.67708 27.1322 3.25391 27.0605 2.90234C26.9954 2.55078 26.9434 2.27409 26.9043 2.07227C26.8652 1.87044 26.8457 1.75326 26.8457 1.7207ZM40.2344 4.46484C40.5924 4.46484 40.9375 4.52018 41.2695 4.63086C41.6016 4.74154 41.8945 4.89453 42.1484 5.08984C42.4023 5.28516 42.6042 5.51953 42.7539 5.79297C42.9102 6.06641 42.9883 6.36914 42.9883 6.70117C42.9883 6.83789 42.9557 6.97135 42.8906 7.10156C42.832 7.22526 42.7507 7.33594 42.6465 7.43359C42.5423 7.52474 42.4219 7.59961 42.2852 7.6582C42.1549 7.71029 42.0182 7.73633 41.875 7.73633C41.862 7.73633 41.849 7.73958 41.8359 7.74609C41.8294 7.74609 41.8197 7.74609 41.8066 7.74609C41.7936 7.7526 41.7806 7.75586 41.7676 7.75586L41.8066 8.53711C41.8327 9.4681 41.9629 10.1484 42.1973 10.5781C42.4382 11.0078 42.7507 11.2227 43.1348 11.2227C43.2715 11.2227 43.3919 11.2096 43.4961 11.1836C43.6068 11.1576 43.7077 11.1283 43.7988 11.0957C43.8965 11.0566 43.9876 11.0241 44.0723 10.998C44.1569 10.972 44.2415 10.959 44.3262 10.959C44.4759 10.959 44.6061 11.0241 44.7168 11.1543C44.834 11.2845 44.8926 11.4408 44.8926 11.623C44.8926 11.8053 44.821 11.9876 44.6777 12.1699C44.541 12.3522 44.3587 12.5182 44.1309 12.668C43.903 12.8112 43.6458 12.9284 43.3594 13.0195C43.0729 13.1107 42.7832 13.1562 42.4902 13.1562C41.9824 13.1562 41.5365 12.9479 41.1523 12.5312C40.7682 12.1081 40.4948 11.4896 40.332 10.6758C40.293 10.5456 40.2409 10.4805 40.1758 10.4805C40.0977 10.4805 40.0293 10.5195 39.9707 10.5977C39.3262 11.4115 38.6393 12.0234 37.9102 12.4336C37.181 12.8372 36.4616 13.0391 35.752 13.0391C35.4199 13.0391 35.1204 12.9902 34.8535 12.8926C34.5866 12.7949 34.3587 12.6582 34.1699 12.4824C33.9876 12.3001 33.8444 12.082 33.7402 11.8281C33.6426 11.5677 33.5938 11.278 33.5938 10.959C33.5938 10.5098 33.6914 10.0378 33.8867 9.54297C34.0885 9.04818 34.3587 8.5599 34.6973 8.07812C35.0358 7.59635 35.4264 7.13737 35.8691 6.70117C36.3184 6.26497 36.7871 5.88086 37.2754 5.54883C37.7702 5.2168 38.2715 4.95312 38.7793 4.75781C39.2871 4.5625 39.7721 4.46484 40.2344 4.46484ZM39.9121 7.84375C40.0293 7.6224 40.1367 7.46289 40.2344 7.36523C40.332 7.26107 40.472 7.19271 40.6543 7.16016C40.7975 7.14062 40.8691 7.09505 40.8691 7.02344C40.8691 6.97135 40.8496 6.91602 40.8105 6.85742C40.6868 6.68815 40.5566 6.54167 40.4199 6.41797C40.2832 6.28776 40.1009 6.22266 39.873 6.22266C39.6257 6.22266 39.349 6.29427 39.043 6.4375C38.737 6.58073 38.4245 6.77279 38.1055 7.01367C37.793 7.24805 37.4837 7.51823 37.1777 7.82422C36.8783 8.1237 36.6113 8.43294 36.377 8.75195C36.1426 9.07096 35.9538 9.38672 35.8105 9.69922C35.6673 10.0117 35.5957 10.2917 35.5957 10.5391C35.5957 10.7604 35.6543 10.9329 35.7715 11.0566C35.8952 11.1803 36.0612 11.2422 36.2695 11.2422C36.8034 11.2422 37.3861 10.959 38.0176 10.3926C38.6491 9.82617 39.2806 8.97656 39.9121 7.84375ZM50.5078 5.69531C50.2669 5.69531 50.0553 5.76042 49.873 5.89062C49.6908 6.01432 49.5345 6.1901 49.4043 6.41797C49.2741 6.63932 49.1667 6.90299 49.082 7.20898C48.9974 7.50846 48.929 7.83724 48.877 8.19531C48.8249 8.55339 48.7891 8.92773 48.7695 9.31836C48.75 9.70898 48.7402 10.1029 48.7402 10.5C48.7402 11.0208 48.7598 11.5352 48.7988 12.043C48.8444 12.5443 48.8672 13.0098 48.8672 13.4395C48.8672 13.7194 48.763 13.9375 48.5547 14.0938C48.3464 14.2565 48.0501 14.3379 47.666 14.3379C47.5944 14.3379 47.513 14.3314 47.4219 14.3184C47.3307 14.3053 47.2428 14.2793 47.1582 14.2402C47.0801 14.2012 47.0085 14.1458 46.9434 14.0742C46.8848 14.0091 46.8522 13.918 46.8457 13.8008C46.7871 13.2279 46.7025 12.6419 46.5918 12.043C46.4811 11.444 46.3411 10.8483 46.1719 10.2559C46.0091 9.6569 45.8105 9.06445 45.5762 8.47852C45.3483 7.89258 45.0846 7.31966 44.7852 6.75977C44.7331 6.66211 44.6875 6.57096 44.6484 6.48633C44.6159 6.40169 44.5996 6.32031 44.5996 6.24219C44.5996 6.14453 44.6419 6.04036 44.7266 5.92969C44.8177 5.8125 44.9284 5.70508 45.0586 5.60742C45.1953 5.50977 45.3418 5.43164 45.498 5.37305C45.6608 5.30794 45.8171 5.27539 45.9668 5.27539C46.2142 5.27539 46.4323 5.44792 46.6211 5.79297C46.8099 6.13151 46.9857 6.67513 47.1484 7.42383C47.181 7.55404 47.207 7.64518 47.2266 7.69727C47.2461 7.74935 47.2721 7.77539 47.3047 7.77539C47.3763 7.77539 47.4219 7.66471 47.4414 7.44336C47.5195 6.82487 47.653 6.29427 47.8418 5.85156C48.0306 5.40234 48.265 5.03451 48.5449 4.74805C48.8314 4.45508 49.1569 4.24023 49.5215 4.10352C49.8926 3.9668 50.2995 3.89844 50.7422 3.89844C50.9961 3.89844 51.2533 3.92122 51.5137 3.9668C51.7741 4.01237 52.0085 4.08073 52.2168 4.17188C52.4251 4.26302 52.5944 4.3737 52.7246 4.50391C52.8548 4.63411 52.9199 4.7806 52.9199 4.94336C52.9199 5.06055 52.8939 5.20052 52.8418 5.36328C52.7962 5.51953 52.7344 5.67253 52.6562 5.82227C52.5781 5.96549 52.487 6.08919 52.3828 6.19336C52.2852 6.29102 52.1842 6.33984 52.0801 6.33984C51.9629 6.33984 51.849 6.30729 51.7383 6.24219C51.6276 6.17057 51.5072 6.0957 51.377 6.01758C51.2533 5.93945 51.1198 5.86784 50.9766 5.80273C50.8398 5.73112 50.6836 5.69531 50.5078 5.69531ZM53.2129 1.7207C53.2129 1.37565 53.3105 1.13477 53.5059 0.998047C53.7012 0.854818 54.0234 0.783203 54.4727 0.783203C54.6354 0.783203 54.7721 0.799479 54.8828 0.832031C55 0.858073 55.0977 0.910156 55.1758 0.988281C55.2604 1.06641 55.3255 1.17057 55.3711 1.30078C55.4232 1.42448 55.4655 1.58398 55.498 1.7793C55.5762 2.38477 55.6608 3.00977 55.752 3.6543C55.8496 4.29883 55.9505 4.94661 56.0547 5.59766C56.0938 5.89062 56.2467 6.03711 56.5137 6.03711C56.5853 6.03711 56.7025 6.0306 56.8652 6.01758C57.0345 5.99805 57.2331 5.97852 57.4609 5.95898C57.6888 5.93294 57.9329 5.9069 58.1934 5.88086C58.4603 5.85482 58.724 5.83203 58.9844 5.8125C59.2513 5.78646 59.502 5.76693 59.7363 5.75391C59.9772 5.73438 60.1888 5.72461 60.3711 5.72461C60.5143 5.72461 60.6283 5.75391 60.7129 5.8125C60.7975 5.86458 60.8626 5.9362 60.9082 6.02734C60.9603 6.11198 60.9928 6.20964 61.0059 6.32031C61.0254 6.42448 61.0352 6.5319 61.0352 6.64258C61.0352 6.74023 61.0156 6.84115 60.9766 6.94531C60.944 7.04948 60.8952 7.14388 60.8301 7.22852C60.7715 7.30664 60.6966 7.37174 60.6055 7.42383C60.5143 7.47591 60.4102 7.50195 60.293 7.50195C59.7266 7.50195 59.1536 7.52148 58.5742 7.56055C58.0013 7.5931 57.4284 7.63867 56.8555 7.69727C56.5625 7.73633 56.416 7.88281 56.416 8.13672C56.416 8.15625 56.4193 8.18229 56.4258 8.21484C56.4323 8.24089 56.4355 8.26367 56.4355 8.2832C56.5137 8.84961 56.5853 9.38021 56.6504 9.875C56.722 10.3698 56.7806 10.8125 56.8262 11.2031C56.8783 11.5872 56.9173 11.9095 56.9434 12.1699C56.9759 12.4238 56.9922 12.5931 56.9922 12.6777C56.9922 12.9121 56.9694 13.1074 56.9238 13.2637C56.8783 13.4264 56.8034 13.5566 56.6992 13.6543C56.5951 13.7585 56.4551 13.8301 56.2793 13.8691C56.11 13.9147 55.8952 13.9375 55.6348 13.9375C55.3874 13.9375 55.2051 13.8789 55.0879 13.7617C54.9707 13.6445 54.9056 13.4655 54.8926 13.2246C54.8535 12.4564 54.7917 11.6849 54.707 10.9102C54.6224 10.1289 54.5247 9.35091 54.4141 8.57617C54.3555 8.29622 54.209 8.15625 53.9746 8.15625C53.9551 8.15625 53.9323 8.15951 53.9062 8.16602C53.8802 8.17253 53.8574 8.17578 53.8379 8.17578C53.4342 8.26693 53.0534 8.35807 52.6953 8.44922C52.3372 8.54036 52.002 8.63802 51.6895 8.74219C51.5137 8.80078 51.3574 8.8431 51.2207 8.86914C51.084 8.88867 50.9603 8.89844 50.8496 8.89844C50.6999 8.89844 50.5892 8.83333 50.5176 8.70312C50.446 8.56641 50.4102 8.39714 50.4102 8.19531C50.4102 8.1237 50.4167 8.04232 50.4297 7.95117C50.4427 7.85352 50.4688 7.75911 50.5078 7.66797C50.5404 7.57031 50.5924 7.48242 50.6641 7.4043C50.7292 7.31966 50.8203 7.2513 50.9375 7.19922C51.2109 7.08854 51.5755 6.97461 52.0312 6.85742C52.487 6.73372 53.0013 6.61979 53.5742 6.51562C53.7044 6.48307 53.8053 6.43099 53.877 6.35938C53.9551 6.28125 53.9941 6.16732 53.9941 6.01758C53.9941 5.98503 53.9941 5.95247 53.9941 5.91992C53.9941 5.88086 53.9876 5.8418 53.9746 5.80273C53.8704 5.20378 53.7695 4.66016 53.6719 4.17188C53.5807 3.67708 53.4993 3.25391 53.4277 2.90234C53.3626 2.55078 53.3105 2.27409 53.2715 2.07227C53.2324 1.87044 53.2129 1.75326 53.2129 1.7207Z" fill="#27AAFF"/>
</svg>
