<svg width="70" height="24" viewBox="0 0 70 24" fill="none" xmlns="http://www.w3.org/2000/svg">
<g filter="url(#filter0_d)">
<path d="M10.8184 5.69531C10.5775 5.69531 10.3659 5.76042 10.1836 5.89062C10.0013 6.01432 9.84505 6.1901 9.71484 6.41797C9.58464 6.63932 9.47721 6.90299 9.39258 7.20898C9.30794 7.50846 9.23958 7.83724 9.1875 8.19531C9.13542 8.55339 9.09961 8.92773 9.08008 9.31836C9.06055 9.70898 9.05078 10.1029 9.05078 10.5C9.05078 11.0208 9.07031 11.5352 9.10938 12.043C9.15495 12.5443 9.17773 13.0098 9.17773 13.4395C9.17773 13.7194 9.07357 13.9375 8.86523 14.0938C8.6569 14.2565 8.36068 14.3379 7.97656 14.3379C7.90495 14.3379 7.82357 14.3314 7.73242 14.3184C7.64128 14.3053 7.55339 14.2793 7.46875 14.2402C7.39062 14.2012 7.31901 14.1458 7.25391 14.0742C7.19531 14.0091 7.16276 13.918 7.15625 13.8008C7.09766 13.2279 7.01302 12.6419 6.90234 12.043C6.79167 11.444 6.65169 10.8483 6.48242 10.2559C6.31966 9.6569 6.12109 9.06445 5.88672 8.47852C5.65885 7.89258 5.39518 7.31966 5.0957 6.75977C5.04362 6.66211 4.99805 6.57096 4.95898 6.48633C4.92643 6.40169 4.91016 6.32031 4.91016 6.24219C4.91016 6.14453 4.95247 6.04036 5.03711 5.92969C5.12826 5.8125 5.23893 5.70508 5.36914 5.60742C5.50586 5.50977 5.65234 5.43164 5.80859 5.37305C5.97135 5.30794 6.1276 5.27539 6.27734 5.27539C6.52474 5.27539 6.74284 5.44792 6.93164 5.79297C7.12044 6.13151 7.29622 6.67513 7.45898 7.42383C7.49154 7.55404 7.51758 7.64518 7.53711 7.69727C7.55664 7.74935 7.58268 7.77539 7.61523 7.77539C7.68685 7.77539 7.73242 7.66471 7.75195 7.44336C7.83008 6.82487 7.96354 6.29427 8.15234 5.85156C8.34115 5.40234 8.57552 5.03451 8.85547 4.74805C9.14193 4.45508 9.46745 4.24023 9.83203 4.10352C10.2031 3.9668 10.61 3.89844 11.0527 3.89844C11.3066 3.89844 11.5638 3.92122 11.8242 3.9668C12.0846 4.01237 12.319 4.08073 12.5273 4.17188C12.7357 4.26302 12.9049 4.3737 13.0352 4.50391C13.1654 4.63411 13.2305 4.7806 13.2305 4.94336C13.2305 5.06055 13.2044 5.20052 13.1523 5.36328C13.1068 5.51953 13.0449 5.67253 12.9668 5.82227C12.8887 5.96549 12.7975 6.08919 12.6934 6.19336C12.5957 6.29102 12.4948 6.33984 12.3906 6.33984C12.2734 6.33984 12.1595 6.30729 12.0488 6.24219C11.9382 6.17057 11.8177 6.0957 11.6875 6.01758C11.5638 5.93945 11.4303 5.86784 11.2871 5.80273C11.1504 5.73112 10.9941 5.69531 10.8184 5.69531ZM20.9258 10.8613C21.1146 10.6986 21.3001 10.6172 21.4824 10.6172C21.5866 10.6172 21.681 10.6432 21.7656 10.6953C21.8503 10.7474 21.9447 10.8288 22.0488 10.9395C22.1465 11.0892 22.2148 11.2129 22.2539 11.3105C22.2995 11.4017 22.3223 11.4928 22.3223 11.584C22.3223 11.7793 22.2246 11.9648 22.0293 12.1406C21.7168 12.401 21.3783 12.6354 21.0137 12.8438C20.6491 13.0456 20.2682 13.2181 19.8711 13.3613C19.474 13.5046 19.0638 13.612 18.6406 13.6836C18.2174 13.7617 17.7975 13.8008 17.3809 13.8008C16.8535 13.8008 16.3587 13.7324 15.8965 13.5957C15.4342 13.4655 15.0208 13.2767 14.6562 13.0293C14.2982 12.7819 13.9954 12.4857 13.748 12.1406C13.5007 11.7891 13.3249 11.3952 13.2207 10.959C13.1621 10.7767 13.1068 10.6595 13.0547 10.6074C13.0091 10.5488 12.931 10.5195 12.8203 10.5195C12.5794 10.5195 12.3939 10.4609 12.2637 10.3438C12.1335 10.2266 12.0684 10.0573 12.0684 9.83594C12.0684 9.74479 12.0749 9.6862 12.0879 9.66016L12.1074 9.46484C12.14 9.23047 12.2018 9.0612 12.293 8.95703C12.3906 8.85286 12.5404 8.80078 12.7422 8.80078H12.8887C13.1621 8.80078 13.3542 8.67383 13.4648 8.41992C13.6667 7.9707 13.9238 7.56055 14.2363 7.18945C14.5488 6.81836 14.9004 6.5026 15.291 6.24219C15.6816 5.97526 16.0983 5.77018 16.541 5.62695C16.9902 5.47721 17.446 5.40234 17.9082 5.40234C18.39 5.40234 18.8392 5.47396 19.2559 5.61719C19.679 5.75391 20.0469 5.94596 20.3594 6.19336C20.6719 6.44076 20.916 6.73047 21.0918 7.0625C21.2741 7.39453 21.3652 7.7526 21.3652 8.13672C21.3652 8.40365 21.3132 8.64779 21.209 8.86914C21.1048 9.09049 20.9551 9.28581 20.7598 9.45508C20.5645 9.61784 20.3268 9.7513 20.0469 9.85547C19.7734 9.95964 19.4609 10.028 19.1094 10.0605L15.7207 10.4023C15.5905 10.4023 15.4831 10.4349 15.3984 10.5C15.3203 10.5651 15.2812 10.653 15.2812 10.7637C15.2812 10.9329 15.3431 11.0957 15.4668 11.252C15.597 11.4082 15.7663 11.5482 15.9746 11.6719C16.1895 11.7891 16.4336 11.8835 16.707 11.9551C16.987 12.0267 17.2734 12.0625 17.5664 12.0625C17.8464 12.0625 18.1328 12.0365 18.4258 11.9844C18.7253 11.9258 19.0182 11.8444 19.3047 11.7402C19.5977 11.6361 19.8809 11.5124 20.1543 11.3691C20.4277 11.2194 20.6849 11.0501 20.9258 10.8613ZM18.748 8.3418C18.8457 8.32227 18.9303 8.27669 19.002 8.20508C19.0736 8.12695 19.1094 8.03255 19.1094 7.92188C19.1094 7.82422 19.0736 7.73307 19.002 7.64844C18.9303 7.5638 18.8327 7.48893 18.709 7.42383C18.5853 7.35221 18.4421 7.29688 18.2793 7.25781C18.1165 7.21875 17.944 7.19922 17.7617 7.19922C17.4948 7.19922 17.2214 7.23828 16.9414 7.31641C16.6615 7.39453 16.4076 7.4987 16.1797 7.62891C15.9518 7.7526 15.7663 7.89258 15.623 8.04883C15.4798 8.19857 15.4082 8.34831 15.4082 8.49805C15.4082 8.64779 15.4993 8.72266 15.6816 8.72266C15.7923 8.72266 15.9714 8.70964 16.2188 8.68359C16.4661 8.65755 16.7396 8.62826 17.0391 8.5957C17.3385 8.55664 17.6413 8.51432 17.9473 8.46875C18.2533 8.42318 18.5202 8.38086 18.748 8.3418ZM25.3789 4.52344C25.8151 4.52344 26.2643 4.58203 26.7266 4.69922C27.1888 4.8099 27.612 4.95638 27.9961 5.13867C28.3802 5.31445 28.696 5.51302 28.9434 5.73438C29.1908 5.95573 29.3145 6.17057 29.3145 6.37891C29.3145 6.48307 29.2689 6.60026 29.1777 6.73047C29.0866 6.85417 28.9759 6.97461 28.8457 7.0918C28.7155 7.20247 28.5723 7.29688 28.416 7.375C28.2663 7.44661 28.1328 7.48242 28.0156 7.48242C27.8594 7.48242 27.6836 7.41732 27.4883 7.28711C27.2995 7.1569 27.0879 7.01367 26.8535 6.85742C26.6257 6.69466 26.375 6.54818 26.1016 6.41797C25.8281 6.28776 25.5319 6.22266 25.2129 6.22266C25.0046 6.22266 24.832 6.27474 24.6953 6.37891C24.5651 6.47656 24.5 6.61654 24.5 6.79883C24.5 6.96159 24.5781 7.1276 24.7344 7.29688C24.8906 7.45964 25.0957 7.62891 25.3496 7.80469C25.61 7.98047 25.903 8.16602 26.2285 8.36133C26.554 8.55664 26.8861 8.76497 27.2246 8.98633C27.5697 9.20768 27.9049 9.44857 28.2305 9.70898C28.556 9.9694 28.8457 10.2526 29.0996 10.5586C29.36 10.8646 29.5684 11.1999 29.7246 11.5645C29.8809 11.9225 29.959 12.3132 29.959 12.7363C29.959 13.1009 29.8939 13.4329 29.7637 13.7324C29.6335 14.0319 29.4479 14.2891 29.207 14.5039C28.9661 14.7188 28.6797 14.8848 28.3477 15.002C28.0156 15.1191 27.651 15.1777 27.2539 15.1777C26.7526 15.1777 26.2904 15.0996 25.8672 14.9434C25.444 14.7936 25.0794 14.5853 24.7734 14.3184C24.4674 14.0514 24.2266 13.7324 24.0508 13.3613C23.8815 12.9902 23.7969 12.5833 23.7969 12.1406C23.7969 11.5677 23.8978 11.151 24.0996 10.8906C24.3079 10.6302 24.6335 10.5 25.0762 10.5C25.3496 10.5 25.5677 10.5521 25.7305 10.6562C25.8932 10.7604 25.9746 10.8874 25.9746 11.0371C25.9746 11.1152 25.9616 11.1966 25.9355 11.2812C25.9095 11.3594 25.8802 11.444 25.8477 11.5352C25.8216 11.6198 25.7956 11.7109 25.7695 11.8086C25.75 11.9062 25.7402 12.0039 25.7402 12.1016C25.7402 12.2708 25.7793 12.4336 25.8574 12.5898C25.9355 12.7461 26.0397 12.8828 26.1699 13C26.3066 13.1237 26.4629 13.2214 26.6387 13.293C26.8145 13.3646 27 13.4004 27.1953 13.4004C27.7161 13.4004 27.9766 13.1855 27.9766 12.7559C27.9766 12.4173 27.8431 12.0983 27.5762 11.7988C27.3092 11.4928 26.974 11.1966 26.5703 10.9102C26.1667 10.6172 25.7305 10.3242 25.2617 10.0312C24.7995 9.73828 24.3665 9.43229 23.9629 9.11328C23.5592 8.79427 23.224 8.45573 22.957 8.09766C22.6901 7.73307 22.5566 7.33919 22.5566 6.91602C22.5566 6.56445 22.6283 6.24219 22.7715 5.94922C22.9212 5.65625 23.123 5.4056 23.377 5.19727C23.6309 4.98242 23.9271 4.81641 24.2656 4.69922C24.6107 4.58203 24.9818 4.52344 25.3789 4.52344ZM31.2188 1.7207C31.2188 1.37565 31.3164 1.13477 31.5117 0.998047C31.707 0.854818 32.0293 0.783203 32.4785 0.783203C32.6413 0.783203 32.778 0.799479 32.8887 0.832031C33.0059 0.858073 33.1035 0.910156 33.1816 0.988281C33.2663 1.06641 33.3314 1.17057 33.377 1.30078C33.429 1.42448 33.4714 1.58398 33.5039 1.7793C33.582 2.38477 33.6667 3.00977 33.7578 3.6543C33.8555 4.29883 33.9564 4.94661 34.0605 5.59766C34.0996 5.89062 34.2526 6.03711 34.5195 6.03711C34.5911 6.03711 34.7083 6.0306 34.8711 6.01758C35.0404 5.99805 35.2389 5.97852 35.4668 5.95898C35.6947 5.93294 35.9388 5.9069 36.1992 5.88086C36.4661 5.85482 36.7298 5.83203 36.9902 5.8125C37.2572 5.78646 37.5078 5.76693 37.7422 5.75391C37.9831 5.73438 38.1947 5.72461 38.377 5.72461C38.5202 5.72461 38.6341 5.75391 38.7188 5.8125C38.8034 5.86458 38.8685 5.9362 38.9141 6.02734C38.9661 6.11198 38.9987 6.20964 39.0117 6.32031C39.0312 6.42448 39.041 6.5319 39.041 6.64258C39.041 6.74023 39.0215 6.84115 38.9824 6.94531C38.9499 7.04948 38.901 7.14388 38.8359 7.22852C38.7773 7.30664 38.7025 7.37174 38.6113 7.42383C38.5202 7.47591 38.416 7.50195 38.2988 7.50195C37.7324 7.50195 37.1595 7.52148 36.5801 7.56055C36.0072 7.5931 35.4342 7.63867 34.8613 7.69727C34.5684 7.73633 34.4219 7.88281 34.4219 8.13672C34.4219 8.15625 34.4251 8.18229 34.4316 8.21484C34.4382 8.24089 34.4414 8.26367 34.4414 8.2832C34.5195 8.84961 34.5911 9.38021 34.6562 9.875C34.7279 10.3698 34.7865 10.8125 34.832 11.2031C34.8841 11.5872 34.9232 11.9095 34.9492 12.1699C34.9818 12.4238 34.998 12.5931 34.998 12.6777C34.998 12.9121 34.9753 13.1074 34.9297 13.2637C34.8841 13.4264 34.8092 13.5566 34.7051 13.6543C34.6009 13.7585 34.4609 13.8301 34.2852 13.8691C34.1159 13.9147 33.901 13.9375 33.6406 13.9375C33.3932 13.9375 33.2109 13.8789 33.0938 13.7617C32.9766 13.6445 32.9115 13.4655 32.8984 13.2246C32.8594 12.4564 32.7975 11.6849 32.7129 10.9102C32.6283 10.1289 32.5306 9.35091 32.4199 8.57617C32.3613 8.29622 32.2148 8.15625 31.9805 8.15625C31.9609 8.15625 31.9382 8.15951 31.9121 8.16602C31.8861 8.17253 31.8633 8.17578 31.8438 8.17578C31.4401 8.26693 31.0592 8.35807 30.7012 8.44922C30.3431 8.54036 30.0078 8.63802 29.6953 8.74219C29.5195 8.80078 29.3633 8.8431 29.2266 8.86914C29.0898 8.88867 28.9661 8.89844 28.8555 8.89844C28.7057 8.89844 28.5951 8.83333 28.5234 8.70312C28.4518 8.56641 28.416 8.39714 28.416 8.19531C28.416 8.1237 28.4225 8.04232 28.4355 7.95117C28.4486 7.85352 28.4746 7.75911 28.5137 7.66797C28.5462 7.57031 28.5983 7.48242 28.6699 7.4043C28.735 7.31966 28.8262 7.2513 28.9434 7.19922C29.2168 7.08854 29.5814 6.97461 30.0371 6.85742C30.4928 6.73372 31.0072 6.61979 31.5801 6.51562C31.7103 6.48307 31.8112 6.43099 31.8828 6.35938C31.9609 6.28125 32 6.16732 32 6.01758C32 5.98503 32 5.95247 32 5.91992C32 5.88086 31.9935 5.8418 31.9805 5.80273C31.8763 5.20378 31.7754 4.66016 31.6777 4.17188C31.5866 3.67708 31.5052 3.25391 31.4336 2.90234C31.3685 2.55078 31.3164 2.27409 31.2773 2.07227C31.2383 1.87044 31.2188 1.75326 31.2188 1.7207ZM44.6074 4.46484C44.9655 4.46484 45.3105 4.52018 45.6426 4.63086C45.9746 4.74154 46.2676 4.89453 46.5215 5.08984C46.7754 5.28516 46.9772 5.51953 47.127 5.79297C47.2832 6.06641 47.3613 6.36914 47.3613 6.70117C47.3613 6.83789 47.3288 6.97135 47.2637 7.10156C47.2051 7.22526 47.1237 7.33594 47.0195 7.43359C46.9154 7.52474 46.7949 7.59961 46.6582 7.6582C46.528 7.71029 46.3913 7.73633 46.248 7.73633C46.235 7.73633 46.222 7.73958 46.209 7.74609C46.2025 7.74609 46.1927 7.74609 46.1797 7.74609C46.1667 7.7526 46.1536 7.75586 46.1406 7.75586L46.1797 8.53711C46.2057 9.4681 46.3359 10.1484 46.5703 10.5781C46.8112 11.0078 47.1237 11.2227 47.5078 11.2227C47.6445 11.2227 47.765 11.2096 47.8691 11.1836C47.9798 11.1576 48.0807 11.1283 48.1719 11.0957C48.2695 11.0566 48.3607 11.0241 48.4453 10.998C48.5299 10.972 48.6146 10.959 48.6992 10.959C48.849 10.959 48.9792 11.0241 49.0898 11.1543C49.207 11.2845 49.2656 11.4408 49.2656 11.623C49.2656 11.8053 49.194 11.9876 49.0508 12.1699C48.9141 12.3522 48.7318 12.5182 48.5039 12.668C48.276 12.8112 48.0189 12.9284 47.7324 13.0195C47.446 13.1107 47.1562 13.1562 46.8633 13.1562C46.3555 13.1562 45.9095 12.9479 45.5254 12.5312C45.1413 12.1081 44.8678 11.4896 44.7051 10.6758C44.666 10.5456 44.6139 10.4805 44.5488 10.4805C44.4707 10.4805 44.4023 10.5195 44.3438 10.5977C43.6992 11.4115 43.0124 12.0234 42.2832 12.4336C41.554 12.8372 40.8346 13.0391 40.125 13.0391C39.793 13.0391 39.4935 12.9902 39.2266 12.8926C38.9596 12.7949 38.7318 12.6582 38.543 12.4824C38.3607 12.3001 38.2174 12.082 38.1133 11.8281C38.0156 11.5677 37.9668 11.278 37.9668 10.959C37.9668 10.5098 38.0645 10.0378 38.2598 9.54297C38.4616 9.04818 38.7318 8.5599 39.0703 8.07812C39.4089 7.59635 39.7995 7.13737 40.2422 6.70117C40.6914 6.26497 41.1602 5.88086 41.6484 5.54883C42.1432 5.2168 42.6445 4.95312 43.1523 4.75781C43.6602 4.5625 44.1452 4.46484 44.6074 4.46484ZM44.2852 7.84375C44.4023 7.6224 44.5098 7.46289 44.6074 7.36523C44.7051 7.26107 44.8451 7.19271 45.0273 7.16016C45.1706 7.14062 45.2422 7.09505 45.2422 7.02344C45.2422 6.97135 45.2227 6.91602 45.1836 6.85742C45.0599 6.68815 44.9297 6.54167 44.793 6.41797C44.6562 6.28776 44.474 6.22266 44.2461 6.22266C43.9987 6.22266 43.722 6.29427 43.416 6.4375C43.11 6.58073 42.7975 6.77279 42.4785 7.01367C42.166 7.24805 41.8568 7.51823 41.5508 7.82422C41.2513 8.1237 40.9844 8.43294 40.75 8.75195C40.5156 9.07096 40.3268 9.38672 40.1836 9.69922C40.0404 10.0117 39.9688 10.2917 39.9688 10.5391C39.9688 10.7604 40.0273 10.9329 40.1445 11.0566C40.2682 11.1803 40.4342 11.2422 40.6426 11.2422C41.1764 11.2422 41.7591 10.959 42.3906 10.3926C43.0221 9.82617 43.6536 8.97656 44.2852 7.84375ZM54.8809 5.69531C54.64 5.69531 54.4284 5.76042 54.2461 5.89062C54.0638 6.01432 53.9076 6.1901 53.7773 6.41797C53.6471 6.63932 53.5397 6.90299 53.4551 7.20898C53.3704 7.50846 53.3021 7.83724 53.25 8.19531C53.1979 8.55339 53.1621 8.92773 53.1426 9.31836C53.123 9.70898 53.1133 10.1029 53.1133 10.5C53.1133 11.0208 53.1328 11.5352 53.1719 12.043C53.2174 12.5443 53.2402 13.0098 53.2402 13.4395C53.2402 13.7194 53.1361 13.9375 52.9277 14.0938C52.7194 14.2565 52.4232 14.3379 52.0391 14.3379C51.9674 14.3379 51.8861 14.3314 51.7949 14.3184C51.7038 14.3053 51.6159 14.2793 51.5312 14.2402C51.4531 14.2012 51.3815 14.1458 51.3164 14.0742C51.2578 14.0091 51.2253 13.918 51.2188 13.8008C51.1602 13.2279 51.0755 12.6419 50.9648 12.043C50.8542 11.444 50.7142 10.8483 50.5449 10.2559C50.3822 9.6569 50.1836 9.06445 49.9492 8.47852C49.7214 7.89258 49.4577 7.31966 49.1582 6.75977C49.1061 6.66211 49.0605 6.57096 49.0215 6.48633C48.9889 6.40169 48.9727 6.32031 48.9727 6.24219C48.9727 6.14453 49.015 6.04036 49.0996 5.92969C49.1908 5.8125 49.3014 5.70508 49.4316 5.60742C49.5684 5.50977 49.7148 5.43164 49.8711 5.37305C50.0339 5.30794 50.1901 5.27539 50.3398 5.27539C50.5872 5.27539 50.8053 5.44792 50.9941 5.79297C51.1829 6.13151 51.3587 6.67513 51.5215 7.42383C51.554 7.55404 51.5801 7.64518 51.5996 7.69727C51.6191 7.74935 51.6452 7.77539 51.6777 7.77539C51.7493 7.77539 51.7949 7.66471 51.8145 7.44336C51.8926 6.82487 52.026 6.29427 52.2148 5.85156C52.4036 5.40234 52.638 5.03451 52.918 4.74805C53.2044 4.45508 53.5299 4.24023 53.8945 4.10352C54.2656 3.9668 54.6725 3.89844 55.1152 3.89844C55.3691 3.89844 55.6263 3.92122 55.8867 3.9668C56.1471 4.01237 56.3815 4.08073 56.5898 4.17188C56.7982 4.26302 56.9674 4.3737 57.0977 4.50391C57.2279 4.63411 57.293 4.7806 57.293 4.94336C57.293 5.06055 57.2669 5.20052 57.2148 5.36328C57.1693 5.51953 57.1074 5.67253 57.0293 5.82227C56.9512 5.96549 56.86 6.08919 56.7559 6.19336C56.6582 6.29102 56.5573 6.33984 56.4531 6.33984C56.3359 6.33984 56.222 6.30729 56.1113 6.24219C56.0007 6.17057 55.8802 6.0957 55.75 6.01758C55.6263 5.93945 55.4928 5.86784 55.3496 5.80273C55.2129 5.73112 55.0566 5.69531 54.8809 5.69531ZM57.5859 1.7207C57.5859 1.37565 57.6836 1.13477 57.8789 0.998047C58.0742 0.854818 58.3965 0.783203 58.8457 0.783203C59.0085 0.783203 59.1452 0.799479 59.2559 0.832031C59.373 0.858073 59.4707 0.910156 59.5488 0.988281C59.6335 1.06641 59.6986 1.17057 59.7441 1.30078C59.7962 1.42448 59.8385 1.58398 59.8711 1.7793C59.9492 2.38477 60.0339 3.00977 60.125 3.6543C60.2227 4.29883 60.3236 4.94661 60.4277 5.59766C60.4668 5.89062 60.6198 6.03711 60.8867 6.03711C60.9583 6.03711 61.0755 6.0306 61.2383 6.01758C61.4076 5.99805 61.6061 5.97852 61.834 5.95898C62.0618 5.93294 62.306 5.9069 62.5664 5.88086C62.8333 5.85482 63.097 5.83203 63.3574 5.8125C63.6243 5.78646 63.875 5.76693 64.1094 5.75391C64.3503 5.73438 64.5618 5.72461 64.7441 5.72461C64.8874 5.72461 65.0013 5.75391 65.0859 5.8125C65.1706 5.86458 65.2357 5.9362 65.2812 6.02734C65.3333 6.11198 65.3659 6.20964 65.3789 6.32031C65.3984 6.42448 65.4082 6.5319 65.4082 6.64258C65.4082 6.74023 65.3887 6.84115 65.3496 6.94531C65.3171 7.04948 65.2682 7.14388 65.2031 7.22852C65.1445 7.30664 65.0697 7.37174 64.9785 7.42383C64.8874 7.47591 64.7832 7.50195 64.666 7.50195C64.0996 7.50195 63.5267 7.52148 62.9473 7.56055C62.3743 7.5931 61.8014 7.63867 61.2285 7.69727C60.9355 7.73633 60.7891 7.88281 60.7891 8.13672C60.7891 8.15625 60.7923 8.18229 60.7988 8.21484C60.8053 8.24089 60.8086 8.26367 60.8086 8.2832C60.8867 8.84961 60.9583 9.38021 61.0234 9.875C61.0951 10.3698 61.1536 10.8125 61.1992 11.2031C61.2513 11.5872 61.2904 11.9095 61.3164 12.1699C61.349 12.4238 61.3652 12.5931 61.3652 12.6777C61.3652 12.9121 61.3424 13.1074 61.2969 13.2637C61.2513 13.4264 61.1764 13.5566 61.0723 13.6543C60.9681 13.7585 60.8281 13.8301 60.6523 13.8691C60.4831 13.9147 60.2682 13.9375 60.0078 13.9375C59.7604 13.9375 59.5781 13.8789 59.4609 13.7617C59.3438 13.6445 59.2786 13.4655 59.2656 13.2246C59.2266 12.4564 59.1647 11.6849 59.0801 10.9102C58.9954 10.1289 58.8978 9.35091 58.7871 8.57617C58.7285 8.29622 58.582 8.15625 58.3477 8.15625C58.3281 8.15625 58.3053 8.15951 58.2793 8.16602C58.2533 8.17253 58.2305 8.17578 58.2109 8.17578C57.8073 8.26693 57.4264 8.35807 57.0684 8.44922C56.7103 8.54036 56.375 8.63802 56.0625 8.74219C55.8867 8.80078 55.7305 8.8431 55.5938 8.86914C55.457 8.88867 55.3333 8.89844 55.2227 8.89844C55.0729 8.89844 54.9622 8.83333 54.8906 8.70312C54.819 8.56641 54.7832 8.39714 54.7832 8.19531C54.7832 8.1237 54.7897 8.04232 54.8027 7.95117C54.8158 7.85352 54.8418 7.75911 54.8809 7.66797C54.9134 7.57031 54.9655 7.48242 55.0371 7.4043C55.1022 7.31966 55.1934 7.2513 55.3105 7.19922C55.584 7.08854 55.9486 6.97461 56.4043 6.85742C56.86 6.73372 57.3743 6.61979 57.9473 6.51562C58.0775 6.48307 58.1784 6.43099 58.25 6.35938C58.3281 6.28125 58.3672 6.16732 58.3672 6.01758C58.3672 5.98503 58.3672 5.95247 58.3672 5.91992C58.3672 5.88086 58.3607 5.8418 58.3477 5.80273C58.2435 5.20378 58.1426 4.66016 58.0449 4.17188C57.9538 3.67708 57.8724 3.25391 57.8008 2.90234C57.7357 2.55078 57.6836 2.27409 57.6445 2.07227C57.6055 1.87044 57.5859 1.75326 57.5859 1.7207Z" fill="#F24E1E"/>
</g>
<defs>
<filter id="filter0_d" x="0.910156" y="0.783203" width="68.498" height="22.3945" filterUnits="userSpaceOnUse" color-interpolation-filters="sRGB">
<feFlood flood-opacity="0" result="BackgroundImageFix"/>
<feColorMatrix in="SourceAlpha" type="matrix" values="0 0 0 0 0 0 0 0 0 0 0 0 0 0 0 0 0 0 127 0"/>
<feOffset dy="4"/>
<feGaussianBlur stdDeviation="2"/>
<feColorMatrix type="matrix" values="0 0 0 0 0 0 0 0 0 0 0 0 0 0 0 0 0 0 0.25 0"/>
<feBlend mode="normal" in2="BackgroundImageFix" result="effect1_dropShadow"/>
<feBlend mode="normal" in="SourceGraphic" in2="effect1_dropShadow" result="shape"/>
</filter>
</defs>
</svg>
