<svg width="18" height="20" viewBox="0 0 18 20" fill="none" xmlns="http://www.w3.org/2000/svg">
<g filter="url(#filter0_d)">
<path d="M6.625 6.99609C6.625 7.38672 6.7194 7.7513 6.9082 8.08984C7.10352 8.42188 7.35742 8.71484 7.66992 8.96875C7.98242 9.21615 8.34049 9.41146 8.74414 9.55469C9.14779 9.69141 9.5612 9.75977 9.98438 9.75977C10.1146 9.75977 10.248 9.75 10.3848 9.73047C10.5215 9.70443 10.6452 9.66211 10.7559 9.60352C10.8665 9.54492 10.9577 9.47005 11.0293 9.37891C11.1009 9.28125 11.1367 9.16081 11.1367 9.01758C11.1367 8.74414 11.0391 8.47396 10.8438 8.20703C10.6549 7.9401 10.4043 7.67643 10.0918 7.41602C9.7793 7.14909 9.42122 6.88542 9.01758 6.625C8.61393 6.35807 8.20378 6.0944 7.78711 5.83398C7.37044 5.57357 6.96029 5.31315 6.55664 5.05273C6.15299 4.78581 5.79492 4.52214 5.48242 4.26172C5.16992 3.99479 4.91602 3.72786 4.7207 3.46094C4.5319 3.1875 4.4375 2.91406 4.4375 2.64062C4.4375 2.38021 4.5026 2.13932 4.63281 1.91797C4.76953 1.6901 4.94857 1.48503 5.16992 1.30273C5.39128 1.12044 5.64844 0.957682 5.94141 0.814453C6.23438 0.671224 6.54036 0.550781 6.85938 0.453125C7.17839 0.355469 7.4974 0.283854 7.81641 0.238281C8.14193 0.186198 8.45117 0.160156 8.74414 0.160156C8.95898 0.160156 9.19336 0.166667 9.44727 0.179688C9.70768 0.186198 9.94857 0.215495 10.1699 0.267578C10.3978 0.313151 10.5866 0.384766 10.7363 0.482422C10.8861 0.580078 10.9609 0.720052 10.9609 0.902344C10.9609 0.960938 10.9512 1.03581 10.9316 1.12695C10.9121 1.21159 10.8568 1.35482 10.7656 1.55664C10.6745 1.74544 10.5671 1.88867 10.4434 1.98633C10.3262 2.07747 10.1732 2.12305 9.98438 2.12305C9.71745 2.12305 9.43424 2.09375 9.13477 2.03516C8.8418 1.97005 8.54557 1.9375 8.24609 1.9375C8.08333 1.9375 7.91732 1.94727 7.74805 1.9668C7.58529 1.97982 7.43555 2.00911 7.29883 2.05469C7.16211 2.09375 7.05143 2.1556 6.9668 2.24023C6.88216 2.31836 6.83984 2.41927 6.83984 2.54297C6.83984 2.66667 6.92773 2.80664 7.10352 2.96289C7.28581 3.11914 7.52344 3.29167 7.81641 3.48047C8.11589 3.66927 8.45443 3.8776 8.83203 4.10547C9.20964 4.32682 9.59375 4.56771 9.98438 4.82812C10.3815 5.08203 10.7689 5.35547 11.1465 5.64844C11.5241 5.9349 11.8594 6.24089 12.1523 6.56641C12.4518 6.88542 12.6895 7.22396 12.8652 7.58203C13.0475 7.9401 13.1387 8.3112 13.1387 8.69531C13.1387 9.16406 13.0312 9.57747 12.8164 9.93555C12.6016 10.2936 12.3249 10.5931 11.9863 10.834C11.6478 11.0749 11.2734 11.2539 10.8633 11.3711C10.4531 11.4948 10.0527 11.5566 9.66211 11.5566C9.26497 11.5566 8.86133 11.5078 8.45117 11.4102C8.04753 11.319 7.6569 11.1855 7.2793 11.0098C6.90169 10.8405 6.54688 10.6354 6.21484 10.3945C5.88932 10.1471 5.60612 9.8737 5.36523 9.57422C5.12435 9.26823 4.93229 8.93945 4.78906 8.58789C4.65234 8.23633 4.58398 7.86849 4.58398 7.48438C4.58398 7.32161 4.59375 7.15885 4.61328 6.99609C4.63932 6.82682 4.68164 6.68034 4.74023 6.55664C4.79883 6.42643 4.88021 6.32227 4.98438 6.24414C5.08854 6.15951 5.22201 6.11719 5.38477 6.11719C5.43685 6.11719 5.49544 6.1237 5.56055 6.13672C5.62565 6.14323 5.73958 6.17253 5.90234 6.22461C6.09115 6.2832 6.25716 6.3776 6.40039 6.50781C6.55013 6.63151 6.625 6.79427 6.625 6.99609Z" fill="#F24E1E"/>
</g>
<defs>
<filter id="filter0_d" x="0.4375" y="0.160156" width="16.7012" height="19.3965" filterUnits="userSpaceOnUse" color-interpolation-filters="sRGB">
<feFlood flood-opacity="0" result="BackgroundImageFix"/>
<feColorMatrix in="SourceAlpha" type="matrix" values="0 0 0 0 0 0 0 0 0 0 0 0 0 0 0 0 0 0 127 0"/>
<feOffset dy="4"/>
<feGaussianBlur stdDeviation="2"/>
<feColorMatrix type="matrix" values="0 0 0 0 0 0 0 0 0 0 0 0 0 0 0 0 0 0 0.25 0"/>
<feBlend mode="normal" in2="BackgroundImageFix" result="effect1_dropShadow"/>
<feBlend mode="normal" in="SourceGraphic" in2="effect1_dropShadow" result="shape"/>
</filter>
</defs>
</svg>
