<svg width="326" height="59" viewBox="0 0 326 59" fill="none" xmlns="http://www.w3.org/2000/svg">
<path d="M55.2271 1.56C56.6324 1.832 57.6751 2.308 58.3551 2.988C59.0804 3.668 59.4431 4.46133 59.4431 5.368C59.4431 6.864 59.0124 7.952 58.1511 8.632C57.3351 9.312 56.0204 9.584 54.2071 9.448C50.1271 9.13066 46.9311 8.92666 44.6191 8.836C42.3524 8.7 39.3604 8.60933 35.6431 8.564C33.9657 16.9053 32.4244 25.292 31.0191 33.724C30.5204 36.8067 29.9991 40.388 29.4551 44.468C28.9111 48.5027 28.5484 51.7667 28.3671 54.26C28.2764 55.5747 27.7324 56.5947 26.7351 57.32C25.7377 58 24.5364 58.34 23.1311 58.34C21.6351 58.34 20.4791 57.9773 19.6631 57.252C18.8471 56.5267 18.4391 55.5747 18.4391 54.396C18.4391 53.308 18.5977 51.5173 18.9151 49.024C19.2777 46.4853 19.6857 43.8333 20.1391 41.068C20.6377 38.3027 21.0231 35.9 21.2951 33.86C21.7937 30.4147 22.3604 26.992 22.9951 23.592C23.6297 20.192 24.2644 16.9733 24.8991 13.936C25.0351 13.256 25.1937 12.4853 25.3751 11.624C25.5564 10.7173 25.7604 9.72 25.9871 8.632C21.5444 8.768 18.0537 9.13066 15.5151 9.72C12.9764 10.3093 11.1631 11.148 10.0751 12.236C9.0324 13.2787 8.51106 14.6387 8.51106 16.316C8.51106 17.8573 8.9644 19.3307 9.87106 20.736C10.0524 21.0533 10.1431 21.3933 10.1431 21.756C10.1431 22.6173 9.62173 23.4333 8.57906 24.204C7.58173 24.9293 6.53906 25.292 5.45106 25.292C4.6804 25.292 4.04573 25.0653 3.54706 24.612C2.6404 23.8413 1.8924 22.7533 1.30306 21.348C0.713729 19.8973 0.419063 18.2653 0.419063 16.452C0.419063 12.5987 1.66573 9.516 4.15906 7.204C6.69773 4.84666 10.5284 3.124 15.6511 2.036C20.8191 0.947997 27.4377 0.403996 35.5071 0.403996C40.4937 0.403996 44.4604 0.494663 47.4071 0.675996C50.3991 0.85733 53.0057 1.152 55.2271 1.56ZM55.5665 21.824C53.6625 21.824 52.2345 21.3933 51.2825 20.532C50.3305 19.6253 49.8545 18.3787 49.8545 16.792C49.8545 15.2053 50.4665 13.8907 51.6905 12.848C52.9599 11.76 54.5239 11.216 56.3825 11.216C58.0599 11.216 59.4199 11.624 60.4625 12.44C61.5052 13.256 62.0265 14.412 62.0265 15.908C62.0265 17.7213 61.4372 19.172 60.2585 20.26C59.0799 21.3027 57.5159 21.824 55.5665 21.824ZM55.0225 58.34C52.0759 58.34 49.9225 57.2973 48.5625 55.212C47.2479 53.1267 46.5905 50.3613 46.5905 46.916C46.5905 44.876 46.8399 42.2693 47.3385 39.096C47.8825 35.8773 48.5625 32.8853 49.3785 30.12C49.7865 28.6693 50.3305 27.672 51.0105 27.128C51.6905 26.584 52.7785 26.312 54.2745 26.312C56.5865 26.312 57.7425 27.0827 57.7425 28.624C57.7425 29.7573 57.3119 32.3867 56.4505 36.512C55.3625 41.4987 54.8185 44.876 54.8185 46.644C54.8185 48.004 54.9999 49.0467 55.3625 49.772C55.7252 50.4973 56.3372 50.86 57.1985 50.86C58.0145 50.86 59.0345 50.2933 60.2585 49.16C61.4825 48.0267 63.1145 46.236 65.1545 43.788C65.6985 43.1533 66.3105 42.836 66.9905 42.836C67.5799 42.836 68.0332 43.108 68.3505 43.652C68.7132 44.196 68.8945 44.944 68.8945 45.896C68.8945 47.7093 68.4639 49.1147 67.6025 50.112C63.1145 55.5973 58.9212 58.34 55.0225 58.34ZM76.0409 58.34C71.7342 58.34 68.3569 57.0933 65.9089 54.6C63.5062 52.0613 62.3049 48.7293 62.3049 44.604C62.3049 40.932 63.0302 37.7133 64.4809 34.948C65.9316 32.1827 67.8129 30.052 70.1249 28.556C72.4369 27.06 74.8622 26.312 77.4009 26.312C79.8942 26.312 81.8209 27.06 83.1809 28.556C84.5862 30.0067 85.2889 31.888 85.2889 34.2C85.2889 36.104 84.8582 37.7133 83.9969 39.028C83.1809 40.3427 82.0929 41 80.7329 41C79.8716 41 79.1689 40.796 78.6249 40.388C78.1262 39.98 77.8769 39.4133 77.8769 38.688C77.8769 38.3707 77.9222 38.008 78.0129 37.6C78.1036 37.192 78.1716 36.8973 78.2169 36.716C78.4436 36.036 78.5569 35.4013 78.5569 34.812C78.5569 34.2227 78.3982 33.7693 78.0809 33.452C77.8089 33.1347 77.4009 32.976 76.8569 32.976C75.8142 32.976 74.8396 33.452 73.9329 34.404C73.0262 35.3107 72.3009 36.5573 71.7569 38.144C71.2129 39.7307 70.9409 41.476 70.9409 43.38C70.9409 45.964 71.4622 47.936 72.5049 49.296C73.5929 50.6107 75.1116 51.268 77.0609 51.268C78.6022 51.268 80.0076 50.8147 81.2769 49.908C82.5916 49.0013 83.8836 47.664 85.1529 45.896C85.6969 45.216 86.3089 44.876 86.9889 44.876C87.5782 44.876 88.0316 45.148 88.3489 45.692C88.7116 46.236 88.8929 46.984 88.8929 47.936C88.8929 49.568 88.5076 50.9733 87.7369 52.152C86.5129 54.056 84.9036 55.5747 82.9089 56.708C80.9142 57.796 78.6249 58.34 76.0409 58.34ZM162.805 1.56C164.211 1.832 165.253 2.308 165.933 2.988C166.659 3.668 167.021 4.46133 167.021 5.368C167.021 6.864 166.591 7.952 165.729 8.632C164.913 9.312 163.599 9.584 161.785 9.448C157.705 9.13066 154.509 8.92666 152.197 8.836C149.931 8.7 146.939 8.60933 143.221 8.564C141.544 16.9053 140.003 25.292 138.597 33.724C138.099 36.8067 137.577 40.388 137.033 44.468C136.489 48.5027 136.127 51.7667 135.945 54.26C135.855 55.5747 135.311 56.5947 134.313 57.32C133.316 58 132.115 58.34 130.709 58.34C129.213 58.34 128.057 57.9773 127.241 57.252C126.425 56.5267 126.017 55.5747 126.017 54.396C126.017 53.308 126.176 51.5173 126.493 49.024C126.856 46.4853 127.264 43.8333 127.717 41.068C128.216 38.3027 128.601 35.9 128.873 33.86C129.372 30.4147 129.939 26.992 130.573 23.592C131.208 20.192 131.843 16.9733 132.477 13.936C132.613 13.256 132.772 12.4853 132.953 11.624C133.135 10.7173 133.339 9.72 133.565 8.632C129.123 8.768 125.632 9.13066 123.093 9.72C120.555 10.3093 118.741 11.148 117.653 12.236C116.611 13.2787 116.089 14.6387 116.089 16.316C116.089 17.8573 116.543 19.3307 117.449 20.736C117.631 21.0533 117.721 21.3933 117.721 21.756C117.721 22.6173 117.2 23.4333 116.157 24.204C115.16 24.9293 114.117 25.292 113.029 25.292C112.259 25.292 111.624 25.0653 111.125 24.612C110.219 23.8413 109.471 22.7533 108.881 21.348C108.292 19.8973 107.997 18.2653 107.997 16.452C107.997 12.5987 109.244 9.516 111.737 7.204C114.276 4.84666 118.107 3.124 123.229 2.036C128.397 0.947997 135.016 0.403996 143.085 0.403996C148.072 0.403996 152.039 0.494663 154.985 0.675996C157.977 0.85733 160.584 1.152 162.805 1.56ZM158.218 58.34C155.407 58.34 153.163 57.32 151.486 55.28C149.809 53.24 148.97 50.5653 148.97 47.256C148.97 43.6293 149.809 40.2067 151.486 36.988C153.163 33.724 155.385 31.1173 158.15 29.168C160.961 27.1733 163.93 26.176 167.058 26.176C168.055 26.176 168.713 26.38 169.03 26.788C169.393 27.1507 169.687 27.8307 169.914 28.828C170.866 28.6467 171.863 28.556 172.906 28.556C175.127 28.556 176.238 29.3493 176.238 30.936C176.238 31.888 175.898 34.1547 175.218 37.736C174.175 42.9493 173.654 46.576 173.654 48.616C173.654 49.296 173.813 49.84 174.13 50.248C174.493 50.656 174.946 50.86 175.49 50.86C176.351 50.86 177.394 50.316 178.618 49.228C179.842 48.0947 181.497 46.2813 183.582 43.788C184.126 43.1533 184.738 42.836 185.418 42.836C186.007 42.836 186.461 43.108 186.778 43.652C187.141 44.196 187.322 44.944 187.322 45.896C187.322 47.7093 186.891 49.1147 186.03 50.112C184.171 52.424 182.199 54.3733 180.114 55.96C178.029 57.5467 176.011 58.34 174.062 58.34C172.566 58.34 171.183 57.8413 169.914 56.844C168.69 55.8013 167.761 54.396 167.126 52.628C164.769 56.436 161.799 58.34 158.218 58.34ZM160.666 51.472C161.663 51.472 162.615 50.8827 163.522 49.704C164.429 48.5253 165.086 46.9613 165.494 45.012L168.01 32.5C166.106 32.5453 164.338 33.2707 162.706 34.676C161.119 36.036 159.85 37.8493 158.898 40.116C157.946 42.3827 157.47 44.7853 157.47 47.324C157.47 48.7293 157.742 49.772 158.286 50.452C158.875 51.132 159.669 51.472 160.666 51.472ZM194.443 58.34C190.137 58.34 186.759 57.0933 184.311 54.6C181.909 52.0613 180.707 48.7293 180.707 44.604C180.707 40.932 181.433 37.7133 182.883 34.948C184.334 32.1827 186.215 30.052 188.527 28.556C190.839 27.06 193.265 26.312 195.803 26.312C198.297 26.312 200.223 27.06 201.583 28.556C202.989 30.0067 203.691 31.888 203.691 34.2C203.691 36.104 203.261 37.7133 202.399 39.028C201.583 40.3427 200.495 41 199.135 41C198.274 41 197.571 40.796 197.027 40.388C196.529 39.98 196.279 39.4133 196.279 38.688C196.279 38.3707 196.325 38.008 196.415 37.6C196.506 37.192 196.574 36.8973 196.619 36.716C196.846 36.036 196.959 35.4013 196.959 34.812C196.959 34.2227 196.801 33.7693 196.483 33.452C196.211 33.1347 195.803 32.976 195.259 32.976C194.217 32.976 193.242 33.452 192.335 34.404C191.429 35.3107 190.703 36.5573 190.159 38.144C189.615 39.7307 189.343 41.476 189.343 43.38C189.343 45.964 189.865 47.936 190.907 49.296C191.995 50.6107 193.514 51.268 195.463 51.268C197.005 51.268 198.41 50.8147 199.679 49.908C200.994 49.0013 202.286 47.664 203.555 45.896C204.099 45.216 204.711 44.876 205.391 44.876C205.981 44.876 206.434 45.148 206.751 45.692C207.114 46.236 207.295 46.984 207.295 47.936C207.295 49.568 206.91 50.9733 206.139 52.152C204.915 54.056 203.306 55.5747 201.311 56.708C199.317 57.796 197.027 58.34 194.443 58.34ZM281.208 1.56C282.613 1.832 283.656 2.308 284.336 2.988C285.061 3.668 285.424 4.46133 285.424 5.368C285.424 6.864 284.993 7.952 284.132 8.632C283.316 9.312 282.001 9.584 280.188 9.448C276.108 9.13066 272.912 8.92666 270.6 8.836C268.333 8.7 265.341 8.60933 261.624 8.564C259.946 16.9053 258.405 25.292 257 33.724C256.501 36.8067 255.98 40.388 255.436 44.468C254.892 48.5027 254.529 51.7667 254.348 54.26C254.257 55.5747 253.713 56.5947 252.716 57.32C251.718 58 250.517 58.34 249.112 58.34C247.616 58.34 246.46 57.9773 245.644 57.252C244.828 56.5267 244.42 55.5747 244.42 54.396C244.42 53.308 244.578 51.5173 244.896 49.024C245.258 46.4853 245.666 43.8333 246.12 41.068C246.618 38.3027 247.004 35.9 247.276 33.86C247.774 30.4147 248.341 26.992 248.976 23.592C249.61 20.192 250.245 16.9733 250.88 13.936C251.016 13.256 251.174 12.4853 251.356 11.624C251.537 10.7173 251.741 9.72 251.968 8.632C247.525 8.768 244.034 9.13066 241.496 9.72C238.957 10.3093 237.144 11.148 236.056 12.236C235.013 13.2787 234.492 14.6387 234.492 16.316C234.492 17.8573 234.945 19.3307 235.852 20.736C236.033 21.0533 236.124 21.3933 236.124 21.756C236.124 22.6173 235.602 23.4333 234.56 24.204C233.562 24.9293 232.52 25.292 231.432 25.292C230.661 25.292 230.026 25.0653 229.528 24.612C228.621 23.8413 227.873 22.7533 227.284 21.348C226.694 19.8973 226.4 18.2653 226.4 16.452C226.4 12.5987 227.646 9.516 230.14 7.204C232.678 4.84666 236.509 3.124 241.632 2.036C246.8 0.947997 253.418 0.403996 261.488 0.403996C266.474 0.403996 270.441 0.494663 273.388 0.675996C276.38 0.85733 278.986 1.152 281.208 1.56ZM303.268 37.124C303.858 37.124 304.311 37.4187 304.628 38.008C304.946 38.5973 305.104 39.3453 305.104 40.252C305.104 42.428 304.447 43.72 303.132 44.128C300.412 45.08 297.42 45.624 294.156 45.76C293.295 49.568 291.595 52.628 289.056 54.94C286.518 57.2067 283.639 58.34 280.42 58.34C277.7 58.34 275.366 57.6827 273.416 56.368C271.512 55.0533 270.062 53.308 269.064 51.132C268.067 48.956 267.568 46.5987 267.568 44.06C267.568 40.6147 268.226 37.5547 269.54 34.88C270.855 32.16 272.668 30.052 274.98 28.556C277.292 27.0147 279.854 26.244 282.664 26.244C286.11 26.244 288.875 27.4453 290.96 29.848C293.091 32.2053 294.338 35.1293 294.7 38.62C296.831 38.484 299.37 38.0307 302.316 37.26C302.679 37.1693 302.996 37.124 303.268 37.124ZM280.964 51.132C282.415 51.132 283.662 50.5427 284.704 49.364C285.792 48.1853 286.518 46.4853 286.88 44.264C285.475 43.312 284.387 42.0653 283.616 40.524C282.891 38.9827 282.528 37.3507 282.528 35.628C282.528 34.9027 282.596 34.1773 282.732 33.452H282.392C280.579 33.452 279.06 34.336 277.836 36.104C276.658 37.8267 276.068 40.2747 276.068 43.448C276.068 45.9413 276.544 47.8453 277.496 49.16C278.494 50.4747 279.65 51.132 280.964 51.132ZM323.612 44.876C324.201 44.876 324.655 45.148 324.972 45.692C325.335 46.236 325.516 46.984 325.516 47.936C325.516 49.568 325.131 50.9733 324.36 52.152C323.091 54.1013 321.413 55.62 319.328 56.708C317.288 57.796 314.84 58.34 311.984 58.34C307.632 58.34 304.255 57.048 301.852 54.464C299.449 51.8347 298.248 48.2987 298.248 43.856C298.248 40.728 298.905 37.8267 300.22 35.152C301.535 32.432 303.348 30.2787 305.66 28.692C308.017 27.1053 310.669 26.312 313.616 26.312C316.245 26.312 318.353 27.1053 319.94 28.692C321.527 30.2333 322.32 32.3413 322.32 35.016C322.32 38.144 321.187 40.8413 318.92 43.108C316.699 45.3293 312.891 47.0973 307.496 48.412C308.584 50.4973 310.42 51.54 313.004 51.54C314.863 51.54 316.381 51.1093 317.56 50.248C318.784 49.3867 320.189 47.936 321.776 45.896C322.32 45.216 322.932 44.876 323.612 44.876ZM312.46 32.976C310.783 32.976 309.355 33.9507 308.176 35.9C307.043 37.8493 306.476 40.2067 306.476 42.972V43.108C309.151 42.4733 311.259 41.5213 312.8 40.252C314.341 38.9827 315.112 37.5093 315.112 35.832C315.112 34.9707 314.863 34.2907 314.364 33.792C313.911 33.248 313.276 32.976 312.46 32.976Z" fill="black"/>
</svg>
