<svg width="25" height="19" viewBox="0 0 25 19" fill="none" xmlns="http://www.w3.org/2000/svg">
<g filter="url(#filter0_d)">
<path d="M4.31641 1.33789C4.31641 0.921224 4.54102 0.667318 4.99023 0.576172L5.41016 0.498047C5.45573 0.485026 5.49479 0.478516 5.52734 0.478516C5.56641 0.478516 5.60221 0.478516 5.63477 0.478516C6.0319 0.478516 6.26628 0.70638 6.33789 1.16211C6.36393 1.38346 6.39648 1.66341 6.43555 2.00195C6.47461 2.34049 6.52344 2.71159 6.58203 3.11523C6.64714 3.51888 6.71875 3.94206 6.79688 4.38477C6.88151 4.82747 6.97591 5.26367 7.08008 5.69336C7.18424 6.11654 7.30143 6.52018 7.43164 6.9043C7.56185 7.28841 7.70833 7.62695 7.87109 7.91992C8.03385 8.21289 8.20964 8.44727 8.39844 8.62305C8.59375 8.79232 8.80534 8.87695 9.0332 8.87695C9.19596 8.87695 9.35872 8.82812 9.52148 8.73047C9.69076 8.63281 9.85677 8.50586 10.0195 8.34961C10.1823 8.18685 10.3385 8.00456 10.4883 7.80273C10.638 7.60091 10.7747 7.39583 10.8984 7.1875C11.0221 6.97917 11.1328 6.7806 11.2305 6.5918C11.3346 6.39648 11.416 6.22721 11.4746 6.08398C11.5137 5.96029 11.5332 5.84635 11.5332 5.74219C11.5332 5.6901 11.5299 5.63802 11.5234 5.58594C11.5169 5.53385 11.5072 5.47852 11.4941 5.41992C11.3704 5.01628 11.276 4.61263 11.2109 4.20898C11.1458 3.80534 11.1133 3.36914 11.1133 2.90039C11.1133 2.62695 11.1361 2.35677 11.1816 2.08984C11.2272 1.82292 11.3053 1.57878 11.416 1.35742C11.4746 1.24023 11.5625 1.13932 11.6797 1.05469C11.7969 0.970052 11.9238 0.901693 12.0605 0.849609C12.2038 0.797526 12.3503 0.761719 12.5 0.742188C12.6562 0.716146 12.7995 0.703125 12.9297 0.703125C13.0729 0.703125 13.2031 0.732422 13.3203 0.791016C13.4375 0.843099 13.5417 0.934245 13.6328 1.06445C13.8151 1.31185 13.9421 1.59505 14.0137 1.91406C14.0918 2.23307 14.1309 2.55534 14.1309 2.88086C14.1309 3.23242 14.0983 3.59375 14.0332 3.96484C13.9681 4.32943 13.89 4.69401 13.7988 5.05859C13.7533 5.14974 13.7305 5.25065 13.7305 5.36133C13.7305 5.41341 13.737 5.46875 13.75 5.52734C13.7695 5.58594 13.7923 5.65104 13.8184 5.72266C13.9355 6.02865 14.0723 6.34115 14.2285 6.66016C14.3913 6.97266 14.5768 7.25586 14.7852 7.50977C14.9935 7.76367 15.2279 7.97201 15.4883 8.13477C15.7487 8.29753 16.0449 8.37891 16.377 8.37891C16.6699 8.37891 16.9336 8.25521 17.168 8.00781C17.4023 7.76042 17.5977 7.44792 17.7539 7.07031C17.9167 6.69271 18.0404 6.28255 18.125 5.83984C18.2096 5.39062 18.252 4.96419 18.252 4.56055C18.252 4.13086 18.2357 3.70768 18.2031 3.29102C18.1706 2.87435 18.1283 2.49023 18.0762 2.13867C18.0632 2.10612 18.0566 2.07357 18.0566 2.04102C18.0566 2.00846 18.0566 1.97591 18.0566 1.94336C18.0566 1.57227 18.2552 1.31836 18.6523 1.18164L19.0918 1.03516C19.2155 0.996094 19.3294 0.976562 19.4336 0.976562C19.7786 0.976562 19.987 1.19141 20.0586 1.62109C20.1302 2.02474 20.1855 2.42839 20.2246 2.83203C20.2702 3.23568 20.293 3.63932 20.293 4.04297C20.293 4.90234 20.1921 5.70964 19.9902 6.46484C19.7884 7.22005 19.5052 7.88086 19.1406 8.44727C18.7826 9.00716 18.3561 9.44987 17.8613 9.77539C17.3665 10.1009 16.8229 10.2637 16.2305 10.2637C15.651 10.2637 15.0684 10.0911 14.4824 9.74609C13.8965 9.39453 13.3659 8.83789 12.8906 8.07617C12.7995 7.9069 12.6953 7.82227 12.5781 7.82227C12.4674 7.82227 12.3665 7.9069 12.2754 8.07617C12.0475 8.47982 11.7969 8.85417 11.5234 9.19922C11.25 9.53776 10.9603 9.83073 10.6543 10.0781C10.3483 10.3255 10.0293 10.5176 9.69727 10.6543C9.36523 10.791 9.02995 10.8594 8.69141 10.8594C8.14453 10.8594 7.66276 10.7096 7.24609 10.4102C6.83594 10.1172 6.47786 9.72331 6.17188 9.22852C5.8724 8.73372 5.61849 8.16732 5.41016 7.5293C5.20182 6.88477 5.02604 6.21745 4.88281 5.52734C4.74609 4.83073 4.63216 4.13411 4.54102 3.4375C4.45638 2.74089 4.38151 2.08984 4.31641 1.48438V1.33789Z" fill="#F24E1E"/>
</g>
<defs>
<filter id="filter0_d" x="0.316406" y="0.478516" width="23.9766" height="18.3809" filterUnits="userSpaceOnUse" color-interpolation-filters="sRGB">
<feFlood flood-opacity="0" result="BackgroundImageFix"/>
<feColorMatrix in="SourceAlpha" type="matrix" values="0 0 0 0 0 0 0 0 0 0 0 0 0 0 0 0 0 0 127 0"/>
<feOffset dy="4"/>
<feGaussianBlur stdDeviation="2"/>
<feColorMatrix type="matrix" values="0 0 0 0 0 0 0 0 0 0 0 0 0 0 0 0 0 0 0.25 0"/>
<feBlend mode="normal" in2="BackgroundImageFix" result="effect1_dropShadow"/>
<feBlend mode="normal" in="SourceGraphic" in2="effect1_dropShadow" result="shape"/>
</filter>
</defs>
</svg>
