<svg width="30" height="29" viewBox="0 0 30 29" fill="none" xmlns="http://www.w3.org/2000/svg">
<g filter="url(#filter0_d)">
<path d="M11.793 19.6484C11.5352 20.2695 11.1426 20.5801 10.6152 20.5801C10.4043 20.5801 10.1641 20.5215 9.89453 20.4043L9.41992 20.1758C8.8457 19.8945 8.55859 19.502 8.55859 18.998C8.55859 18.7402 8.60547 18.5 8.69922 18.2773C9.0625 17.4219 9.45508 16.5371 9.87695 15.623C10.2988 14.6973 10.7441 13.7539 11.2129 12.793C11.248 12.6992 11.2832 12.6113 11.3184 12.5293C11.3535 12.4473 11.3711 12.3711 11.3711 12.3008C11.3711 12.0195 11.2246 11.7676 10.9316 11.5449C9.94727 10.8066 8.96875 10.0684 7.99609 9.33008C7.03516 8.58008 6.05664 7.8418 5.06055 7.11523C4.62695 6.81055 4.41016 6.45898 4.41016 6.06055C4.41016 5.89648 4.43945 5.73828 4.49805 5.58594C4.55664 5.42187 4.66211 5.25781 4.81445 5.09375L5.30664 4.51367C5.64648 4.11523 6.02148 3.91602 6.43164 3.91602C6.57227 3.91602 6.71289 3.95117 6.85352 4.02148C7.00586 4.08008 7.16406 4.16211 7.32812 4.26758C8.19531 4.90039 9.05078 5.5332 9.89453 6.16602C10.75 6.78711 11.5996 7.42578 12.4434 8.08203C12.5488 8.15234 12.6484 8.21094 12.7422 8.25781C12.8359 8.30469 12.9297 8.32812 13.0234 8.32812C13.2812 8.32812 13.5098 8.16406 13.709 7.83594C14.2715 6.74609 14.8516 5.66797 15.4492 4.60156C16.0469 3.53516 16.6621 2.48633 17.2949 1.45508C17.6113 0.974609 17.9863 0.734375 18.4199 0.734375C18.666 0.734375 18.9531 0.833984 19.2812 1.0332L19.5625 1.20898C20.043 1.52539 20.2832 1.89453 20.2832 2.31641C20.2832 2.46875 20.2598 2.62109 20.2129 2.77344C20.166 2.91406 20.0957 3.06641 20.002 3.23047C19.3105 4.33203 18.6543 5.44531 18.0332 6.57031C17.4121 7.69531 16.8086 8.83789 16.2227 9.99805C16.1875 10.0918 16.1523 10.1738 16.1172 10.2441C16.0938 10.3145 16.082 10.3848 16.082 10.4551C16.082 10.748 16.2227 11 16.5039 11.2109C17.8633 12.2656 19.2109 13.3262 20.5469 14.3926C21.8828 15.4473 23.2246 16.4902 24.5723 17.5215C24.9824 17.8379 25.1875 18.1836 25.1875 18.5586C25.1875 18.9102 25.0059 19.2441 24.6426 19.5605L24.0273 20.1055C23.6875 20.4219 23.3418 20.5801 22.9902 20.5801C22.6738 20.5801 22.3516 20.4453 22.0234 20.1758L15.0625 14.7441C14.957 14.6738 14.8574 14.6152 14.7637 14.5684C14.6816 14.5215 14.5938 14.498 14.5 14.498C14.2188 14.498 13.9902 14.6738 13.8145 15.0254L11.793 19.6484Z" fill="#F24E1E"/>
</g>
<defs>
<filter id="filter0_d" x="0.410156" y="0.734375" width="28.7773" height="27.8457" filterUnits="userSpaceOnUse" color-interpolation-filters="sRGB">
<feFlood flood-opacity="0" result="BackgroundImageFix"/>
<feColorMatrix in="SourceAlpha" type="matrix" values="0 0 0 0 0 0 0 0 0 0 0 0 0 0 0 0 0 0 127 0"/>
<feOffset dy="4"/>
<feGaussianBlur stdDeviation="2"/>
<feColorMatrix type="matrix" values="0 0 0 0 0 0 0 0 0 0 0 0 0 0 0 0 0 0 0.25 0"/>
<feBlend mode="normal" in2="BackgroundImageFix" result="effect1_dropShadow"/>
<feBlend mode="normal" in="SourceGraphic" in2="effect1_dropShadow" result="shape"/>
</filter>
</defs>
</svg>
