<svg width="22" height="20" viewBox="0 0 22 20" fill="none" xmlns="http://www.w3.org/2000/svg">
<g filter="url(#filter0_d)">
<path d="M5.36328 6.24414C5.13542 6.24414 4.95312 6.19206 4.81641 6.08789C4.6862 5.97721 4.62109 5.82096 4.62109 5.61914C4.62109 5.58008 4.62435 5.54102 4.63086 5.50195C4.64388 5.45638 4.6569 5.40755 4.66992 5.35547L4.72852 5.14062C4.82617 4.69141 5.11263 4.45703 5.58789 4.4375C6.06966 4.42448 6.54818 4.41471 7.02344 4.4082C7.4987 4.40169 7.97396 4.39844 8.44922 4.39844C8.67057 4.39844 8.88542 4.39844 9.09375 4.39844C9.30859 4.39844 9.52018 4.40495 9.72852 4.41797C9.9694 4.41797 10.1745 4.33333 10.3438 4.16406L10.9102 3.55859C11.0078 3.46094 11.0762 3.36328 11.1152 3.26562C11.1608 3.16797 11.1836 3.07357 11.1836 2.98242C11.1836 2.85872 11.138 2.75456 11.0469 2.66992C10.9622 2.58529 10.8353 2.53646 10.666 2.52344C9.55924 2.52344 8.62174 2.52995 7.85352 2.54297C7.0918 2.55599 6.50911 2.5625 6.10547 2.5625C5.61068 2.5625 5.36328 2.35417 5.36328 1.9375C5.36328 1.89844 5.36654 1.85612 5.37305 1.81055C5.37956 1.76497 5.38932 1.71615 5.40234 1.66406L5.46094 1.45898C5.5651 0.990234 5.86133 0.755859 6.34961 0.755859C6.85091 0.742839 7.35221 0.729818 7.85352 0.716797C8.35482 0.703776 8.85938 0.697266 9.36719 0.697266C9.85547 0.697266 10.2917 0.703776 10.6758 0.716797C11.0599 0.723307 11.4049 0.746094 11.7109 0.785156C12.0234 0.824219 12.3034 0.879557 12.5508 0.951172C12.7982 1.02279 13.0358 1.12044 13.2637 1.24414C13.4264 1.33529 13.5469 1.42318 13.625 1.50781C13.7096 1.58594 13.778 1.67057 13.8301 1.76172C13.8626 1.82031 13.8887 1.88216 13.9082 1.94727C13.9342 2.00586 13.9473 2.07747 13.9473 2.16211C13.9473 2.28581 13.9212 2.41276 13.8691 2.54297C13.8105 2.70573 13.7227 2.87174 13.6055 3.04102C13.4948 3.21029 13.3678 3.3763 13.2246 3.53906C13.0879 3.69531 12.9447 3.84831 12.7949 3.99805C12.6517 4.14779 12.5215 4.28776 12.4043 4.41797C12.3913 4.43099 12.3848 4.45052 12.3848 4.47656C12.3848 4.54167 12.4368 4.59375 12.541 4.63281C12.6452 4.66536 12.7852 4.68815 12.9609 4.70117C13.4362 4.74023 13.9049 4.78581 14.3672 4.83789C14.8294 4.88346 15.2949 4.9388 15.7637 5.00391C15.9655 5.02344 16.1217 5.08529 16.2324 5.18945C16.3496 5.28711 16.4082 5.41732 16.4082 5.58008C16.4082 5.70378 16.3724 5.83724 16.3008 5.98047C16.2812 6.01953 16.2617 6.05859 16.2422 6.09766C16.2292 6.13672 16.2161 6.17904 16.2031 6.22461C16.0208 6.60872 15.7474 6.80078 15.3828 6.80078C15.3633 6.80078 15.3405 6.79753 15.3145 6.79102C15.2884 6.78451 15.2591 6.78125 15.2266 6.78125C14.862 6.72917 14.4583 6.68359 14.0156 6.64453C13.5794 6.59896 13.1497 6.5599 12.7266 6.52734C12.3099 6.49479 11.9258 6.46875 11.5742 6.44922C11.2292 6.42969 10.9655 6.41992 10.7832 6.41992C10.5814 6.41992 10.4023 6.5013 10.2461 6.66406C9.97917 6.95052 9.73503 7.22396 9.51367 7.48438C9.29883 7.73828 9.07747 8.02474 8.84961 8.34375C8.78451 8.4349 8.73242 8.51953 8.69336 8.59766C8.66081 8.67578 8.64453 8.75716 8.64453 8.8418C8.64453 8.97852 8.69661 9.09896 8.80078 9.20312C8.91146 9.30078 9.0612 9.35938 9.25 9.37891C9.8099 9.45052 10.3861 9.49284 10.9785 9.50586C11.5775 9.51237 12.1927 9.51562 12.8242 9.51562C13.0065 9.51562 13.1921 9.51237 13.3809 9.50586C13.5697 9.49935 13.7585 9.48958 13.9473 9.47656C14.4551 9.4375 14.709 9.27148 14.709 8.97852C14.709 8.84831 14.7611 8.74414 14.8652 8.66602C14.9759 8.58138 15.1354 8.53906 15.3438 8.53906C15.487 8.53906 15.6693 8.5651 15.8906 8.61719C16.112 8.66276 16.3236 8.73438 16.5254 8.83203C16.7272 8.92969 16.8997 9.05013 17.043 9.19336C17.1927 9.33659 17.2676 9.49935 17.2676 9.68164C17.2676 9.82487 17.2253 9.96484 17.1406 10.1016C17.056 10.2383 16.9453 10.3652 16.8086 10.4824C16.6719 10.5931 16.5221 10.6908 16.3594 10.7754C16.1966 10.8535 16.0371 10.9089 15.8809 10.9414C15.321 11.0586 14.6667 11.1497 13.918 11.2148C13.1758 11.2865 12.4173 11.3223 11.6426 11.3223C11.0371 11.3223 10.4577 11.3027 9.9043 11.2637C9.35091 11.2311 8.85938 11.1823 8.42969 11.1172C8.19531 11.0846 7.95768 11.0456 7.7168 11C7.47591 10.9479 7.2513 10.873 7.04297 10.7754C6.84115 10.6777 6.66536 10.5475 6.51562 10.3848C6.36589 10.222 6.26823 10.0072 6.22266 9.74023C6.22266 9.70768 6.2194 9.68164 6.21289 9.66211C6.20638 9.64258 6.20312 9.61654 6.20312 9.58398C6.20312 9.38216 6.25521 9.16081 6.35938 8.91992C6.46354 8.67253 6.59701 8.42513 6.75977 8.17773C6.92253 7.93034 7.09831 7.68945 7.28711 7.45508C7.48242 7.21419 7.66797 6.99609 7.84375 6.80078C7.95443 6.67057 8.00977 6.55664 8.00977 6.45898C8.00977 6.38086 7.9707 6.31901 7.89258 6.27344C7.81445 6.22135 7.70378 6.19531 7.56055 6.19531L5.36328 6.24414Z" fill="#F24E1E"/>
</g>
<defs>
<filter id="filter0_d" x="0.621094" y="0.697266" width="20.6465" height="18.625" filterUnits="userSpaceOnUse" color-interpolation-filters="sRGB">
<feFlood flood-opacity="0" result="BackgroundImageFix"/>
<feColorMatrix in="SourceAlpha" type="matrix" values="0 0 0 0 0 0 0 0 0 0 0 0 0 0 0 0 0 0 127 0"/>
<feOffset dy="4"/>
<feGaussianBlur stdDeviation="2"/>
<feColorMatrix type="matrix" values="0 0 0 0 0 0 0 0 0 0 0 0 0 0 0 0 0 0 0.25 0"/>
<feBlend mode="normal" in2="BackgroundImageFix" result="effect1_dropShadow"/>
<feBlend mode="normal" in="SourceGraphic" in2="effect1_dropShadow" result="shape"/>
</filter>
</defs>
</svg>
